<svg xmlns="http://www.w3.org/2000/svg" xmlns:xlink="http://www.w3.org/1999/xlink" viewBox="0 0 126.51 126.51"><defs><style>.cls-1{fill:none;}.cls-2{clip-path:url(#clip-path);}.cls-3{fill:#f2f2f2;}.cls-4{clip-path:url(#clip-path-2);}.cls-5{fill:#4d4d4d;}.cls-6{fill:#e04894;}.cls-7{fill:#d64ca8;}</style><clipPath id="clip-path"><circle class="cls-1" cx="63.52" cy="63.87" r="62.64"/></clipPath><clipPath id="clip-path-2"><rect class="cls-1" width="126.51" height="126.51" transform="translate(0 126.51) rotate(-90)"/></clipPath></defs><title>logo</title><g id="Layer_2" data-name="Layer 2"><g id="_003_what_is_it_" data-name="003_what is it?"><g class="cls-2"><rect class="cls-3" width="126.51" height="126.51" transform="translate(0 126.51) rotate(-90)"/><g class="cls-4"><circle class="cls-5" cx="17.7" cy="90.29" r="7.66"/><circle class="cls-5" cx="17.7" cy="64.51" r="7.66"/><circle class="cls-5" cx="17.7" cy="38.74" r="7.66"/><circle class="cls-5" cx="41.21" cy="102.91" r="7.66"/><circle class="cls-5" cx="41.21" cy="77.13" r="7.66"/><circle class="cls-5" cx="41.21" cy="51.36" r="7.66"/><circle class="cls-5" cx="41.21" cy="25.58" r="7.66"/><circle class="cls-5" cx="63.86" cy="116.07" r="7.66"/><circle class="cls-5" cx="63.86" cy="90.29" r="7.66"/><circle class="cls-6" cx="63.86" cy="64.51" r="7.66"/><circle class="cls-5" cx="63.86" cy="38.74" r="7.66"/><circle class="cls-5" cx="63.86" cy="12.96" r="7.66"/><circle class="cls-5" cx="87.38" cy="102.91" r="7.66"/><circle class="cls-5" cx="87.38" cy="77.13" r="7.66"/><circle class="cls-5" cx="87.38" cy="51.36" r="7.66"/><circle class="cls-5" cx="87.38" cy="25.58" r="7.66"/><circle class="cls-5" cx="110.03" cy="90.29" r="7.66"/><circle class="cls-5" cx="110.03" cy="64.51" r="7.66"/><circle class="cls-5" cx="110.03" cy="38.74" r="7.66"/></g><circle class="cls-1" cx="63.52" cy="63.87" r="62.64"/><g class="cls-2"><circle class="cls-1" cx="45.72" cy="29.87" r="13.64"/><circle class="cls-1" cx="82.35" cy="29.87" r="13.64"/><circle class="cls-1" cx="27.79" cy="64.81" r="13.64"/><circle class="cls-1" cx="101.05" cy="64.81" r="13.64"/><circle class="cls-1" cx="45.72" cy="97" r="13.64"/><circle class="cls-1" cx="82.35" cy="97" r="13.64"/></g><rect class="cls-3" width="126.51" height="126.51" transform="translate(0 126.51) rotate(-90)"/><g class="cls-4"><circle class="cls-5" cx="19.81" cy="89.11" r="7.31"/><circle class="cls-5" cx="19.81" cy="64.51" r="7.31"/><circle class="cls-5" cx="19.81" cy="39.92" r="7.31"/><circle class="cls-5" cx="42.25" cy="101.15" r="7.31"/><circle class="cls-5" cx="42.25" cy="76.56" r="7.31"/><circle class="cls-5" cx="42.25" cy="51.96" r="7.31"/><circle class="cls-5" cx="42.25" cy="27.36" r="7.31"/><circle class="cls-5" cx="63.86" cy="113.71" r="7.31"/><circle class="cls-5" cx="63.86" cy="89.11" r="7.31"/><circle class="cls-7" cx="63.86" cy="64.51" r="7.31"/><circle class="cls-5" cx="63.86" cy="39.92" r="7.31"/><circle class="cls-5" cx="63.86" cy="15.32" r="7.31"/><circle class="cls-5" cx="86.3" cy="101.15" r="7.31"/><circle class="cls-5" cx="86.3" cy="76.56" r="7.31"/><circle class="cls-5" cx="86.3" cy="51.96" r="7.31"/><circle class="cls-5" cx="86.3" cy="27.36" r="7.31"/><circle class="cls-5" cx="107.91" cy="89.11" r="7.31"/><circle class="cls-5" cx="107.91" cy="64.51" r="7.31"/><circle class="cls-5" cx="107.91" cy="39.92" r="7.31"/></g><g class="cls-2"><circle class="cls-1" cx="45.72" cy="29.87" r="13.64"/><circle class="cls-1" cx="82.35" cy="29.87" r="13.64"/><circle class="cls-1" cx="27.79" cy="64.81" r="13.64"/><circle class="cls-1" cx="101.05" cy="64.81" r="13.64"/><circle class="cls-1" cx="45.72" cy="97" r="13.64"/><circle class="cls-1" cx="82.35" cy="97" r="13.64"/></g></g></g></g></svg>