<svg xmlns="http://www.w3.org/2000/svg" viewBox="0 0 315.74 85.84"><defs><style>.cls-1{fill:#4d4d4d;}</style></defs><title>Asset 6</title><g id="Layer_2" data-name="Layer 2"><g id="_001_header" data-name="001_header"><path class="cls-1" d="M12.73,58.74c2.21-10.11,6.07-34.79,11-48,1.22-3.29,9.2-4.78,13.7-1.05C34.07,21.86,31,40.27,31,40.27A11.73,11.73,0,0,0,35.48,39a17.63,17.63,0,0,0,4-2.82,21.66,21.66,0,0,0,3.31-4,28.66,28.66,0,0,0,2.5-4.75,28.92,28.92,0,0,0,1.58-5.14,25.26,25.26,0,0,0,.55-5.17,17.81,17.81,0,0,0-.67-4.94,11.72,11.72,0,0,0-2.07-4.09A9.6,9.6,0,0,0,41,5.33a12.77,12.77,0,0,0-5.3-1A31.37,31.37,0,0,0,25.47,5.88a21,21,0,0,0-7.65,4.5,23.85,23.85,0,0,0-5.37,7.19,22.56,22.56,0,0,0-2,9.62,14.05,14.05,0,0,0,.25,2.92,11,11,0,0,0,.52,1.79,6,6,0,0,0,.52,1,1.21,1.21,0,0,1,.25.64,24.75,24.75,0,0,1-5.16-.48A10.2,10.2,0,0,1,3.1,31.55a6.76,6.76,0,0,1-2.3-2.8A10.38,10.38,0,0,1,0,24.43a12.93,12.93,0,0,1,1.62-6.15,24.11,24.11,0,0,1,4.44-5.74C11.61,7.07,18,3.24,27.72.94A34.23,34.23,0,0,1,35.64,0a28.9,28.9,0,0,1,10,1.54,20.06,20.06,0,0,1,6.91,4.11,15.92,15.92,0,0,1,4,5.9,19.17,19.17,0,0,1,1.29,7,23.4,23.4,0,0,1-1.86,9,25.47,25.47,0,0,1-5.37,8.11,27.37,27.37,0,0,1-8.54,5.85,27.54,27.54,0,0,1-11.37,2.25h-.51S25.07,66.8,22.65,74.77c-2.3,7.59-8.24,11.07-16.72,11.07C5.93,85.84,11.22,65.63,12.73,58.74Z"/><path class="cls-1" d="M85.14,49.08c-1,2.42-5.84,4.47-9.21,3.09a41.6,41.6,0,0,1-2.35,11,29.5,29.5,0,0,1-4.64,8.37,20,20,0,0,1-6.43,5.31,16.62,16.62,0,0,1-7.68,1.86A20.35,20.35,0,0,1,49.15,78a11.48,11.48,0,0,1-4.49-2.42,11.15,11.15,0,0,1-2.93-4.32,17.47,17.47,0,0,1-1.06-6.45,37,37,0,0,1,.54-5.89,42.5,42.5,0,0,1,1.73-6.8A40.7,40.7,0,0,1,46,45.29a26.29,26.29,0,0,1,4.57-6,21.87,21.87,0,0,1,6.24-4.25,19.2,19.2,0,0,1,8.07-1.62q11.35,0,11.35,14.11s0,.07,0,.09a7.27,7.27,0,0,0,9.71-2.93M68.59,52.43a2.65,2.65,0,0,1-1.88-1.36,5.28,5.28,0,0,1-.5-2.35,5.57,5.57,0,0,1,.76-3,4.53,4.53,0,0,1,2-1.75,15.68,15.68,0,0,0-.3-2.39,5.16,5.16,0,0,0-.6-1.6,2.2,2.2,0,0,0-1-.88,3.68,3.68,0,0,0-1.49-.26A4.72,4.72,0,0,0,62.55,40a14.52,14.52,0,0,0-2.78,3.26,29.74,29.74,0,0,0-2.42,4.64,45.52,45.52,0,0,0-1.88,5.37,48.28,48.28,0,0,0-1.21,5.46,31.18,31.18,0,0,0-.43,4.9,21.86,21.86,0,0,0,.24,3.58,5.57,5.57,0,0,0,.78,2.18,2.76,2.76,0,0,0,1.4,1.1,6.42,6.42,0,0,0,2.11.3,4.91,4.91,0,0,0,3.21-1.42,14.71,14.71,0,0,0,3-3.88A30.77,30.77,0,0,0,67,59.68,43.31,43.31,0,0,0,68.59,52.43Z"/><path class="cls-1" d="M105.05,65.83a17,17,0,0,0,1.33-3.26h4.17a36,36,0,0,1-2.78,6.21,25.69,25.69,0,0,1-3.19,4.44,17.38,17.38,0,0,1-6.8,4.66,15.54,15.54,0,0,1-3.13.82,18.68,18.68,0,0,1-2.65.22,11.15,11.15,0,0,1-3.71-.6,7.72,7.72,0,0,1-3-1.9,9.08,9.08,0,0,1-2-3.28,11.89,11.89,0,0,1-.73-4.79c.82-15.76,9-50.06,9-50.06,5.33-.67,13.07-1.77,13.07-1.77S95.15,60.37,95.29,67.1c0,1.88.79,3.28,3.58,3.28C101.95,70.38,104.36,67,105.05,65.83Z"/><path class="cls-1" d="M141.18,64.26c.19-1.11,1-4.4,1-4.4a10.23,10.23,0,0,0,.28-1.7q.06-.84.06-1.66a13.41,13.41,0,0,0-.58-4,9.33,9.33,0,0,0-1.79-3.3,8.44,8.44,0,0,0-3-2.24,10.46,10.46,0,0,0-4.29-.82,11.43,11.43,0,0,0-2.93.39L149.46,32.8l-10.65,1.42-17,13.42,7.06-33.9-13.08,1.81s-3,14.7-6.15,31.77c-2.65,14.4-7.12,31.09-7.12,31.09H115.2l4.62-21.83a24.82,24.82,0,0,1,3.43-2.39,6.28,6.28,0,0,1,3.09-.88,2.66,2.66,0,0,1,2.5,1.16,6.07,6.07,0,0,1,.69,3.11q0,.73-.07,1.55a10.27,10.27,0,0,1-.28,1.68l-.73,3.45a23.34,23.34,0,0,0-.52,4.62q0,4.83,2.81,7.44t8.33,2.61a16,16,0,0,0,3.52-.47,11.46,11.46,0,0,0,4.25-2.14,20.75,20.75,0,0,0,4.42-4.92,36.12,36.12,0,0,0,4.08-8.82h-3.71a27.74,27.74,0,0,1-1.4,3.17c-1.69,3-3.88,6.31-6.49,6.9C137.7,74,140.61,67.55,141.18,64.26Z"/><path class="cls-1" d="M188.32,67.1c-.26,2.52,1.21,3.8,3.62,3.8a4.52,4.52,0,0,0,2.39-.67,7.77,7.77,0,0,0,2-1.79,12.13,12.13,0,0,0,1.6-2.65,23.22,23.22,0,0,0,1.17-3.21h3.71a39.71,39.71,0,0,1-2.72,6.21,26.23,26.23,0,0,1-3,4.44,17.13,17.13,0,0,1-3.21,2.93,15.89,15.89,0,0,1-3.19,1.73,14.05,14.05,0,0,1-3,.82,17.38,17.38,0,0,1-2.59.22,8.47,8.47,0,0,1-6-2.05,9.42,9.42,0,0,1-2.7-6.06,34.19,34.19,0,0,1-2.37,3,17.68,17.68,0,0,1-2.89,2.59,14.68,14.68,0,0,1-3.56,1.86,12.66,12.66,0,0,1-4.34.71,13.34,13.34,0,0,1-4.4-.73,9.59,9.59,0,0,1-3.75-2.42,12.19,12.19,0,0,1-2.63-4.4,19.49,19.49,0,0,1-1-6.65,37.72,37.72,0,0,1,.6-6.47,41,41,0,0,1,1.86-6.9,39.24,39.24,0,0,1,3.13-6.62,26.53,26.53,0,0,1,4.4-5.61,20.12,20.12,0,0,1,5.72-3.88,16.85,16.85,0,0,1,7-1.45q3.75,0,5.46,1.29a3.88,3.88,0,0,1,1.7,3.19v.65l.95-4.7s8.3-.66,12.87-1.42C191.63,44.18,188.62,61.35,188.32,67.1Zm-7.77-24.47a3.57,3.57,0,0,0-.17-1,3.49,3.49,0,0,0-.58-1.12,3.3,3.3,0,0,0-1.1-.91,3.77,3.77,0,0,0-1.77-.37,5.88,5.88,0,0,0-3.52,1.21,13.08,13.08,0,0,0-3,3.21,25.64,25.64,0,0,0-2.46,4.55,44.23,44.23,0,0,0-3,10.55,32.12,32.12,0,0,0-.39,4.68,12.62,12.62,0,0,0,.47,3.93,5.3,5.3,0,0,0,1.14,2,2.65,2.65,0,0,0,1.45.8,8.43,8.43,0,0,0,1.38.13,5.1,5.1,0,0,0,2.09-.5,7.58,7.58,0,0,0,2.11-1.47A10.78,10.78,0,0,0,175.05,66a12.09,12.09,0,0,0,1.27-3.41Z"/><path class="cls-1" d="M250.22,62.57a38.09,38.09,0,0,1-2.72,6.17,24.55,24.55,0,0,1-3,4.34,16.21,16.21,0,0,1-3.21,2.81A15.87,15.87,0,0,1,238,77.5a13.57,13.57,0,0,1-3,.73,21.6,21.6,0,0,1-2.59.17,8,8,0,0,1-8.67-7.59,26.43,26.43,0,0,1-2.27,3,16.56,16.56,0,0,1-2.89,2.59,15,15,0,0,1-3.6,1.86,12.71,12.71,0,0,1-4.31.71,13.34,13.34,0,0,1-4.4-.73,9.59,9.59,0,0,1-3.75-2.42,12.19,12.19,0,0,1-2.63-4.4,19.49,19.49,0,0,1-1-6.65,37.72,37.72,0,0,1,.6-6.47,41,41,0,0,1,1.86-6.9,39.24,39.24,0,0,1,3.13-6.62,26.53,26.53,0,0,1,4.4-5.61,20.12,20.12,0,0,1,5.72-3.88,16.85,16.85,0,0,1,7-1.45q3.75,0,5.46,1.29a3.88,3.88,0,0,1,1.7,3.19v.35l4.66-22s6.67-.82,13.48-1.88c-6.23,17.69-10.89,49.48-10.89,49.48a8.87,8.87,0,0,0-.3,1.45,11.51,11.51,0,0,0-.09,1.4,3.14,3.14,0,0,0,.88,2.57,4.33,4.33,0,0,0,2.74.71,5,5,0,0,0,2.39-.58,6.79,6.79,0,0,0,2-1.62,11.29,11.29,0,0,0,1.57-2.48,22.79,22.79,0,0,0,1.21-3.13Zm-26.49,0L228,42.34a6.93,6.93,0,0,0-.28-.91,3.85,3.85,0,0,0-.58-1,2.93,2.93,0,0,0-1.06-.82,3.91,3.91,0,0,0-1.7-.32,5.88,5.88,0,0,0-3.52,1.21,13.08,13.08,0,0,0-3,3.21,25.64,25.64,0,0,0-2.46,4.55,44.23,44.23,0,0,0-3,10.55,32.12,32.12,0,0,0-.39,4.68,12.61,12.61,0,0,0,.47,3.93,5.3,5.3,0,0,0,1.14,2,2.65,2.65,0,0,0,1.45.8,8.44,8.44,0,0,0,1.38.13,5.32,5.32,0,0,0,2-.45,7.43,7.43,0,0,0,2.11-1.36,10,10,0,0,0,1.86-2.29A10.94,10.94,0,0,0,223.72,63Z"/><path class="cls-1" d="M290,49.46c-1.54,2-5.48,3.58-9,2.72a41.59,41.59,0,0,1-2.35,11A29.51,29.51,0,0,1,274,71.59a20,20,0,0,1-6.43,5.31,16.62,16.62,0,0,1-7.68,1.86,20.34,20.34,0,0,1-5.67-.76,11.47,11.47,0,0,1-4.49-2.42,11.14,11.14,0,0,1-2.93-4.32,17.45,17.45,0,0,1-1.06-6.45,37,37,0,0,1,.54-5.89,42.45,42.45,0,0,1,1.73-6.8,40.66,40.66,0,0,1,3.06-6.84,26.28,26.28,0,0,1,4.57-6,21.86,21.86,0,0,1,6.23-4.25A19.21,19.21,0,0,1,270,33.45q11.35,0,11.35,14.11s0,.07,0,.09c2.54,3.17,7.65-.08,9.48-2m-17.12,6.83a2.65,2.65,0,0,1-1.88-1.36,5.29,5.29,0,0,1-.5-2.35,5.58,5.58,0,0,1,.76-3,4.53,4.53,0,0,1,2-1.75,15.74,15.74,0,0,0-.3-2.39,5.17,5.17,0,0,0-.6-1.6,2.2,2.2,0,0,0-1-.88,3.68,3.68,0,0,0-1.49-.26A4.72,4.72,0,0,0,267.64,40a14.53,14.53,0,0,0-2.78,3.26,29.74,29.74,0,0,0-2.42,4.64,45.62,45.62,0,0,0-1.88,5.37,48.4,48.4,0,0,0-1.21,5.46,31.24,31.24,0,0,0-.43,4.9,21.81,21.81,0,0,0,.24,3.58,5.56,5.56,0,0,0,.78,2.18,2.76,2.76,0,0,0,1.4,1.1,6.42,6.42,0,0,0,2.11.3,4.91,4.91,0,0,0,3.21-1.42,14.7,14.7,0,0,0,3-3.88,30.77,30.77,0,0,0,2.44-5.82A43.27,43.27,0,0,0,273.68,52.43Z"/><path class="cls-1" d="M313.69,64s-.5,5.42-4.14,9a19.92,19.92,0,0,1-14.41,6,9.88,9.88,0,0,1-4.06-.76,7.15,7.15,0,0,1-2.74-2.09,8.7,8.7,0,0,1-1.55-3.17,15.1,15.1,0,0,1-.5-3.95,22.43,22.43,0,0,1,.52-4.7l5.65-26.49h-2.93l.73-3.54h2.89L295.83,22S307.5,17,311,12.67c-.43,1.58-2.34,8.77-2.49,9.45s-.29,1.39-.43,2.14q-.48,1.86-1,4.42t-1.14,5.54h9.86l-.69,3.54H305.2l-5.65,26.49a15.07,15.07,0,0,0-.32,1.66,10.85,10.85,0,0,0-.11,1.45,3.93,3.93,0,0,0,.63,2.29,2.78,2.78,0,0,0,2.44.91C307.54,70.56,313.69,64,313.69,64Z"/></g></g></svg>