<svg xmlns="http://www.w3.org/2000/svg" xmlns:xlink="http://www.w3.org/1999/xlink" viewBox="0 0 204.98 204.98"><defs><style>.cls-1,.cls-3{fill:none;}.cls-2{clip-path:url(#clip-path);}.cls-3{stroke:#4d4d4d;stroke-miterlimit:10;stroke-width:2px;}</style><clipPath id="clip-path"><circle class="cls-1" cx="102.91" cy="103.28" r="73.34" transform="translate(-42.89 103.02) rotate(-45)"/></clipPath></defs><title>Asset 1</title><g id="Layer_2" data-name="Layer 2"><g id="_003_what_is_it_" data-name="003_what is it?"><g class="cls-2"><line class="cls-3" x1="106.99" y1="0.71" x2="0.71" y2="106.99"/><line class="cls-3" x1="113.94" y1="7.66" x2="7.66" y2="113.94"/><line class="cls-3" x1="120.88" y1="14.61" x2="14.61" y2="120.88"/><line class="cls-3" x1="127.83" y1="21.55" x2="21.55" y2="127.83"/><line class="cls-3" x1="134.78" y1="28.5" x2="28.5" y2="134.78"/><line class="cls-3" x1="141.73" y1="35.45" x2="35.45" y2="141.73"/><line class="cls-3" x1="148.68" y1="42.4" x2="42.4" y2="148.68"/><line class="cls-3" x1="155.63" y1="49.35" x2="49.35" y2="155.63"/><line class="cls-3" x1="162.58" y1="56.3" x2="56.3" y2="162.58"/><line class="cls-3" x1="169.53" y1="63.25" x2="63.25" y2="169.53"/><line class="cls-3" x1="176.48" y1="70.2" x2="70.2" y2="176.48"/><line class="cls-3" x1="183.43" y1="77.15" x2="77.15" y2="183.43"/><line class="cls-3" x1="190.37" y1="84.1" x2="84.1" y2="190.37"/><line class="cls-3" x1="197.32" y1="91.04" x2="91.04" y2="197.32"/><line class="cls-3" x1="204.27" y1="97.99" x2="97.99" y2="204.27"/></g></g></g></svg>