<?xml version="1.0" encoding="utf-8"?>
<!-- Generator: Adobe Illustrator 21.0.0, SVG Export Plug-In . SVG Version: 6.00 Build 0)  -->
<svg version="1.1" id="Layer_1" xmlns="http://www.w3.org/2000/svg" xmlns:xlink="http://www.w3.org/1999/xlink" x="0px" y="0px"
	 viewBox="0 0 3158.3 2644.6" style="enable-background:new 0 0 3158.3 2644.6;" xml:space="preserve">
<style type="text/css">
	.st0{opacity:0.2;}
	.st1{fill:#F2F2F2;}
</style>
<title>bk-dots_1</title>
<g id="Layer_2" class="st0">
	<g id="_000_menu">
		<ellipse class="st1" cx="1724.9" cy="225.4" rx="56.5" ry="56.7"/>
		<ellipse class="st1" cx="1528.3" cy="225.4" rx="56.5" ry="56.7"/>
		<ellipse class="st1" cx="1331.6" cy="225.4" rx="56.5" ry="56.7"/>
		<ellipse class="st1" cx="1134.9" cy="225.4" rx="56.5" ry="56.7"/>
		<ellipse class="st1" cx="938.2" cy="225.4" rx="56.5" ry="56.7"/>
		<ellipse class="st1" cx="741.5" cy="225.4" rx="56.5" ry="56.7"/>
		<ellipse class="st1" cx="544.8" cy="225.4" rx="56.5" ry="56.7"/>
		<ellipse class="st1" cx="348.1" cy="225.4" rx="56.5" ry="56.7"/>
		<ellipse class="st1" cx="151.4" cy="225.4" rx="56.5" ry="56.7"/>
		<ellipse class="st1" cx="1921.6" cy="225.4" rx="56.5" ry="56.7"/>
		<ellipse class="st1" cx="2118.3" cy="225.4" rx="56.5" ry="56.7"/>
		<ellipse class="st1" cx="2315" cy="225.4" rx="56.5" ry="56.7"/>
		<ellipse class="st1" cx="2511.7" cy="225.4" rx="56.5" ry="56.7"/>
		<ellipse class="st1" cx="2708.4" cy="225.4" rx="56.5" ry="56.7"/>
		<ellipse class="st1" cx="2905.1" cy="225.4" rx="56.5" ry="56.7"/>
		<ellipse class="st1" cx="3101.8" cy="225.4" rx="56.5" ry="56.7"/>
		<ellipse class="st1" cx="1630" cy="56.7" rx="56.5" ry="56.7"/>
		<ellipse class="st1" cx="1433.3" cy="56.7" rx="56.5" ry="56.7"/>
		<ellipse class="st1" cx="1236.6" cy="56.7" rx="56.5" ry="56.7"/>
		<ellipse class="st1" cx="1039.9" cy="56.7" rx="56.5" ry="56.7"/>
		<ellipse class="st1" cx="843.3" cy="56.7" rx="56.5" ry="56.7"/>
		<ellipse class="st1" cx="646.6" cy="56.7" rx="56.5" ry="56.7"/>
		<ellipse class="st1" cx="449.9" cy="56.7" rx="56.5" ry="56.7"/>
		<ellipse class="st1" cx="253.2" cy="56.7" rx="56.5" ry="56.7"/>
		<ellipse class="st1" cx="56.5" cy="56.7" rx="56.5" ry="56.7"/>
		<ellipse class="st1" cx="1826.7" cy="56.7" rx="56.5" ry="56.7"/>
		<ellipse class="st1" cx="2023.4" cy="56.7" rx="56.5" ry="56.7"/>
		<ellipse class="st1" cx="2220.1" cy="56.7" rx="56.5" ry="56.7"/>
		<ellipse class="st1" cx="2416.8" cy="56.7" rx="56.5" ry="56.7"/>
		<ellipse class="st1" cx="2613.4" cy="56.7" rx="56.5" ry="56.7"/>
		<ellipse class="st1" cx="2810.1" cy="56.7" rx="56.5" ry="56.7"/>
		<ellipse class="st1" cx="3006.8" cy="56.7" rx="56.5" ry="56.7"/>
		<ellipse class="st1" cx="1724.9" cy="562.9" rx="56.5" ry="56.7"/>
		<ellipse class="st1" cx="1528.3" cy="562.9" rx="56.5" ry="56.7"/>
		<ellipse class="st1" cx="1331.6" cy="562.9" rx="56.5" ry="56.7"/>
		<ellipse class="st1" cx="1134.9" cy="562.9" rx="56.5" ry="56.7"/>
		<ellipse class="st1" cx="938.2" cy="562.9" rx="56.5" ry="56.7"/>
		<ellipse class="st1" cx="741.5" cy="562.9" rx="56.5" ry="56.7"/>
		<ellipse class="st1" cx="544.8" cy="562.9" rx="56.5" ry="56.7"/>
		<ellipse class="st1" cx="348.1" cy="562.9" rx="56.5" ry="56.7"/>
		<ellipse class="st1" cx="151.4" cy="562.9" rx="56.5" ry="56.7"/>
		<ellipse class="st1" cx="1921.6" cy="562.9" rx="56.5" ry="56.7"/>
		<ellipse class="st1" cx="2118.3" cy="562.9" rx="56.5" ry="56.7"/>
		<ellipse class="st1" cx="2315" cy="562.9" rx="56.5" ry="56.7"/>
		<ellipse class="st1" cx="2511.7" cy="562.9" rx="56.5" ry="56.7"/>
		<ellipse class="st1" cx="2708.4" cy="562.9" rx="56.5" ry="56.7"/>
		<ellipse class="st1" cx="2905.1" cy="562.9" rx="56.5" ry="56.7"/>
		<ellipse class="st1" cx="3101.8" cy="562.9" rx="56.5" ry="56.7"/>
		<ellipse class="st1" cx="1630" cy="394.2" rx="56.5" ry="56.7"/>
		<ellipse class="st1" cx="1433.3" cy="394.2" rx="56.5" ry="56.7"/>
		<ellipse class="st1" cx="1236.6" cy="394.2" rx="56.5" ry="56.7"/>
		<ellipse class="st1" cx="1039.9" cy="394.2" rx="56.5" ry="56.7"/>
		<ellipse class="st1" cx="843.3" cy="394.2" rx="56.5" ry="56.7"/>
		<ellipse class="st1" cx="646.6" cy="394.2" rx="56.5" ry="56.7"/>
		<ellipse class="st1" cx="449.9" cy="394.2" rx="56.5" ry="56.7"/>
		<ellipse class="st1" cx="253.2" cy="394.2" rx="56.5" ry="56.7"/>
		<ellipse class="st1" cx="56.5" cy="394.2" rx="56.5" ry="56.7"/>
		<ellipse class="st1" cx="1826.7" cy="394.2" rx="56.5" ry="56.7"/>
		<ellipse class="st1" cx="2023.4" cy="394.2" rx="56.5" ry="56.7"/>
		<ellipse class="st1" cx="2220.1" cy="394.2" rx="56.5" ry="56.7"/>
		<ellipse class="st1" cx="2416.8" cy="394.2" rx="56.5" ry="56.7"/>
		<ellipse class="st1" cx="2613.4" cy="394.2" rx="56.5" ry="56.7"/>
		<ellipse class="st1" cx="2810.1" cy="394.2" rx="56.5" ry="56.7"/>
		<ellipse class="st1" cx="3006.8" cy="394.2" rx="56.5" ry="56.7"/>
		<ellipse class="st1" cx="1724.9" cy="900.4" rx="56.5" ry="56.7"/>
		<ellipse class="st1" cx="1528.3" cy="900.4" rx="56.5" ry="56.7"/>
		<ellipse class="st1" cx="1331.6" cy="900.4" rx="56.5" ry="56.7"/>
		<ellipse class="st1" cx="1134.9" cy="900.4" rx="56.5" ry="56.7"/>
		<ellipse class="st1" cx="938.2" cy="900.4" rx="56.5" ry="56.7"/>
		<ellipse class="st1" cx="741.5" cy="900.4" rx="56.5" ry="56.7"/>
		<ellipse class="st1" cx="544.8" cy="900.4" rx="56.5" ry="56.7"/>
		<ellipse class="st1" cx="348.1" cy="900.4" rx="56.5" ry="56.7"/>
		<ellipse class="st1" cx="151.4" cy="900.4" rx="56.5" ry="56.7"/>
		<ellipse class="st1" cx="1921.6" cy="900.4" rx="56.5" ry="56.7"/>
		<ellipse class="st1" cx="2118.3" cy="900.4" rx="56.5" ry="56.7"/>
		<ellipse class="st1" cx="2315" cy="900.4" rx="56.5" ry="56.7"/>
		<ellipse class="st1" cx="2511.7" cy="900.4" rx="56.5" ry="56.7"/>
		<ellipse class="st1" cx="2708.4" cy="900.4" rx="56.5" ry="56.7"/>
		<ellipse class="st1" cx="2905.1" cy="900.4" rx="56.5" ry="56.7"/>
		<ellipse class="st1" cx="3101.8" cy="900.4" rx="56.5" ry="56.7"/>
		<ellipse class="st1" cx="1630" cy="731.7" rx="56.5" ry="56.7"/>
		<ellipse class="st1" cx="1433.3" cy="731.7" rx="56.5" ry="56.7"/>
		<ellipse class="st1" cx="1236.6" cy="731.7" rx="56.5" ry="56.7"/>
		<ellipse class="st1" cx="1039.9" cy="731.7" rx="56.5" ry="56.7"/>
		<ellipse class="st1" cx="843.3" cy="731.7" rx="56.5" ry="56.7"/>
		<ellipse class="st1" cx="646.6" cy="731.7" rx="56.5" ry="56.7"/>
		<ellipse class="st1" cx="449.9" cy="731.7" rx="56.5" ry="56.7"/>
		<ellipse class="st1" cx="253.2" cy="731.7" rx="56.5" ry="56.7"/>
		<ellipse class="st1" cx="56.5" cy="731.7" rx="56.5" ry="56.7"/>
		<ellipse class="st1" cx="1826.7" cy="731.7" rx="56.5" ry="56.7"/>
		<ellipse class="st1" cx="2023.4" cy="731.7" rx="56.5" ry="56.7"/>
		<ellipse class="st1" cx="2220.1" cy="731.7" rx="56.5" ry="56.7"/>
		<ellipse class="st1" cx="2416.8" cy="731.7" rx="56.5" ry="56.7"/>
		<ellipse class="st1" cx="2613.4" cy="731.7" rx="56.5" ry="56.7"/>
		<ellipse class="st1" cx="2810.1" cy="731.7" rx="56.5" ry="56.7"/>
		<ellipse class="st1" cx="3006.8" cy="731.7" rx="56.5" ry="56.7"/>
		<ellipse class="st1" cx="1724.9" cy="1237.9" rx="56.5" ry="56.7"/>
		<ellipse class="st1" cx="1528.3" cy="1237.9" rx="56.5" ry="56.7"/>
		<ellipse class="st1" cx="1331.6" cy="1237.9" rx="56.5" ry="56.7"/>
		<ellipse class="st1" cx="1134.9" cy="1237.9" rx="56.5" ry="56.7"/>
		<ellipse class="st1" cx="938.2" cy="1237.9" rx="56.5" ry="56.7"/>
		<ellipse class="st1" cx="741.5" cy="1237.9" rx="56.5" ry="56.7"/>
		<ellipse class="st1" cx="544.8" cy="1237.9" rx="56.5" ry="56.7"/>
		<ellipse class="st1" cx="348.1" cy="1237.9" rx="56.5" ry="56.7"/>
		<ellipse class="st1" cx="151.4" cy="1237.9" rx="56.5" ry="56.7"/>
		<ellipse class="st1" cx="1921.6" cy="1237.9" rx="56.5" ry="56.7"/>
		<ellipse class="st1" cx="2118.3" cy="1237.9" rx="56.5" ry="56.7"/>
		<ellipse class="st1" cx="2315" cy="1237.9" rx="56.5" ry="56.7"/>
		<ellipse class="st1" cx="2511.7" cy="1237.9" rx="56.5" ry="56.7"/>
		<ellipse class="st1" cx="2708.4" cy="1237.9" rx="56.5" ry="56.7"/>
		<ellipse class="st1" cx="2905.1" cy="1237.9" rx="56.5" ry="56.7"/>
		<ellipse class="st1" cx="3101.8" cy="1237.9" rx="56.5" ry="56.7"/>
		<ellipse class="st1" cx="1630" cy="1069.2" rx="56.5" ry="56.7"/>
		<ellipse class="st1" cx="1433.3" cy="1069.2" rx="56.5" ry="56.7"/>
		<ellipse class="st1" cx="1236.6" cy="1069.2" rx="56.5" ry="56.7"/>
		<ellipse class="st1" cx="1039.9" cy="1069.2" rx="56.5" ry="56.7"/>
		<ellipse class="st1" cx="843.3" cy="1069.2" rx="56.5" ry="56.7"/>
		<ellipse class="st1" cx="646.6" cy="1069.2" rx="56.5" ry="56.7"/>
		<ellipse class="st1" cx="449.9" cy="1069.2" rx="56.5" ry="56.7"/>
		<ellipse class="st1" cx="253.2" cy="1069.2" rx="56.5" ry="56.7"/>
		<ellipse class="st1" cx="56.5" cy="1069.2" rx="56.5" ry="56.7"/>
		<ellipse class="st1" cx="1826.7" cy="1069.2" rx="56.5" ry="56.7"/>
		<ellipse class="st1" cx="2023.4" cy="1069.2" rx="56.5" ry="56.7"/>
		<ellipse class="st1" cx="2220.1" cy="1069.2" rx="56.5" ry="56.7"/>
		<ellipse class="st1" cx="2416.8" cy="1069.2" rx="56.5" ry="56.7"/>
		<ellipse class="st1" cx="2613.4" cy="1069.2" rx="56.5" ry="56.7"/>
		<ellipse class="st1" cx="2810.1" cy="1069.2" rx="56.5" ry="56.7"/>
		<ellipse class="st1" cx="3006.8" cy="1069.2" rx="56.5" ry="56.7"/>
		<ellipse class="st1" cx="1724.9" cy="1575.4" rx="56.5" ry="56.7"/>
		<ellipse class="st1" cx="1528.3" cy="1575.4" rx="56.5" ry="56.7"/>
		<ellipse class="st1" cx="1331.6" cy="1575.4" rx="56.5" ry="56.7"/>
		<ellipse class="st1" cx="1134.9" cy="1575.4" rx="56.5" ry="56.7"/>
		<ellipse class="st1" cx="938.2" cy="1575.4" rx="56.5" ry="56.7"/>
		<ellipse class="st1" cx="741.5" cy="1575.4" rx="56.5" ry="56.7"/>
		<ellipse class="st1" cx="544.8" cy="1575.4" rx="56.5" ry="56.7"/>
		<ellipse class="st1" cx="348.1" cy="1575.4" rx="56.5" ry="56.7"/>
		<ellipse class="st1" cx="151.4" cy="1575.4" rx="56.5" ry="56.7"/>
		<ellipse class="st1" cx="1921.6" cy="1575.4" rx="56.5" ry="56.7"/>
		<ellipse class="st1" cx="2118.3" cy="1575.4" rx="56.5" ry="56.7"/>
		<ellipse class="st1" cx="2315" cy="1575.4" rx="56.5" ry="56.7"/>
		<ellipse class="st1" cx="2511.7" cy="1575.4" rx="56.5" ry="56.7"/>
		<ellipse class="st1" cx="2708.4" cy="1575.4" rx="56.5" ry="56.7"/>
		<ellipse class="st1" cx="2905.1" cy="1575.4" rx="56.5" ry="56.7"/>
		<ellipse class="st1" cx="3101.8" cy="1575.4" rx="56.5" ry="56.7"/>
		<ellipse class="st1" cx="1630" cy="1406.7" rx="56.5" ry="56.7"/>
		<ellipse class="st1" cx="1433.3" cy="1406.7" rx="56.5" ry="56.7"/>
		<ellipse class="st1" cx="1236.6" cy="1406.7" rx="56.5" ry="56.7"/>
		<ellipse class="st1" cx="1039.9" cy="1406.7" rx="56.5" ry="56.7"/>
		<ellipse class="st1" cx="843.3" cy="1406.7" rx="56.5" ry="56.7"/>
		<ellipse class="st1" cx="646.6" cy="1406.7" rx="56.5" ry="56.7"/>
		<ellipse class="st1" cx="449.9" cy="1406.7" rx="56.5" ry="56.7"/>
		<ellipse class="st1" cx="253.2" cy="1406.7" rx="56.5" ry="56.7"/>
		<ellipse class="st1" cx="56.5" cy="1406.7" rx="56.5" ry="56.7"/>
		<ellipse class="st1" cx="1826.7" cy="1406.7" rx="56.5" ry="56.7"/>
		<ellipse class="st1" cx="2023.4" cy="1406.7" rx="56.5" ry="56.7"/>
		<ellipse class="st1" cx="2220.1" cy="1406.7" rx="56.5" ry="56.7"/>
		<ellipse class="st1" cx="2416.8" cy="1406.7" rx="56.5" ry="56.7"/>
		<ellipse class="st1" cx="2613.4" cy="1406.7" rx="56.5" ry="56.7"/>
		<ellipse class="st1" cx="2810.1" cy="1406.7" rx="56.5" ry="56.7"/>
		<ellipse class="st1" cx="3006.8" cy="1406.7" rx="56.5" ry="56.7"/>
		<ellipse class="st1" cx="1724.9" cy="1912.9" rx="56.5" ry="56.7"/>
		<ellipse class="st1" cx="1528.3" cy="1912.9" rx="56.5" ry="56.7"/>
		<ellipse class="st1" cx="1331.6" cy="1912.9" rx="56.5" ry="56.7"/>
		<ellipse class="st1" cx="1134.9" cy="1912.9" rx="56.5" ry="56.7"/>
		<ellipse class="st1" cx="938.2" cy="1912.9" rx="56.5" ry="56.7"/>
		<ellipse class="st1" cx="741.5" cy="1912.9" rx="56.5" ry="56.7"/>
		<ellipse class="st1" cx="544.8" cy="1912.9" rx="56.5" ry="56.7"/>
		<ellipse class="st1" cx="348.1" cy="1912.9" rx="56.5" ry="56.7"/>
		<ellipse class="st1" cx="151.4" cy="1912.9" rx="56.5" ry="56.7"/>
		<ellipse class="st1" cx="1921.6" cy="1912.9" rx="56.5" ry="56.7"/>
		<ellipse class="st1" cx="2118.3" cy="1912.9" rx="56.5" ry="56.7"/>
		<ellipse class="st1" cx="2315" cy="1912.9" rx="56.5" ry="56.7"/>
		<ellipse class="st1" cx="2511.7" cy="1912.9" rx="56.5" ry="56.7"/>
		<ellipse class="st1" cx="2708.4" cy="1912.9" rx="56.5" ry="56.7"/>
		<ellipse class="st1" cx="2905.1" cy="1912.9" rx="56.5" ry="56.7"/>
		<ellipse class="st1" cx="3101.8" cy="1912.9" rx="56.5" ry="56.7"/>
		<ellipse class="st1" cx="1630" cy="1744.2" rx="56.5" ry="56.7"/>
		<ellipse class="st1" cx="1433.3" cy="1744.2" rx="56.5" ry="56.7"/>
		<ellipse class="st1" cx="1236.6" cy="1744.2" rx="56.5" ry="56.7"/>
		<ellipse class="st1" cx="1039.9" cy="1744.2" rx="56.5" ry="56.7"/>
		<ellipse class="st1" cx="843.3" cy="1744.2" rx="56.5" ry="56.7"/>
		<ellipse class="st1" cx="646.6" cy="1744.2" rx="56.5" ry="56.7"/>
		<ellipse class="st1" cx="449.9" cy="1744.2" rx="56.5" ry="56.7"/>
		<ellipse class="st1" cx="253.2" cy="1744.2" rx="56.5" ry="56.7"/>
		<ellipse class="st1" cx="56.5" cy="1744.2" rx="56.5" ry="56.7"/>
		<ellipse class="st1" cx="1826.7" cy="1744.2" rx="56.5" ry="56.7"/>
		<ellipse class="st1" cx="2023.4" cy="1744.2" rx="56.5" ry="56.7"/>
		<ellipse class="st1" cx="2220.1" cy="1744.2" rx="56.5" ry="56.7"/>
		<ellipse class="st1" cx="2416.8" cy="1744.2" rx="56.5" ry="56.7"/>
		<ellipse class="st1" cx="2613.4" cy="1744.2" rx="56.5" ry="56.7"/>
		<ellipse class="st1" cx="2810.1" cy="1744.2" rx="56.5" ry="56.7"/>
		<ellipse class="st1" cx="3006.8" cy="1744.2" rx="56.5" ry="56.7"/>
		<ellipse class="st1" cx="1724.9" cy="2250.4" rx="56.5" ry="56.7"/>
		<ellipse class="st1" cx="1528.3" cy="2250.4" rx="56.5" ry="56.7"/>
		<ellipse class="st1" cx="1331.6" cy="2250.4" rx="56.5" ry="56.7"/>
		<ellipse class="st1" cx="1134.9" cy="2250.4" rx="56.5" ry="56.7"/>
		<ellipse class="st1" cx="938.2" cy="2250.4" rx="56.5" ry="56.7"/>
		<ellipse class="st1" cx="741.5" cy="2250.4" rx="56.5" ry="56.7"/>
		<ellipse class="st1" cx="544.8" cy="2250.4" rx="56.5" ry="56.7"/>
		<ellipse class="st1" cx="348.1" cy="2250.4" rx="56.5" ry="56.7"/>
		<ellipse class="st1" cx="151.4" cy="2250.4" rx="56.5" ry="56.7"/>
		<ellipse class="st1" cx="1921.6" cy="2250.4" rx="56.5" ry="56.7"/>
		<ellipse class="st1" cx="2118.3" cy="2250.4" rx="56.5" ry="56.7"/>
		<ellipse class="st1" cx="2315" cy="2250.4" rx="56.5" ry="56.7"/>
		<ellipse class="st1" cx="2511.7" cy="2250.4" rx="56.5" ry="56.7"/>
		<ellipse class="st1" cx="2708.4" cy="2250.4" rx="56.5" ry="56.7"/>
		<ellipse class="st1" cx="2905.1" cy="2250.4" rx="56.5" ry="56.7"/>
		<ellipse class="st1" cx="3101.8" cy="2250.4" rx="56.5" ry="56.7"/>
		<ellipse class="st1" cx="1630" cy="2081.7" rx="56.5" ry="56.7"/>
		<ellipse class="st1" cx="1433.3" cy="2081.7" rx="56.5" ry="56.7"/>
		<ellipse class="st1" cx="1236.6" cy="2081.7" rx="56.5" ry="56.7"/>
		<ellipse class="st1" cx="1039.9" cy="2081.7" rx="56.5" ry="56.7"/>
		<ellipse class="st1" cx="843.3" cy="2081.7" rx="56.5" ry="56.7"/>
		<ellipse class="st1" cx="646.6" cy="2081.7" rx="56.5" ry="56.7"/>
		<ellipse class="st1" cx="449.9" cy="2081.7" rx="56.5" ry="56.7"/>
		<ellipse class="st1" cx="253.2" cy="2081.7" rx="56.5" ry="56.7"/>
		<ellipse class="st1" cx="56.5" cy="2081.7" rx="56.5" ry="56.7"/>
		<ellipse class="st1" cx="1826.7" cy="2081.7" rx="56.5" ry="56.7"/>
		<ellipse class="st1" cx="2023.4" cy="2081.7" rx="56.5" ry="56.7"/>
		<ellipse class="st1" cx="2220.1" cy="2081.7" rx="56.5" ry="56.7"/>
		<ellipse class="st1" cx="2416.8" cy="2081.7" rx="56.5" ry="56.7"/>
		<ellipse class="st1" cx="2613.4" cy="2081.7" rx="56.5" ry="56.7"/>
		<ellipse class="st1" cx="2810.1" cy="2081.7" rx="56.5" ry="56.7"/>
		<ellipse class="st1" cx="3006.8" cy="2081.7" rx="56.5" ry="56.7"/>
		<ellipse class="st1" cx="1724.9" cy="2587.9" rx="56.5" ry="56.7"/>
		<ellipse class="st1" cx="1528.3" cy="2587.9" rx="56.5" ry="56.7"/>
		<ellipse class="st1" cx="1331.6" cy="2587.9" rx="56.5" ry="56.7"/>
		<ellipse class="st1" cx="1134.9" cy="2587.9" rx="56.5" ry="56.7"/>
		<ellipse class="st1" cx="938.2" cy="2587.9" rx="56.5" ry="56.7"/>
		<ellipse class="st1" cx="741.5" cy="2587.9" rx="56.5" ry="56.7"/>
		<ellipse class="st1" cx="544.8" cy="2587.9" rx="56.5" ry="56.7"/>
		<ellipse class="st1" cx="348.1" cy="2587.9" rx="56.5" ry="56.7"/>
		<ellipse class="st1" cx="151.4" cy="2587.9" rx="56.5" ry="56.7"/>
		<ellipse class="st1" cx="1921.6" cy="2587.9" rx="56.5" ry="56.7"/>
		<ellipse class="st1" cx="2118.3" cy="2587.9" rx="56.5" ry="56.7"/>
		<ellipse class="st1" cx="2315" cy="2587.9" rx="56.5" ry="56.7"/>
		<ellipse class="st1" cx="2511.7" cy="2587.9" rx="56.5" ry="56.7"/>
		<ellipse class="st1" cx="2708.4" cy="2587.9" rx="56.5" ry="56.7"/>
		<ellipse class="st1" cx="2905.1" cy="2587.9" rx="56.5" ry="56.7"/>
		<ellipse class="st1" cx="3101.8" cy="2587.9" rx="56.5" ry="56.7"/>
		<ellipse class="st1" cx="1630" cy="2419.2" rx="56.5" ry="56.7"/>
		<ellipse class="st1" cx="1433.3" cy="2419.2" rx="56.5" ry="56.7"/>
		<ellipse class="st1" cx="1236.6" cy="2419.2" rx="56.5" ry="56.7"/>
		<ellipse class="st1" cx="1039.9" cy="2419.2" rx="56.5" ry="56.7"/>
		<ellipse class="st1" cx="843.3" cy="2419.2" rx="56.5" ry="56.7"/>
		<ellipse class="st1" cx="646.6" cy="2419.2" rx="56.5" ry="56.7"/>
		<ellipse class="st1" cx="449.9" cy="2419.2" rx="56.5" ry="56.7"/>
		<ellipse class="st1" cx="253.2" cy="2419.2" rx="56.5" ry="56.7"/>
		<ellipse class="st1" cx="56.5" cy="2419.2" rx="56.5" ry="56.7"/>
		<ellipse class="st1" cx="1826.7" cy="2419.2" rx="56.5" ry="56.7"/>
		<ellipse class="st1" cx="2023.4" cy="2419.2" rx="56.5" ry="56.7"/>
		<ellipse class="st1" cx="2220.1" cy="2419.2" rx="56.5" ry="56.7"/>
		<ellipse class="st1" cx="2416.8" cy="2419.2" rx="56.5" ry="56.7"/>
		<ellipse class="st1" cx="2613.4" cy="2419.2" rx="56.5" ry="56.7"/>
		<ellipse class="st1" cx="2810.1" cy="2419.2" rx="56.5" ry="56.7"/>
		<ellipse class="st1" cx="3006.8" cy="2419.2" rx="56.5" ry="56.7"/>
	</g>
</g>
</svg>
