<?xml version="1.0" encoding="utf-8"?>
<!-- Generator: Adobe Illustrator 21.0.0, SVG Export Plug-In . SVG Version: 6.00 Build 0)  -->
<svg version="1.1" id="Layer_1" xmlns="http://www.w3.org/2000/svg" xmlns:xlink="http://www.w3.org/1999/xlink" x="0px" y="0px"
	 viewBox="0 0 2517.6 1946.9" style="enable-background:new 0 0 2517.6 1946.9;" xml:space="preserve">
<style type="text/css">
	.st0{fill:none;stroke:#F7D7D7;stroke-width:2;stroke-miterlimit:10;}
	.st1{clip-path:url(#SVGID_2_);}
	.st2{clip-path:url(#SVGID_4_);}
</style>
<title>bk-dots-4</title>
<circle class="st0" cx="2470.2" cy="182.5" r="46.4"/>
<g>
	<defs>
		
			<ellipse id="SVGID_1_" transform="matrix(0.7071 -0.7071 0.7071 0.7071 -504.1895 380.9802)" cx="207.8" cy="799.1" rx="58.9" ry="58.9"/>
	</defs>
	<clipPath id="SVGID_2_">
		<use xlink:href="#SVGID_1_"  style="overflow:visible;"/>
	</clipPath>
	<g class="st1">
		<line class="st0" x1="211.1" y1="716.7" x2="125.7" y2="802.1"/>
		<line class="st0" x1="216.6" y1="722.3" x2="131.3" y2="807.7"/>
		<line class="st0" x1="222.2" y1="727.9" x2="136.8" y2="813.2"/>
		<line class="st0" x1="227.8" y1="733.4" x2="142.4" y2="818.8"/>
		<line class="st0" x1="233.4" y1="739" x2="148" y2="824.4"/>
		<line class="st0" x1="239" y1="744.6" x2="153.6" y2="830"/>
		<line class="st0" x1="244.6" y1="750.2" x2="159.2" y2="835.6"/>
		<line class="st0" x1="250.1" y1="755.8" x2="164.8" y2="841.2"/>
		<line class="st0" x1="255.7" y1="761.4" x2="170.3" y2="846.7"/>
		<line class="st0" x1="261.3" y1="766.9" x2="175.9" y2="852.3"/>
		<line class="st0" x1="266.9" y1="772.5" x2="181.5" y2="857.9"/>
		<line class="st0" x1="272.5" y1="778.1" x2="187.1" y2="863.5"/>
		<line class="st0" x1="278.1" y1="783.7" x2="192.7" y2="869.1"/>
		<line class="st0" x1="283.6" y1="789.3" x2="198.3" y2="874.7"/>
		<line class="st0" x1="289.2" y1="794.9" x2="203.8" y2="880.2"/>
	</g>
</g>
<circle class="st0" cx="2090.9" cy="348.9" r="46.1"/>
<circle class="st0" cx="2382" cy="1051.1" r="94.7"/>
<g>
	<defs>
		
			<ellipse id="SVGID_3_" transform="matrix(0.7071 -0.7071 0.7071 0.7071 -80.111 243.2042)" cx="253.5" cy="218.3" rx="111.4" ry="111.4"/>
	</defs>
	<clipPath id="SVGID_4_">
		<use xlink:href="#SVGID_3_"  style="overflow:visible;"/>
	</clipPath>
	<g class="st2">
		<line class="st0" x1="259.7" y1="62.5" x2="98.2" y2="223.9"/>
		<line class="st0" x1="270.3" y1="73.1" x2="108.8" y2="234.5"/>
		<line class="st0" x1="280.8" y1="83.6" x2="119.4" y2="245.1"/>
		<line class="st0" x1="291.4" y1="94.2" x2="129.9" y2="255.6"/>
		<line class="st0" x1="301.9" y1="104.7" x2="140.5" y2="266.2"/>
		<line class="st0" x1="312.5" y1="115.3" x2="151" y2="276.7"/>
		<line class="st0" x1="323" y1="125.8" x2="161.6" y2="287.3"/>
		<line class="st0" x1="333.6" y1="136.4" x2="172.1" y2="297.8"/>
		<line class="st0" x1="344.2" y1="146.9" x2="182.7" y2="308.4"/>
		<line class="st0" x1="354.7" y1="157.5" x2="193.3" y2="318.9"/>
		<line class="st0" x1="365.3" y1="168.1" x2="203.8" y2="329.5"/>
		<line class="st0" x1="375.8" y1="178.6" x2="214.4" y2="340.1"/>
		<line class="st0" x1="386.4" y1="189.2" x2="224.9" y2="350.6"/>
		<line class="st0" x1="396.9" y1="199.7" x2="235.5" y2="361.2"/>
		<line class="st0" x1="407.5" y1="210.3" x2="246.1" y2="371.7"/>
	</g>
</g>
</svg>
