<?xml version="1.0" encoding="utf-8"?>
<!-- Generator: Adobe Illustrator 21.0.0, SVG Export Plug-In . SVG Version: 6.00 Build 0)  -->
<svg version="1.1" id="Layer_1" xmlns="http://www.w3.org/2000/svg" xmlns:xlink="http://www.w3.org/1999/xlink" x="0px" y="0px"
	 viewBox="0 0 1874.1 1534.2" style="enable-background:new 0 0 1874.1 1534.2;" xml:space="preserve">
<style type="text/css">
	.st0{fill:none;stroke:#F7D7D7;stroke-width:2;stroke-miterlimit:10;}
	.st1{clip-path:url(#SVGID_2_);}
	.st2{clip-path:url(#SVGID_4_);}
</style>
<title>bk-dots-2</title>
<circle class="st0" cx="1233.9" cy="90.2" r="54.6"/>
<circle class="st0" cx="84.3" cy="406.7" r="64"/>
<g>
	<g>
		<defs>
			
				<ellipse id="SVGID_1_" transform="matrix(0.7071 -0.7071 0.7071 0.7071 -234.5403 1549.8395)" cx="1753.6" cy="1058" rx="73.3" ry="73.3"/>
		</defs>
		<clipPath id="SVGID_2_">
			<use xlink:href="#SVGID_1_"  style="overflow:visible;"/>
		</clipPath>
		<g class="st1">
			<line class="st0" x1="1757.6" y1="955.5" x2="1651.4" y2="1061.8"/>
			<line class="st0" x1="1764.6" y1="962.5" x2="1658.3" y2="1068.8"/>
			<line class="st0" x1="1771.5" y1="969.4" x2="1665.3" y2="1075.7"/>
			<line class="st0" x1="1778.5" y1="976.4" x2="1672.2" y2="1082.7"/>
			<line class="st0" x1="1785.4" y1="983.3" x2="1679.2" y2="1089.6"/>
			<line class="st0" x1="1792.4" y1="990.3" x2="1686.1" y2="1096.6"/>
			<line class="st0" x1="1799.3" y1="997.2" x2="1693.1" y2="1103.5"/>
			<line class="st0" x1="1806.3" y1="1004.2" x2="1700" y2="1110.5"/>
			<line class="st0" x1="1813.2" y1="1011.1" x2="1707" y2="1117.4"/>
			<line class="st0" x1="1820.2" y1="1018.1" x2="1713.9" y2="1124.4"/>
			<line class="st0" x1="1827.1" y1="1025" x2="1720.8" y2="1131.3"/>
			<line class="st0" x1="1834.1" y1="1032" x2="1727.8" y2="1138.3"/>
			<line class="st0" x1="1841" y1="1038.9" x2="1734.7" y2="1145.2"/>
			<line class="st0" x1="1848" y1="1045.9" x2="1741.7" y2="1152.2"/>
			<line class="st0" x1="1854.9" y1="1052.8" x2="1748.6" y2="1159.1"/>
		</g>
	</g>
</g>
<g>
	<g>
		<defs>
			
				<ellipse id="SVGID_3_" transform="matrix(0.7071 -0.7071 0.7071 0.7071 -590.291 315.6219)" cx="85.8" cy="870.4" rx="46.6" ry="46.6"/>
		</defs>
		<clipPath id="SVGID_4_">
			<use xlink:href="#SVGID_3_"  style="overflow:visible;"/>
		</clipPath>
		<g class="st2">
			<line class="st0" x1="88.5" y1="805.2" x2="21" y2="872.7"/>
			<line class="st0" x1="92.9" y1="809.6" x2="25.4" y2="877.1"/>
			<line class="st0" x1="97.3" y1="814" x2="29.8" y2="881.5"/>
			<line class="st0" x1="101.7" y1="818.4" x2="34.2" y2="885.9"/>
			<line class="st0" x1="106.2" y1="822.8" x2="38.6" y2="890.4"/>
			<line class="st0" x1="110.6" y1="827.2" x2="43" y2="894.8"/>
			<line class="st0" x1="115" y1="831.7" x2="47.5" y2="899.2"/>
			<line class="st0" x1="119.4" y1="836.1" x2="51.9" y2="903.6"/>
			<line class="st0" x1="123.8" y1="840.5" x2="56.3" y2="908"/>
			<line class="st0" x1="128.2" y1="844.9" x2="60.7" y2="912.4"/>
			<line class="st0" x1="132.6" y1="849.3" x2="65.1" y2="916.8"/>
			<line class="st0" x1="137.1" y1="853.7" x2="69.5" y2="921.3"/>
			<line class="st0" x1="141.5" y1="858.1" x2="73.9" y2="925.7"/>
			<line class="st0" x1="145.9" y1="862.6" x2="78.4" y2="930.1"/>
			<line class="st0" x1="150.3" y1="867" x2="82.8" y2="934.5"/>
		</g>
	</g>
</g>
<circle class="st0" cx="1689.8" cy="232.1" r="145.4"/>
</svg>
