<svg xmlns="http://www.w3.org/2000/svg" viewBox="0 0 302.95 302.95"><defs><style>.cls-1{fill:#e6e6e6;}.cls-2,.cls-5{fill:none;}.cls-2{stroke:#d64ca8;stroke-width:3px;}.cls-2,.cls-4,.cls-5{stroke-miterlimit:10;}.cls-3{fill:#999;}.cls-4{fill:#fff;}.cls-4,.cls-5{stroke:#4d4d4d;stroke-width:4px;}.cls-6{fill:#4d4d4d;}</style></defs><title>Bonding</title><g id="Layer_2" data-name="Layer 2"><g id="_006_the_token" data-name="006_the token"><circle class="cls-1" cx="151.47" cy="151.47" r="137.5"/><circle class="cls-2" cx="151.47" cy="151.47" r="149.97"/><polygon class="cls-3" points="182.09 100.66 123.51 100.66 94.21 151.4 123.51 202.14 182.09 202.14 211.39 151.4 182.09 100.66"/><line class="cls-4" x1="124.87" y1="75.69" x2="99.4" y2="115.21"/><line class="cls-4" x1="150.78" y1="115.21" x2="99.4" y2="115.21"/><line class="cls-4" x1="124.87" y1="75.69" x2="150.78" y2="115.21"/><circle class="cls-4" cx="125.04" cy="75.81" r="5.19"/><circle class="cls-4" cx="125.04" cy="101.23" r="9.08"/><circle class="cls-4" cx="150.73" cy="115.33" r="5.19"/><circle class="cls-4" cx="99.35" cy="115.33" r="5.19"/><circle class="cls-4" cx="180.65" cy="201.65" r="9.58"/><polygon class="cls-5" points="180.44 174.71 154.4 193.63 164.34 224.25 196.54 224.25 206.48 193.63 180.44 174.71"/><circle class="cls-4" cx="180.99" cy="174.71" r="5.48" transform="translate(-70.53 179.15) rotate(-45)"/><circle class="cls-4" cx="206.73" cy="193.88" r="5.48" transform="translate(-76.55 202.97) rotate(-45)"/><circle class="cls-4" cx="163.46" cy="224.55" r="5.48" transform="translate(-110.9 181.35) rotate(-45)"/><circle class="cls-4" cx="154.15" cy="193.88" r="5.48" transform="translate(-91.94 165.79) rotate(-45)"/><circle class="cls-4" cx="196.32" cy="224.55" r="5.48" transform="translate(-101.28 204.59) rotate(-45)"/><circle class="cls-6" cx="180.44" cy="161.1" r="4.37"/><circle class="cls-6" cx="151.77" cy="172.98" r="4.37" transform="translate(-77.86 157.98) rotate(-45)"/><circle class="cls-6" cx="139.89" cy="201.65" r="4.37"/><circle class="cls-6" cx="151.77" cy="230.33" r="4.37" transform="translate(-118.41 174.78) rotate(-45)"/><circle class="cls-6" cx="180.44" cy="242.2" r="4.37"/><circle class="cls-6" cx="209.11" cy="230.33" r="4.37" transform="translate(-101.62 215.33) rotate(-45)"/><circle class="cls-6" cx="220.99" cy="201.65" r="4.37"/><circle class="cls-6" cx="209.11" cy="172.98" r="4.37" transform="translate(-61.06 198.53) rotate(-45)"/><circle class="cls-6" cx="125.04" cy="61.6" r="4.27"/><circle class="cls-6" cx="85.42" cy="101.23" r="4.27"/><circle class="cls-6" cx="125.04" cy="140.86" r="4.27"/><circle class="cls-6" cx="164.67" cy="101.23" r="4.27"/></g></g></svg>