<svg xmlns="http://www.w3.org/2000/svg" viewBox="0 0 446.69 297.17"><defs><style>.cls-1,.cls-6,.cls-7,.cls-8{fill:#fff;}.cls-2{font-size:50.9px;}.cls-2,.cls-3,.cls-4,.cls-6,.cls-7,.cls-8{font-family:Larsseit-Regular, Larsseit;}.cls-3{font-size:44.74px;}.cls-4{font-size:25.45px;}.cls-5{fill:#554f4f;}.cls-6{font-size:63.08px;}.cls-7{font-size:48.52px;}.cls-8{font-size:44.22px;}.cls-10,.cls-9{fill:none;stroke-miterlimit:10;stroke-width:4px;}.cls-9{stroke:#4d4d4d;}.cls-10{stroke:#fff;}.cls-11{opacity:0.24;}.cls-12{fill:#fff4f4;}.cls-13{fill:#4d4d4d;}</style></defs><title>Collators</title><g id="Layer_2" data-name="Layer 2"><g id="_005_how_does_it_work" data-name="005_how does it work"><circle class="cls-1" cx="78.28" cy="67.53" r="39.24"/><text class="cls-2" transform="translate(60.97 85.56)">V</text><circle class="cls-1" cx="34.49" cy="245.95" r="34.49"/><text class="cls-3" transform="translate(19.28 261.79)">V</text><circle class="cls-1" cx="89.2" cy="211.46" r="19.62"/><text class="cls-4" transform="translate(80.55 220.47)">V</text><circle class="cls-1" cx="128.43" cy="126.38" r="19.62"/><text class="cls-4" transform="translate(119.78 135.4)">V</text><circle class="cls-5" cx="389.68" cy="42.78" r="42.77" transform="translate(236.76 403.75) rotate(-73.31)"/><rect class="cls-5" x="387.8" y="-16.17" width="3.77" height="117.9" transform="translate(236.76 403.75) rotate(-73.31)"/><text class="cls-6" transform="translate(360.47 55.94) rotate(16.69)">C</text><circle class="cls-5" cx="398.97" cy="166.34" r="32.9" transform="translate(-20.25 60.98) rotate(-8.53)"/><rect class="cls-5" x="353.62" y="164.89" width="90.7" height="2.9" transform="translate(-20.25 60.98) rotate(-8.53)"/><text class="cls-7" transform="translate(382.89 185.08) rotate(-8.52)">C</text><circle class="cls-5" cx="349.66" cy="267.19" r="29.98" transform="translate(55.2 594.21) rotate(-85.38)"/><rect class="cls-5" x="348.33" y="225.86" width="2.64" height="82.65" transform="translate(55.2 594.21) rotate(-85.38)"/><text class="cls-8" transform="translate(331.52 280.56) rotate(4.62)">C</text><path class="cls-9" d="M132.84,63.53"/><path class="cls-9" d="M334.26,48.4"/><line class="cls-10" x1="213.11" y1="57.5" x2="132.84" y2="63.53"/><line class="cls-10" x1="334.26" y1="48.4" x2="275.85" y2="52.79"/><polyline class="cls-10" points="142.67 72.23 132.62 64.13 140.72 54.07"/><path class="cls-9" d="M160,115.91"/><line class="cls-10" x1="213.11" y1="95.35" x2="160.03" y2="115.91"/><line class="cls-10" x1="334.26" y1="48.4" x2="275.85" y2="71.04"/><polyline class="cls-10" points="171.67 121.97 159.95 116.55 165.37 104.83"/><path class="cls-9" d="M119.32,206.12"/><line class="cls-10" x1="205.77" y1="190.62" x2="119.32" y2="206.12"/><line class="cls-10" x1="356.96" y1="163.51" x2="250.46" y2="182.6"/><polyline class="cls-10" points="129.39 214.52 119.11 206.72 126.91 196.43"/><path class="cls-9" d="M83.94,249"/><line class="cls-10" x1="151" y1="251.35" x2="83.94" y2="249"/><line class="cls-10" x1="305.26" y1="256.78" x2="207.3" y2="253.33"/><polyline class="cls-10" points="92.02 259.34 83.61 249.54 93.41 241.13"/><g class="cls-11"><polygon points="188.91 228.11 160.04 228.11 160.04 282.75 202.28 282.75 202.28 241.11 188.91 228.11"/><polygon points="202.3 238.83 191.58 228.11 202.3 228.11 202.3 238.83"/></g><polygon class="cls-12" points="186.38 225.59 157.51 225.59 157.51 280.22 199.75 280.22 199.75 238.58 186.38 225.59"/><polygon class="cls-12" points="199.77 236.3 189.05 225.59 199.77 225.59 199.77 236.3"/><rect class="cls-13" x="162.01" y="231.71" width="10.7" height="1.27"/><rect class="cls-13" x="162.03" y="236.43" width="6.04" height="1.27"/><rect class="cls-13" x="170.59" y="236.43" width="6.04" height="1.27"/><rect class="cls-13" x="179.07" y="236.43" width="6.04" height="1.27"/><rect class="cls-13" x="188.66" y="241.15" width="6.04" height="1.27"/><rect class="cls-13" x="162.01" y="241.15" width="9.93" height="1.27"/><rect class="cls-13" x="174.69" y="241.15" width="9.93" height="1.27"/><rect class="cls-13" x="162.01" y="245.93" width="32.69" height="1.27"/><rect class="cls-13" x="162.01" y="250.72" width="32.69" height="1.27"/><rect class="cls-13" x="162.01" y="255.51" width="7.92" height="1.27"/><rect class="cls-13" x="173.6" y="255.51" width="7.92" height="1.27"/><rect class="cls-13" x="184.7" y="255.51" width="7.92" height="1.27"/><rect class="cls-13" x="162.01" y="260.3" width="12.67" height="1.27"/><g class="cls-11"><polygon points="235.94 177.13 216.92 177.13 216.92 213.13 244.75 213.13 244.75 185.69 235.94 177.13"/><polygon points="244.76 184.19 237.7 177.13 244.76 177.13 244.76 184.19"/></g><polygon class="cls-12" points="234.27 175.46 215.25 175.46 215.25 211.46 243.09 211.46 243.09 184.02 234.27 175.46"/><polygon class="cls-12" points="243.1 182.52 236.04 175.46 243.1 175.46 243.1 182.52"/><rect class="cls-13" x="218.22" y="179.49" width="7.05" height="0.84"/><rect class="cls-13" x="218.23" y="182.6" width="3.98" height="0.84"/><rect class="cls-13" x="223.87" y="182.6" width="3.98" height="0.84"/><rect class="cls-13" x="229.46" y="182.6" width="3.98" height="0.84"/><rect class="cls-13" x="235.78" y="185.71" width="3.98" height="0.84"/><rect class="cls-13" x="218.22" y="185.71" width="6.54" height="0.84"/><rect class="cls-13" x="226.57" y="185.71" width="6.54" height="0.84"/><rect class="cls-13" x="218.22" y="188.87" width="21.54" height="0.84"/><rect class="cls-13" x="218.22" y="192.02" width="21.54" height="0.84"/><rect class="cls-13" x="218.22" y="195.17" width="5.22" height="0.84"/><rect class="cls-13" x="225.86" y="195.17" width="5.22" height="0.84"/><rect class="cls-13" x="233.17" y="195.17" width="5.22" height="0.84"/><rect class="cls-13" x="218.22" y="198.33" width="8.35" height="0.84"/><g class="cls-11"><polygon points="255.69 40.21 223.11 40.21 223.11 101.86 270.78 101.86 270.78 54.87 255.69 40.21"/><polygon points="270.8 52.3 258.71 40.21 270.8 40.21 270.8 52.3"/></g><polygon class="cls-12" points="252.83 37.36 220.26 37.36 220.26 99.01 267.92 99.01 267.92 52.02 252.83 37.36"/><polygon class="cls-12" points="267.94 49.45 255.85 37.36 267.94 37.36 267.94 49.45"/><rect class="cls-13" x="225.34" y="44.27" width="12.08" height="1.43"/><rect class="cls-13" x="225.36" y="49.59" width="6.81" height="1.43"/><rect class="cls-13" x="235.01" y="49.59" width="6.81" height="1.43"/><rect class="cls-13" x="244.59" y="49.59" width="6.81" height="1.43"/><rect class="cls-13" x="255.41" y="54.92" width="6.81" height="1.43"/><rect class="cls-13" x="225.34" y="54.92" width="11.2" height="1.43"/><rect class="cls-13" x="239.64" y="54.92" width="11.2" height="1.43"/><rect class="cls-13" x="225.34" y="60.32" width="36.88" height="1.43"/><rect class="cls-13" x="225.34" y="65.72" width="36.88" height="1.43"/><rect class="cls-13" x="225.34" y="71.12" width="8.94" height="1.43"/><rect class="cls-13" x="238.42" y="71.12" width="8.94" height="1.43"/><rect class="cls-13" x="250.94" y="71.12" width="8.94" height="1.43"/><rect class="cls-13" x="225.34" y="76.52" width="14.3" height="1.43"/></g></g></svg>