<svg xmlns="http://www.w3.org/2000/svg" xmlns:xlink="http://www.w3.org/1999/xlink" viewBox="0 0 241.16 265.31"><defs><style>.cls-1{fill:none;}.cls-2{clip-path:url(#clip-path);}.cls-3{fill:#f7d7d7;}.cls-4{clip-path:url(#clip-path-2);}.cls-5{fill:#4d4d4d;}</style><clipPath id="clip-path"><circle class="cls-1" cx="120.46" cy="132.27" r="96.84"/></clipPath><clipPath id="clip-path-2"><rect class="cls-1" x="21.33" y="32.39" width="196.62" height="196.62" transform="translate(-11.06 250.34) rotate(-90)"/></clipPath></defs><title>dot</title><g id="Layer_2" data-name="Layer 2"><g id="Layer_1-2" data-name="Layer 1"><circle class="cls-1" cx="123.32" cy="134.08" r="94.27"/><g class="cls-2"><rect class="cls-3" x="21.33" y="32.39" width="196.62" height="196.62" transform="translate(-11.06 250.34) rotate(-90)"/><g class="cls-4"><circle class="cls-5" cx="17.16" cy="248.16" r="17.16"/><circle class="cls-5" cx="17.16" cy="190.41" r="17.16"/><circle class="cls-5" cx="17.16" cy="132.66" r="17.16"/><circle class="cls-5" cx="17.16" cy="74.91" r="17.16"/><circle class="cls-5" cx="17.16" cy="17.16" r="17.16"/><circle class="cls-5" cx="69.84" cy="218.68" r="17.16"/><circle class="cls-5" cx="69.84" cy="160.93" r="17.16"/><circle class="cls-5" cx="69.84" cy="103.18" r="17.16"/><circle class="cls-5" cx="69.84" cy="45.43" r="17.16"/><circle class="cls-5" cx="120.58" cy="248.16" r="17.16"/><circle class="cls-5" cx="120.58" cy="190.41" r="17.16"/><circle class="cls-5" cx="120.58" cy="132.66" r="17.16"/><circle class="cls-5" cx="120.58" cy="74.91" r="17.16"/><circle class="cls-5" cx="120.58" cy="17.16" r="17.16"/><circle class="cls-5" cx="173.26" cy="218.68" r="17.16"/><circle class="cls-5" cx="173.26" cy="160.93" r="17.16"/><circle class="cls-5" cx="173.26" cy="103.18" r="17.16"/><circle class="cls-5" cx="173.26" cy="45.43" r="17.16"/><circle class="cls-5" cx="224" cy="248.16" r="17.16"/><circle class="cls-5" cx="224" cy="190.41" r="17.16"/><circle class="cls-5" cx="224" cy="132.66" r="17.16"/><circle class="cls-5" cx="224" cy="74.91" r="17.16"/><circle class="cls-5" cx="224" cy="17.16" r="17.16"/></g></g></g></g></svg>