<?xml version="1.0" encoding="utf-8"?>
<!-- Generator: Adobe Illustrator 21.0.0, SVG Export Plug-In . SVG Version: 6.00 Build 0)  -->
<svg version="1.1" id="Layer_1" xmlns="http://www.w3.org/2000/svg" xmlns:xlink="http://www.w3.org/1999/xlink" x="0px" y="0px"
	 viewBox="0 0 565.5 888.2" style="enable-background:new 0 0 565.5 888.2;" xml:space="preserve">
<style type="text/css">
	.st0{fill:#4D4D4D;}
	.st1{font-family:'DINCompPro-Bold';}
	.st2{font-size:37.7px;}
	.st3{font-size:77.33px;}
	.st4{letter-spacing:1;}
	.st5{fill:#808080;}
	.st6{fill:#FFFFFF;}
	.st7{font-size:25.41px;}
	.st8{fill:#333333;}
	.st9{fill:#C644BA;}
	.st10{fill:#F2F2F2;}
	.st11{fill:#D64CA8;}
	.st12{font-size:35.35px;}
	.st13{font-family:'DINCompPro';}
	.st14{font-size:29.32px;}
	.st15{enable-background:new    ;}
</style>
<title>dots</title>
<g id="Layer_2">
	<g id="_003_what_is_it_">
		<text transform="matrix(1 0 0 1 200.79 254.79)" class="st0 st1 st2">10,000,000</text>
		<text transform="matrix(1 0 0 1 196.49 335.43)" class="st0 st1 st3">D</text>
		<text transform="matrix(1 0 0 1 247.99 335.43)" class="st0 st1 st3 st4">O</text>
		<text transform="matrix(1 0 0 1 299.33 335.43)" class="st0 st1 st3">T</text>
		<text transform="matrix(1 0 0 1 337.3 335.43)" class="st0 st1 st3">S</text>
		<path class="st5" d="M287,99.6c80.7,0,152.3,51.8,177.5,128.4l63.4-20.7C493.7,102.7,396.1,31.9,286.1,31.9v67.7L287,99.6z"/>
		<text transform="matrix(1 0 0 1 395.18 117.2)" class="st6 st1 st7">20%</text>
		<path class="st8" d="M473.8,286.3C473.8,389.4,390.2,473,287,473h-0.8l0.1,67.7c26.6,0,53.1-4.3,78.4-12.5
			c133.6-43.5,206.7-187,163.2-320.6l-63.4,20.6C470.6,246.9,473.8,266.6,473.8,286.3z"/>
		<text transform="matrix(1 0 0 1 440.47 422.1)" class="st6 st1 st7">30%</text>
		<path class="st9" d="M286.5,496.4H286V473c-102.7-0.5-185.7-83.9-185.7-186.7s83-186.1,185.5-186.7V76.2h0.5l0-76.2H286
			C127.9,0.1-0.1,128.4,0,286.5s128.4,286.2,286.5,286L286.5,496.4z"/>
		<path class="st10" d="M286.5,496.4H286V473c-102.7-0.5-185.7-83.9-185.7-186.7s83-186.1,185.5-186.7V76.2h0.5l0-76.2H286
			C127.9,0.1-0.1,128.4,0,286.5s128.4,286.2,286.5,286L286.5,496.4z"/>
		<path class="st11" d="M99.4,286.2C99.4,183,183,99.4,286.1,99.3v-6.2h-0.1c-107.1,0.1-193.8,87-193.7,194.1s87,193.8,194.1,193.7
			V473C183.1,473,99.4,389.4,99.4,286.2z"/>
		<text transform="matrix(1 0 0 1 14.27 300.02)" class="st0 st1 st12">50%</text>
		<text transform="matrix(1 0 0 1 132.06 675.63)" class="st0 st13 st14">P</text>
		<text transform="matrix(1 0 0 1 146.93 675.63)" class="st0 st13 st14">ol</text>
		<text transform="matrix(1 0 0 1 169.94 675.63)" class="st0 st13 st14">k</text>
		<text transform="matrix(1 0 0 1 184.22 675.63)" class="st0 st13 st14">adot </text>
		<text transform="matrix(1 0 0 1 246.91 675.63)" class="st0 st13 st14">A</text>
		<text transform="matrix(1 0 0 1 264.51 675.63)" class="st0 st13 st14">u</text>
		<text transform="matrix(1 0 0 1 280.66 675.63)" class="st0 st13 st14">c</text>
		<text transform="matrix(1 0 0 1 294.18 675.63)" class="st0 st13 st14">tion</text>
		<circle class="st11" cx="86.4" cy="666.2" r="22.1"/>
		<circle class="st10" cx="86.4" cy="666.2" r="17.1"/>
		<text transform="matrix(1 0 0 1 133.97 754.21)" class="st0 st13 st14">Pre-launch distributions</text>
		<circle class="st5" cx="89.4" cy="745.8" r="22.1"/>
		<circle class="st8" cx="89.7" cy="829" r="22.1"/>
		<text transform="matrix(1 0 0 1 133.97 825.21)" class="st15"><tspan x="0" y="0" class="st0 st13 st14">Foundation, Founders,  </tspan><tspan x="0" y="35.2" class="st0 st13 st14">Collaborators etc</tspan></text>
	</g>
</g>
</svg>
