<svg xmlns="http://www.w3.org/2000/svg" viewBox="0 0 380.03 263.44"><defs><style>.cls-1,.cls-7{fill:#fff;}.cls-2{font-size:39.67px;}.cls-2,.cls-4{font-family:Larsseit-Regular, Larsseit;}.cls-3{opacity:0.5;}.cls-4{font-size:25.33px;}.cls-5,.cls-8,.cls-9{fill:#4d4d4d;}.cls-11,.cls-6{fill:none;stroke-miterlimit:10;stroke-width:4px;}.cls-6{stroke:#fff;}.cls-7{opacity:0.2;}.cls-8{font-size:44.5px;}.cls-8,.cls-9{font-family:Lobster1.4, Lobster1.4;}.cls-9{font-size:36.46px;}.cls-10{opacity:0.7;}.cls-11{stroke:#4d4d4d;stroke-linecap:round;}</style></defs><title>Fishmen</title><g id="Layer_2" data-name="Layer 2"><g id="_005_how_does_it_work" data-name="005_how does it work"><circle class="cls-1" cx="190.02" cy="232.87" r="30.58"/><text class="cls-2" transform="translate(174.05 246.91)">V</text><g class="cls-3"><circle class="cls-1" cx="360.51" cy="232.87" r="19.52"/><text class="cls-4" transform="translate(350.32 241.83)">V</text></g><g class="cls-3"><circle class="cls-1" cx="19.52" cy="232.87" r="19.52"/><text class="cls-4" transform="translate(9.33 241.83)">V</text></g><path class="cls-5" d="M313.89,23.72a3.47,3.47,0,1,0-5.15,3V40.42a3.92,3.92,0,0,1-7.83,0l.08-4.59-4.48,9.49,2.07-1.15a7.28,7.28,0,0,0,13.53-3.84V26.74A3.46,3.46,0,0,0,313.89,23.72Z"/><path class="cls-5" d="M305.21,61.4A27.42,27.42,0,1,1,332.63,34,27.45,27.45,0,0,1,305.21,61.4Zm0-51.8A24.38,24.38,0,1,0,329.58,34,24.41,24.41,0,0,0,305.21,9.6Z"/><path class="cls-5" d="M99.17,20.12a4.3,4.3,0,1,0-6.38,3.75V40.81a4.85,4.85,0,0,1-9.7,0l.1-5.69L77.64,46.88l2.56-1.42A9,9,0,0,0,97,40.69V23.86A4.28,4.28,0,0,0,99.17,20.12Z"/><path class="cls-5" d="M91,67.95a34,34,0,1,1,34-34A34,34,0,0,1,91,67.95ZM91,3.77A30.2,30.2,0,1,0,121.16,34,30.24,30.24,0,0,0,91,3.77Z"/><path class="cls-6" d="M28.41,202.72"/><line class="cls-6" x1="40.51" y1="171.09" x2="28.41" y2="202.72"/><line class="cls-6" x1="77.64" y1="74.08" x2="55.98" y2="130.69"/><polyline class="cls-6" points="40.51 197.66 28.63 202.72 23.58 190.84"/><path class="cls-6" d="M170.47,196.78"/><line class="cls-6" x1="148.79" y1="156.36" x2="170.47" y2="196.78"/><line class="cls-6" x1="105.36" y1="75.4" x2="118.53" y2="99.96"/><polyline class="cls-6" points="174.57 184.31 170.62 196.61 158.32 192.66"/><path class="cls-6" d="M353,206.83"/><line class="cls-6" x1="342.22" y1="171.09" x2="352.98" y2="206.83"/><line class="cls-6" x1="310.38" y1="65.36" x2="329.15" y2="127.71"/><polyline class="cls-6" points="340.88 201.78 352.76 206.83 357.81 194.95"/><path class="cls-6" d="M210.92,200.89"/><line class="cls-6" x1="238.14" y1="149.96" x2="210.92" y2="200.89"/><line class="cls-6" x1="282.66" y1="66.69" x2="263.58" y2="102.38"/><polyline class="cls-6" points="206.82 188.43 210.77 200.72 223.07 196.78"/><path class="cls-5" d="M272.76,119a22.73,22.73,0,1,0-15.45,29.95l2.1,5.59-1.29.48L266,176.13l1.29-.48,4.28-1.61,1.29-.48L265,152.43l-1.29.48-2.1-5.6A22.73,22.73,0,0,0,272.76,119Zm-38.28,14.35A18.15,18.15,0,1,1,257.85,144,18.18,18.18,0,0,1,234.48,133.33Z"/><path class="cls-7" d="M234.48,133.33A18.15,18.15,0,1,1,257.85,144,18.18,18.18,0,0,1,234.48,133.33Z"/><path class="cls-5" d="M160.21,136.12a27.74,27.74,0,1,0-37.42,17.06l-2.21,6.94-1.6-.51-8.35,26.25,1.6.51,5.32,1.69,1.6.51,8.35-26.25-1.6-.51,2.21-7A27.74,27.74,0,0,0,160.21,136.12ZM112.66,121a22.15,22.15,0,1,1,14.4,27.83A22.18,22.18,0,0,1,112.66,121Z"/><path class="cls-7" d="M112.66,121a22.15,22.15,0,1,1,14.4,27.83A22.18,22.18,0,0,1,112.66,121Z"/><text class="cls-8" transform="matrix(0.98, -0.2, 0.2, 0.98, 130.67, 143.9)">!</text><text class="cls-9" transform="translate(246.44 140.18)">!</text><g class="cls-10"><path class="cls-5" d="M350.56,157.95a17.38,17.38,0,1,0-24.92,6.58l-2.1,4.06-.93-.48-7.93,15.33.93.48,3.11,1.61.93.48,7.93-15.33-.93-.48,2.1-4.06A17.38,17.38,0,0,0,350.56,157.95Zm-27.77-14.37a13.88,13.88,0,1,1,5.95,18.71A13.9,13.9,0,0,1,322.79,143.58Z"/><path class="cls-7" d="M322.79,143.58a13.88,13.88,0,1,1,5.95,18.71A13.9,13.9,0,0,1,322.79,143.58Z"/><polyline class="cls-11" points="325.91 148.51 333.01 155.62 344.33 144.3"/></g><g class="cls-10"><path class="cls-5" d="M63.61,148.28a17.38,17.38,0,1,0-16.37,19.91l.67,4.52-1,.15,2.53,17.07,1-.15,3.46-.51,1-.15L52.41,172l-1,.15-.67-4.52A17.38,17.38,0,0,0,63.61,148.28Zm-30.93,4.58a13.88,13.88,0,1,1,15.77,11.7A13.9,13.9,0,0,1,32.68,152.86Z"/><path class="cls-7" d="M32.68,152.86a13.88,13.88,0,1,1,15.77,11.7A13.9,13.9,0,0,1,32.68,152.86Z"/><polyline class="cls-11" points="37.3 148.88 44.01 156.36 55.92 145.68"/></g></g></g></svg>