<svg xmlns="http://www.w3.org/2000/svg" viewBox="0 0 1919.54 355.56"><defs><style>.cls-1{fill:#fff;}.cls-2,.cls-3,.cls-4,.cls-5{fill:#4d4d4d;}.cls-2{stroke:#f7d7d7;stroke-miterlimit:10;}.cls-4{fill-rule:evenodd;}.cls-5{font-size:63.39px;font-family:MyriadPro-Bold, Myriad Pro;font-weight:700;}.cls-6{letter-spacing:-0.01em;}</style></defs><title>friends</title><g id="Layer_2" data-name="Layer 2"><g id="_008_video_wall" data-name="008_video_wall"><circle class="cls-1" cx="524.27" cy="75.96" r="74.62"/><path class="cls-2" d="M520,91.94h30V107H531.51c.3,4.31.47,8.31.77,12.61H516.74V107.17H498.27c0-4.93-.62-9.84.3-14.46.47-2.46,3.23-4.61,4.93-6.76,5.85-6.93,11.69-13.69,17.69-20.62,2.31-2.61,4.61-5.08,7.23-8H499.65V42.26h17.07V29.65h14.92V42h18.62c0,5.08.62,10-.3,14.62-.47,2.46-3.23,4.61-5.08,6.76C539,70.27,533.19,77,527.2,84,524.91,86.71,522.61,89.16,520,91.94Z"/><path id="path103" class="cls-1" d="M814.67,94A75.92,75.92,0,1,1,759,2.21,75.92,75.92,0,0,1,814.67,94Z"/><polygon class="cls-3" points="734.93 74.92 735.62 75.26 735.59 76.05 729.93 79.35 729.27 78.22 734.93 74.92 734.93 74.92"/><polygon class="cls-3" points="710.79 88.95 711.45 90.09 717.44 86.61 716.78 85.48 710.79 88.95 710.79 88.95"/><polygon class="cls-3" points="720.2 83.53 720.87 84.66 726.52 81.35 725.86 80.22 720.2 83.53 720.2 83.53"/><polygon class="cls-3" points="748.05 74.86 747.37 75.21 747.4 76 753.09 79.25 753.74 78.11 748.05 74.86 748.05 74.86"/><polygon class="cls-3" points="772.31 88.69 771.66 89.83 765.64 86.4 766.29 85.26 772.31 88.69 772.31 88.69"/><polygon class="cls-3" points="762.85 83.35 762.19 84.49 756.51 81.22 757.16 80.08 762.85 83.35 762.85 83.35"/><polygon class="cls-4" points="741.97 54.28 740.66 54.29 740.63 47.74 741.95 47.73 741.97 54.28 741.97 54.28"/><polygon class="cls-4" points="742.02 64.77 741.37 65.04 740.71 64.78 740.68 58.22 741.99 58.22 742.02 64.77 742.02 64.77"/><polygon class="cls-4" points="740.59 36.88 741.9 36.87 741.93 43.8 740.62 43.8 740.59 36.88 740.59 36.88"/><path class="cls-3" d="M742.76,31.38l33,18.84,1.1.63.35.2v1.67l.08,19,.08,19v1.67l-.35.21-1.1.64-16.4,9.56-8.44,4.92-1.05.61v-1.22l0-5.07v-.41l.35-.2,6.24-3.64,11.71-6.83h0L771.53,89l0-3.26-.06-14.06-.06-14-27,15.74.17,39.54v1.27l0,3.8v.4l-.35.21-1.1.64L742,120l-.35.2-.35-.2-1.1-.63-1.1-.63-.36-.2v-.4l0-3.8v-1.27l-.17-39.54L711.44,58l.06,14,.06,14.86v1.7h0v.78l2.12,1.2,12.9,7.37,6.28,3.59.35.2v.4l0,5.07v1.22l-1.06-.6-8.48-4.85h0L707.24,93.5l-1.1-.63-.35-.2V91l-.08-19-.08-19V51.37l.35-.21,1.1-.64,32.8-19.12h0l1.1-.64.35-.2.35.2,1.1.63ZM714.31,53l27.15,15.52,27-15.75L743.61,38.55l-2.27-1.31-4.46,2.61-.31.18L714.31,53Z"/><path id="path103-2" data-name="path103" class="cls-1" d="M1031.33,94a75.92,75.92,0,1,1-55.7-91.81A75.92,75.92,0,0,1,1031.33,94Z"/><path class="cls-3" d="M950.48,40.45h6v-5.7H936.48a20.12,20.12,0,1,0,14,5.7Zm-14,28.77a14.38,14.38,0,1,1,14.38-14.38A14.4,14.4,0,0,1,936.48,69.22Z"/><path class="cls-3" d="M936.48,77a20.08,20.08,0,1,0,20.08,20.08A20.11,20.11,0,0,0,936.48,77Zm0,34.47a14.38,14.38,0,1,1,14.38-14.38A14.4,14.4,0,0,1,936.48,111.46Z"/><path class="cls-3" d="M978.69,34.75a20.08,20.08,0,1,0,20.08,20.08A20.11,20.11,0,0,0,978.69,34.75Zm0,34.47a14.38,14.38,0,1,1,14.38-14.38A14.4,14.4,0,0,1,978.69,69.22Z"/><circle class="cls-1" cx="1174.25" cy="75.96" r="75.96"/><text class="cls-5" transform="translate(1119.41 93.3)">G<tspan class="cls-6" x="43.23" y="0">S</tspan><tspan x="76.51" y="0">y</tspan></text><circle class="cls-1" cx="1390.91" cy="75.96" r="75.96"/><path class="cls-3" d="M1368,60.68l9.87,9.87a3.68,3.68,0,0,0,5.2,0l6-6a3.68,3.68,0,0,1,5.2,0l6,6a3.68,3.68,0,0,0,5.2,0l9.87-9.87a3.68,3.68,0,0,0,0-5.2l-21.11-21.17a3.68,3.68,0,0,0-5.21,0L1368,55.48A3.68,3.68,0,0,0,1368,60.68Z"/><path class="cls-3" d="M1400.13,78.35l-6.43-6.63a3.68,3.68,0,0,0-5.24,0l-5.68,5.68a3.68,3.68,0,0,1-5.2,0l-8.44-8.44a3.68,3.68,0,0,0-5.2,0l-9.56,9.56a3.68,3.68,0,0,0,0,5.2l33.93,33.93a3.68,3.68,0,0,0,5.2,0l33.9-33.9a3.68,3.68,0,0,0,0-5.23l-8.6-8.38a3.68,3.68,0,0,0-5.16,0l-8.25,8.25A3.68,3.68,0,0,1,1400.13,78.35Z"/><circle class="cls-1" cx="849.26" cy="279.48" r="75.96"/><path class="cls-3" d="M822.21,284.85h8.14v9.72a34.39,34.39,0,0,0,1,9.62,7.25,7.25,0,0,0,3.24,4.37,15.23,15.23,0,0,0,5.45,1.4q3.68.42,15.16.42a44.46,44.46,0,0,0,9.66-.81,9.8,9.8,0,0,0,5.1-2.62,6.64,6.64,0,0,0,1.37-3.34,36.25,36.25,0,0,0,.44-6.38q0-8.14-1.64-10.23t-6.5-2.48l-22.52-1.77q-10.11-.78-14-5.05t-3.88-14.37a33.67,33.67,0,0,1,1.28-10.25,14.56,14.56,0,0,1,4.12-6.43,13.06,13.06,0,0,1,6.18-2.77q4-.81,14-.81h2.6q11.23,0,15.82,1.08a17.87,17.87,0,0,1,7.68,3.73,10.32,10.32,0,0,1,3.12,5,28,28,0,0,1,1,8.12q0,1.42,0,2.18t-.07,1.35h-8.14v-1.82a30.77,30.77,0,0,0-.47-6.16,6.29,6.29,0,0,0-1.5-3.16q-1.52-1.52-5.42-2.13a114.88,114.88,0,0,0-14.79-.61q-11.28,0-14.18,2.55t-2.89,10.2q0,6.28,1.89,8.66t7.29,2.82l23,1.91q9,.79,12.66,5t3.63,14a46.24,46.24,0,0,1-.93,10.77,13.5,13.5,0,0,1-10.23,10.2q-4.49,1.2-16.36,1.2h-3.63q-10.11,0-14.3-1a15.72,15.72,0,0,1-7-3.58,13.72,13.72,0,0,1-4-6.38,33.75,33.75,0,0,1-1.3-10.2V284.85Z"/><path class="cls-3" d="M851,290.69a3.31,3.31,0,0,0-1.46,6.21v3a.64.64,0,0,0,.65.63h1.72a.64.64,0,0,0,.65-.63v-3.07a3.29,3.29,0,0,0,1.59-2.83,3.24,3.24,0,0,0-3.16-3.31Z"/><circle class="cls-1" cx="1602.27" cy="75.96" r="53.71"/><circle class="cls-1" cx="1781.21" cy="75.96" r="28.23"/><circle class="cls-1" cx="1904.78" cy="75.96" r="14.75"/><circle class="cls-1" cx="422.34" cy="280.11" r="53.71"/><circle class="cls-1" cx="243.4" cy="280.11" r="28.23"/><circle class="cls-1" cx="119.82" cy="280.11" r="14.75"/><circle class="cls-1" cx="1501.39" cy="280.11" r="53.71"/><circle class="cls-1" cx="1680.32" cy="280.11" r="28.23"/><circle class="cls-1" cx="1803.9" cy="280.11" r="14.75"/><circle class="cls-1" cx="317.27" cy="75.38" r="53.71"/><circle class="cls-1" cx="138.33" cy="75.38" r="28.23"/><circle class="cls-1" cx="14.75" cy="75.38" r="14.75"/><circle class="cls-1" cx="1065.92" cy="279.48" r="75.96"/><path class="cls-3" d="M1108.09,276.51a3.8,3.8,0,1,0,1.12,2.69,3.84,3.84,0,0,0-1.12-2.69Z"/><path class="cls-3" d="M1089.32,275.4a3.79,3.79,0,1,0,2.69,1.11,3.82,3.82,0,0,0-2.69-1.11Z"/><path class="cls-3" d="M1097.36,267.36a3.8,3.8,0,1,0,2.68,1.11,3.83,3.83,0,0,0-2.68-1.11Z"/><path class="cls-3" d="M1097.36,283.45a3.8,3.8,0,1,0,2.68,1.11,3.83,3.83,0,0,0-2.68-1.11Z"/><path class="cls-3" d="M1095.06,253.62h-55.69c-14,0-26.14,10.77-26.83,24.79a26.1,26.1,0,0,0,47.79,15.79,3.43,3.43,0,0,1,2.87-1.49h7.21a3.54,3.54,0,0,1,3,1.54,26.1,26.1,0,1,0,21.68-40.64Zm-47.78,26a2.32,2.32,0,0,1-2.32,2.32h-6.53v6.54a2.31,2.31,0,0,1-2.31,2.31h-.85a2.31,2.31,0,0,1-2.31-2.31v-6.54h-6.53a2.32,2.32,0,0,1-2.32-2.32v-.84a2.32,2.32,0,0,1,2.32-2.32H1033v-6.54a2.31,2.31,0,0,1,2.31-2.31h.85a2.31,2.31,0,0,1,2.31,2.31v6.54H1045a2.32,2.32,0,0,1,2.32,2.32v.84Zm47.78,21.88a22.14,22.14,0,0,1-11.21-3.1c-3.43-2-5.62-5.13-8-8.22a19,19,0,0,0-8.12-6.2l-.12,0a11.76,11.76,0,0,0-2.15-.66,6.85,6.85,0,0,0-1-.16,1,1,0,0,0-1,.65l-.74,2a1.27,1.27,0,0,1-2.19.34l-3.7-4.71-3.83-4.86a1.27,1.27,0,0,1,.75-2l6.07-1.21,5.87-1.17a1.26,1.26,0,0,1,.57,0,1.28,1.28,0,0,1,.94,1.17,1.24,1.24,0,0,1-.07.49l-.58,1.58a1.27,1.27,0,0,0,1.44,1.68l5.87-1.17,6.07-1.21a1.27,1.27,0,0,0,.75-2l-3.82-4.86-3.7-4.71a1.27,1.27,0,0,0-2.19.34l-.32.86a1.28,1.28,0,0,1-1.27.82,7.35,7.35,0,0,1-2.08-.56,11.16,11.16,0,0,1-4.13-3.07c-.49-.57-2.87-3.53-.68-3.53h32.23c11.34,0,21.49,9.24,22.1,20.57a21.8,21.8,0,0,1-21.74,23Z"/><circle class="cls-1" cx="1282.58" cy="279.6" r="75.96"/><path class="cls-3" d="M1282.35,286.27a5.57,5.57,0,1,0-5.57-5.57,5.57,5.57,0,0,0,5.57,5.57Z"/><path class="cls-3" d="M1317.94,275.11a5.59,5.59,0,1,0,5.59,5.59,5.59,5.59,0,0,0-5.59-5.59Z"/><path class="cls-3" d="M1282.35,252.75a6.93,6.93,0,1,0,6.93,6.93,6.93,6.93,0,0,0-6.93-6.93Z"/><path class="cls-3" d="M1282.35,244.31a4.94,4.94,0,1,0-4.94-4.94,4.94,4.94,0,0,0,4.94,4.94Z"/><path class="cls-3" d="M1282.35,319.29a2.74,2.74,0,1,0,2.74,2.74,2.74,2.74,0,0,0-2.74-2.74Z"/><path class="cls-3" d="M1264.14,276.26a6.06,6.06,0,1,0-6.06-6.06,6.06,6.06,0,0,0,6.06,6.06Z"/><path class="cls-3" d="M1300.55,252.07a2.27,2.27,0,1,0-2.27-2.27,2.27,2.27,0,0,0,2.27,2.27Z"/><path class="cls-3" d="M1264.14,253.13a3.33,3.33,0,1,0-3.33-3.33,3.33,3.33,0,0,0,3.33,3.33Z"/><path class="cls-3" d="M1246.56,255.12a4.94,4.94,0,1,0,4.94,4.94,4.94,4.94,0,0,0-4.94-4.94Z"/><path class="cls-3" d="M1246.56,296.53a4.59,4.59,0,1,0,4.59,4.59,4.59,4.59,0,0,0-4.59-4.59Z"/><path class="cls-3" d="M1317.94,297.07a4,4,0,1,0,4,4,4,4,0,0,0-4-4Z"/><path class="cls-3" d="M1300.55,273.8a3.59,3.59,0,1,0-3.59-3.59,3.59,3.59,0,0,0,3.59,3.59Z"/><path class="cls-3" d="M1300.55,294.93a3.69,3.69,0,1,0-3.69-3.69,3.69,3.69,0,0,0,3.69,3.69Z"/><path class="cls-3" d="M1317.94,264.11a4,4,0,1,0-4-4.05,4,4,0,0,0,4,4.05Z"/><path class="cls-3" d="M1264.14,305.71a5.89,5.89,0,1,0,5.89,5.89,5.89,5.89,0,0,0-5.89-5.89Z"/><path class="cls-3" d="M1282.35,296.81a4.91,4.91,0,1,0,4.91,4.91,4.92,4.92,0,0,0-4.91-4.91Z"/><path class="cls-3" d="M1264.14,287.55a3.69,3.69,0,1,0,3.69,3.69,3.7,3.7,0,0,0-3.69-3.69Z"/><circle class="cls-1" cx="632.6" cy="279.54" r="74.62"/><path class="cls-3" d="M598.21,302.92h.19l-.19-.27Z"/><path class="cls-3" d="M667,302.92v-.27l-.19.27Z"/><path class="cls-3" d="M654.41,266.7a3.57,3.57,0,0,1-3.57-3.57H639.7a3.57,3.57,0,0,1,0-7.14h27a41.42,41.42,0,0,0-74.37,14h34.54a3.57,3.57,0,1,1,0,7.14H615.69a3.57,3.57,0,0,1-3.57,3.57H591.19a41.64,41.64,0,0,0,.48,5.26h.05a237.66,237.66,0,0,0,42.17,3.6,240.55,240.55,0,0,0,39.55-3.14A41.61,41.61,0,0,0,672,266.7H654.41Z"/><path class="cls-3" d="M606.75,308v3.88a41.41,41.41,0,0,0,51.68,0V308Z"/><path class="cls-3" d="M598.4,302.92h29.92V298c-10.61.07-20.74.41-30.11,1v3.68Z"/><path class="cls-3" d="M666.77,302.92l.19-.27V299c-9.36-.56-19.5-.89-30.11-1v4.91Z"/></g></g></svg>