<svg xmlns="http://www.w3.org/2000/svg" viewBox="0 0 302.95 302.95"><defs><style>.cls-1{fill:#e6e6e6;}.cls-2{fill:#4d4d4d;}.cls-3,.cls-4,.cls-5,.cls-6,.cls-8{fill:none;stroke-miterlimit:10;}.cls-3,.cls-4,.cls-5,.cls-6{stroke:#4d4d4d;stroke-linecap:round;stroke-width:8px;}.cls-4{stroke-dasharray:0 12.62;}.cls-5{stroke-dasharray:0 13.25;}.cls-6{stroke-dasharray:0 12.79;}.cls-7{fill:#fff;}.cls-8{stroke:#d64ca8;stroke-width:3px;}</style></defs><title>Governance</title><g id="Layer_2" data-name="Layer 2"><g id="_006_the_token" data-name="006_the token"><circle class="cls-1" cx="152.27" cy="151.47" r="137.5"/><circle class="cls-2" cx="60.88" cy="125.04" r="8.55"/><path class="cls-2" d="M60.88,136.54a14.06,14.06,0,0,0-14,14c0,7.71,6.31,25.93,14,25.93s14-18.08,14-25.93A14.06,14.06,0,0,0,60.88,136.54Z"/><circle class="cls-2" cx="221.42" cy="64" r="8.55"/><path class="cls-2" d="M221.42,75.5a14.06,14.06,0,0,0-14,14c0,7.71,6.31,25.93,14,25.93s14-18.08,14-25.93A14.06,14.06,0,0,0,221.42,75.5Z"/><circle class="cls-2" cx="218.34" cy="185.04" r="8.55"/><path class="cls-2" d="M218.34,196.54a14.06,14.06,0,0,0-14,14c0,7.71,6.31,25.93,14,25.93s14-18.08,14-25.93A14.06,14.06,0,0,0,218.34,196.54Z"/><line class="cls-3" x1="89.66" y1="148.8" x2="89.66" y2="148.8"/><line class="cls-4" x1="102.27" y1="149.09" x2="146.43" y2="150.07"/><line class="cls-3" x1="152.74" y1="150.21" x2="152.74" y2="150.21"/><line class="cls-3" x1="199.59" y1="103.36" x2="199.59" y2="103.36"/><line class="cls-5" x1="190.22" y1="112.73" x2="157.42" y2="145.52"/><line class="cls-3" x1="152.74" y1="150.21" x2="152.74" y2="150.21"/><line class="cls-3" x1="152.74" y1="150.21" x2="152.74" y2="150.21"/><line class="cls-6" x1="162.06" y1="158.97" x2="194.67" y2="189.61"/><line class="cls-3" x1="199.33" y1="193.99" x2="199.33" y2="193.99"/><circle class="cls-7" cx="154.3" cy="149.35" r="34.25"/><path class="cls-2" d="M146.45,157c1.07-4.9,2.95-16.87,5.32-23.29.59-1.6,4.46-2.32,6.64-.51-1.62,5.92-3.13,14.85-3.13,14.85a5.69,5.69,0,0,0,2.19-.62,8.55,8.55,0,0,0,1.93-1.37,10.5,10.5,0,0,0,1.6-1.93,14,14,0,0,0,2-4.8,12.25,12.25,0,0,0,.27-2.5,8.64,8.64,0,0,0-.32-2.39,5.68,5.68,0,0,0-1-2,4.66,4.66,0,0,0-1.76-1.35,6.19,6.19,0,0,0-2.57-.49,15.21,15.21,0,0,0-5,.76,10.17,10.17,0,0,0-3.71,2.18,11.56,11.56,0,0,0-2.61,3.48,10.94,10.94,0,0,0-1,4.66,6.81,6.81,0,0,0,.12,1.41,5.35,5.35,0,0,0,.25.87,2.93,2.93,0,0,0,.25.5.58.58,0,0,1,.12.31,12,12,0,0,1-2.5-.23,5,5,0,0,1-1.82-.75,3.28,3.28,0,0,1-1.12-1.36,5,5,0,0,1-.39-2.09,6.27,6.27,0,0,1,.78-3,11.69,11.69,0,0,1,2.15-2.78,20.85,20.85,0,0,1,10.5-5.62,16.6,16.6,0,0,1,3.84-.46,14,14,0,0,1,4.83.75,9.73,9.73,0,0,1,3.35,2,7.72,7.72,0,0,1,1.95,2.86,9.29,9.29,0,0,1,.62,3.37,11.35,11.35,0,0,1-.9,4.36,12.35,12.35,0,0,1-2.61,3.93,13.21,13.21,0,0,1-9.65,3.93h-.25s-2.48,11.19-3.65,15.06c-1.12,3.68-4,5.37-8.11,5.37C143.16,170.16,145.72,160.36,146.45,157Z"/><path class="cls-2" d="M188.6,173.43v-1.7a1.21,1.21,0,0,0-1.21-1.21h-.21a2,2,0,0,1-1.9-1.5,13.55,13.55,0,0,0-1.31-3.18,2,2,0,0,1,.29-2.4l.14-.14a1.21,1.21,0,0,0,0-1.72l-1.2-1.2a1.21,1.21,0,0,0-1.72,0l-.11.11a2,2,0,0,1-2.42.28,13.56,13.56,0,0,0-3.21-1.35,2,2,0,0,1-1.48-1.9v-.14a1.21,1.21,0,0,0-1.21-1.21h-1.7a1.21,1.21,0,0,0-1.21,1.21v.08a2,2,0,0,1-1.51,1.91,13.55,13.55,0,0,0-3.28,1.33,2,2,0,0,1-2.4-.29l0,0a1.21,1.21,0,0,0-1.72,0l-1.2,1.2a1.21,1.21,0,0,0,0,1.72h0a2,2,0,0,1,.28,2.41,13.55,13.55,0,0,0-1.38,3.3,2,2,0,0,1-1.9,1.49h0a1.21,1.21,0,0,0-1.21,1.21v1.7a1.21,1.21,0,0,0,1.21,1.21h0a2,2,0,0,1,1.9,1.49,13.56,13.56,0,0,0,1.38,3.3,2,2,0,0,1-.28,2.41h0a1.21,1.21,0,0,0,0,1.72l1.2,1.2a1.21,1.21,0,0,0,1.72,0l0,0a2,2,0,0,1,2.4-.29,13.56,13.56,0,0,0,3.28,1.33,2,2,0,0,1,1.51,1.91v.08a1.21,1.21,0,0,0,1.21,1.21H173a1.21,1.21,0,0,0,1.21-1.21v-.14a2,2,0,0,1,1.48-1.9,13.55,13.55,0,0,0,3.21-1.35,2,2,0,0,1,2.42.28l.11.11a1.21,1.21,0,0,0,1.72,0l1.2-1.2a1.21,1.21,0,0,0,0-1.72l-.14-.14a2,2,0,0,1-.29-2.4,13.55,13.55,0,0,0,1.31-3.18,2,2,0,0,1,1.9-1.5h.21A1.21,1.21,0,0,0,188.6,173.43Zm-15.27,6.38a7.34,7.34,0,1,1,6-6A7.35,7.35,0,0,1,173.33,179.81Z"/><circle class="cls-8" cx="151.47" cy="151.47" r="149.97"/></g></g></svg>