<svg xmlns="http://www.w3.org/2000/svg" viewBox="0 0 149.24 149.24"><defs><style>.cls-1{fill:#fff;}.cls-2{fill:#4d4d4d;}</style></defs><title>icon-6</title><g id="Layer_2" data-name="Layer 2"><g id="_008_video_wall" data-name="008_video_wall"><circle class="cls-1" cx="74.62" cy="74.62" r="74.62"/><path class="cls-2" d="M40.24,98h.19l-.19-.27Z"/><path class="cls-2" d="M109,98v-.27l-.19.27Z"/><path class="cls-2" d="M96.43,61.79a3.57,3.57,0,0,1-3.57-3.57H81.72a3.57,3.57,0,1,1,0-7.14h27A41.42,41.42,0,0,0,34.31,65H68.85a3.57,3.57,0,1,1,0,7.14H57.72a3.57,3.57,0,0,1-3.57,3.57H33.21A41.64,41.64,0,0,0,33.69,81h.05a237.66,237.66,0,0,0,42.17,3.6,240.55,240.55,0,0,0,39.55-3.14A41.61,41.61,0,0,0,114,61.79H96.43Z"/><path class="cls-2" d="M48.77,103.11V107a41.41,41.41,0,0,0,51.68,0v-3.88Z"/><path class="cls-2" d="M40.43,98H70.34V93.09c-10.61.07-20.74.41-30.11,1v3.68Z"/><path class="cls-2" d="M108.8,98l.19-.27V94.05c-9.36-.56-19.5-.89-30.11-1V98Z"/></g></g></svg>