<svg xmlns="http://www.w3.org/2000/svg" viewBox="0 0 149.24 149.24"><defs><style>.cls-1{fill:#fff;}.cls-2{fill:#4d4d4d;stroke:#f7d7d7;stroke-miterlimit:10;}</style></defs><title>icon-1</title><g id="Layer_2" data-name="Layer 2"><g id="_008_video_wall" data-name="008_video_wall"><circle class="cls-1" cx="74.62" cy="74.62" r="74.62"/><path class="cls-2" d="M70.34,90.6h30v15.07H81.86c.3,4.31.47,8.31.77,12.61H67.09V105.83H48.62c0-4.93-.62-9.84.3-14.46.47-2.46,3.23-4.61,4.93-6.76C59.7,77.68,65.54,70.92,71.54,64c2.31-2.61,4.61-5.08,7.23-8H50V40.92H67.08V28.31H82V40.62h18.62c0,5.08.62,10-.3,14.62-.47,2.46-3.23,4.61-5.08,6.76C89.39,68.93,83.55,75.7,77.55,82.62,75.27,85.38,73,87.82,70.34,90.6Z"/></g></g></svg>