<svg xmlns="http://www.w3.org/2000/svg" viewBox="0 0 151.87 151.89"><defs><style>.cls-1{fill:#fff;}.cls-2{fill:#4d4d4d;}</style></defs><title>icon-3</title><g id="Layer_2" data-name="Layer 2"><g id="_008_video_wall" data-name="008_video_wall"><path id="path103" class="cls-1" d="M149.68,94A75.92,75.92,0,1,1,94,2.19,75.92,75.92,0,0,1,149.68,94Z"/><path class="cls-2" d="M68.83,40.44h6v-5.7H54.83a20.12,20.12,0,1,0,14,5.7Zm-14,28.77A14.38,14.38,0,1,1,69.21,54.82,14.4,14.4,0,0,1,54.83,69.21Z"/><path class="cls-2" d="M54.83,77A20.08,20.08,0,1,0,74.91,97.07,20.11,20.11,0,0,0,54.83,77Zm0,34.47A14.38,14.38,0,1,1,69.21,97.07,14.4,14.4,0,0,1,54.83,111.45Z"/><path class="cls-2" d="M97,34.74a20.08,20.08,0,1,0,20.08,20.08A20.11,20.11,0,0,0,97,34.74Zm0,34.47a14.38,14.38,0,1,1,14.38-14.38A14.4,14.4,0,0,1,97,69.21Z"/></g></g></svg>