<svg xmlns="http://www.w3.org/2000/svg" viewBox="0 0 151.91 151.91"><defs><style>.cls-1{fill:#fff;}.cls-2{fill:#d64ca8;}</style></defs><title>icon-9.5</title><g id="Layer_2" data-name="Layer 2"><g id="_008_video_wall" data-name="008_video_wall"><circle class="cls-1" cx="75.96" cy="75.96" r="75.96"/><path class="cls-2" d="M75.73,82.63a5.57,5.57,0,1,0-5.57-5.57,5.57,5.57,0,0,0,5.57,5.57Z"/><path class="cls-2" d="M111.32,71.47a5.59,5.59,0,1,0,5.59,5.59,5.59,5.59,0,0,0-5.59-5.59Z"/><path class="cls-2" d="M75.73,49.1A6.93,6.93,0,1,0,82.66,56a6.93,6.93,0,0,0-6.93-6.93Z"/><path class="cls-2" d="M75.73,40.67a4.94,4.94,0,1,0-4.94-4.94,4.94,4.94,0,0,0,4.94,4.94Z"/><path class="cls-2" d="M75.73,115.65a2.74,2.74,0,1,0,2.74,2.74,2.74,2.74,0,0,0-2.74-2.74Z"/><path class="cls-2" d="M57.52,72.62a6.06,6.06,0,1,0-6.06-6.06,6.06,6.06,0,0,0,6.06,6.06Z"/><path class="cls-2" d="M93.93,48.43a2.27,2.27,0,1,0-2.27-2.27,2.27,2.27,0,0,0,2.27,2.27Z"/><path class="cls-2" d="M57.52,49.49a3.33,3.33,0,1,0-3.33-3.33,3.33,3.33,0,0,0,3.33,3.33Z"/><path class="cls-2" d="M39.94,51.48a4.94,4.94,0,1,0,4.94,4.94,4.94,4.94,0,0,0-4.94-4.94Z"/><path class="cls-2" d="M39.94,92.88a4.59,4.59,0,1,0,4.59,4.59,4.59,4.59,0,0,0-4.59-4.59Z"/><path class="cls-2" d="M111.32,93.42a4,4,0,1,0,4,4,4,4,0,0,0-4-4Z"/><path class="cls-2" d="M93.93,70.15a3.59,3.59,0,1,0-3.59-3.59,3.59,3.59,0,0,0,3.59,3.59Z"/><path class="cls-2" d="M93.93,91.29a3.69,3.69,0,1,0-3.69-3.69,3.69,3.69,0,0,0,3.69,3.69Z"/><path class="cls-2" d="M111.32,60.47a4,4,0,1,0-4-4.05,4,4,0,0,0,4,4.05Z"/><path class="cls-2" d="M57.52,102.06A5.89,5.89,0,1,0,63.42,108a5.89,5.89,0,0,0-5.89-5.89Z"/><path class="cls-2" d="M75.73,93.17a4.91,4.91,0,1,0,4.91,4.91,4.92,4.92,0,0,0-4.91-4.91Z"/><path class="cls-2" d="M57.52,83.91a3.69,3.69,0,1,0,3.69,3.69,3.7,3.7,0,0,0-3.69-3.69Z"/></g></g></svg>