<svg xmlns="http://www.w3.org/2000/svg" viewBox="0 0 151.87 151.89"><defs><style>.cls-1{fill:#fff;}.cls-2,.cls-3{fill:#4d4d4d;}.cls-3{fill-rule:evenodd;}</style></defs><title>icon-2</title><g id="Layer_2" data-name="Layer 2"><g id="_008_video_wall" data-name="008_video_wall"><path id="path103" class="cls-1" d="M149.68,94A75.92,75.92,0,1,1,94,2.19,75.92,75.92,0,0,1,149.68,94Z"/><polygon class="cls-2" points="69.94 74.9 70.63 75.25 70.6 76.03 64.94 79.34 64.28 78.21 69.94 74.9 69.94 74.9"/><polygon class="cls-2" points="45.8 88.94 46.46 90.08 52.45 86.6 51.79 85.46 45.8 88.94 45.8 88.94"/><polygon class="cls-2" points="55.21 83.52 55.88 84.65 61.53 81.33 60.87 80.2 55.21 83.52 55.21 83.52"/><polygon class="cls-2" points="83.06 74.85 82.38 75.2 82.41 75.98 88.1 79.24 88.75 78.1 83.06 74.85 83.06 74.85"/><polygon class="cls-2" points="107.32 88.68 106.67 89.82 100.65 86.39 101.3 85.25 107.32 88.68 107.32 88.68"/><polygon class="cls-2" points="97.86 83.34 97.2 84.47 91.52 81.21 92.17 80.07 97.86 83.34 97.86 83.34"/><polygon class="cls-3" points="76.98 54.27 75.67 54.28 75.64 47.72 76.95 47.72 76.98 54.27 76.98 54.27"/><polygon class="cls-3" points="77.03 64.76 76.38 65.02 75.72 64.77 75.69 58.21 77 58.2 77.03 64.76 77.03 64.76"/><polygon class="cls-3" points="75.6 36.87 76.91 36.86 76.94 43.78 75.63 43.79 75.6 36.87 75.6 36.87"/><path class="cls-2" d="M77.77,31.37l33,18.84,1.1.63.35.2v1.67l.08,19,.08,19v1.67l-.35.21-1.1.64-16.4,9.56-8.44,4.92-1.05.61v-1.22L85,102v-.41l.35-.2,6.24-3.64,11.71-6.83h0L106.54,89l0-3.26-.06-14.06-.06-14L79.4,73.5,79.57,113v1.27l0,3.8v.4l-.35.21-1.1.64L77,120l-.35.2-.35-.2-1.1-.63-1.1-.63-.36-.2v-.4l0-3.8v-1.27l-.17-39.54L46.45,58l.06,14,.06,14.86v1.7h0v.78l2.12,1.2,12.9,7.37,6.28,3.59.35.2v.4l0,5.07v1.22l-1.06-.6-8.48-4.85h0L42.25,93.49l-1.1-.63-.35-.2V91L40.7,72l-.08-19V51.35l.35-.21,1.1-.64,32.8-19.12h0l1.1-.64.35-.2.35.2,1.1.63ZM49.32,53,76.47,68.51l27-15.75L78.62,38.54l-2.27-1.31-4.46,2.61-.31.18L49.32,53Z"/></g></g></svg>