<svg xmlns="http://www.w3.org/2000/svg" viewBox="0 0 151.91 151.91"><defs><style>.cls-1{fill:#fff;}.cls-2{fill:#4d4d4d;}</style></defs><title>icon-8</title><g id="Layer_2" data-name="Layer 2"><g id="_008_video_wall" data-name="008_video_wall"><circle class="cls-1" cx="75.96" cy="75.96" r="75.96"/><path class="cls-2" d="M118.13,73a3.8,3.8,0,1,0,1.12,2.69A3.84,3.84,0,0,0,118.13,73Z"/><path class="cls-2" d="M99.36,71.89A3.79,3.79,0,1,0,102,73a3.82,3.82,0,0,0-2.69-1.11Z"/><path class="cls-2" d="M107.4,63.84a3.8,3.8,0,1,0,2.68,1.11,3.83,3.83,0,0,0-2.68-1.11Z"/><path class="cls-2" d="M107.4,79.93A3.8,3.8,0,1,0,110.08,81a3.83,3.83,0,0,0-2.68-1.11Z"/><path class="cls-2" d="M105.1,50.1H49.41c-14,0-26.14,10.77-26.83,24.79A26.1,26.1,0,0,0,70.37,90.68a3.43,3.43,0,0,1,2.87-1.49h7.21a3.54,3.54,0,0,1,3,1.54A26.1,26.1,0,1,0,105.1,50.1Zm-47.78,26A2.32,2.32,0,0,1,55,78.42H48.47V85a2.31,2.31,0,0,1-2.31,2.31H45.3A2.31,2.31,0,0,1,43,85V78.42H36.46a2.32,2.32,0,0,1-2.32-2.32v-.84a2.32,2.32,0,0,1,2.32-2.32H43V66.4a2.31,2.31,0,0,1,2.31-2.31h.85a2.31,2.31,0,0,1,2.31,2.31v6.54H55a2.32,2.32,0,0,1,2.32,2.32v.84ZM105.1,98a22.14,22.14,0,0,1-11.21-3.1c-3.43-2-5.62-5.13-8-8.22a19,19,0,0,0-8.12-6.2l-.12,0a11.76,11.76,0,0,0-2.15-.66,6.85,6.85,0,0,0-1-.16,1,1,0,0,0-1,.65l-.74,2a1.27,1.27,0,0,1-2.19.34l-3.7-4.71L63,73a1.27,1.27,0,0,1,.75-2l6.07-1.21,5.87-1.17a1.26,1.26,0,0,1,.57,0,1.28,1.28,0,0,1,.94,1.17,1.24,1.24,0,0,1-.07.49l-.58,1.58A1.27,1.27,0,0,0,78,73.55l5.87-1.17L90,71.17a1.27,1.27,0,0,0,.75-2l-3.82-4.86-3.7-4.71a1.27,1.27,0,0,0-2.19.34l-.32.86a1.28,1.28,0,0,1-1.27.82A7.35,7.35,0,0,1,77.33,61,11.16,11.16,0,0,1,73.2,58c-.49-.57-2.87-3.53-.68-3.53h32.23c11.34,0,21.49,9.24,22.1,20.57A21.8,21.8,0,0,1,105.1,98Z"/></g></g></svg>