<svg xmlns="http://www.w3.org/2000/svg" viewBox="0 0 151.91 151.91"><defs><style>.cls-1{fill:#fff;}.cls-2{fill:#4d4d4d;}</style></defs><title>icon-7</title><g id="Layer_2" data-name="Layer 2"><g id="_008_video_wall" data-name="008_video_wall"><circle class="cls-1" cx="75.96" cy="75.96" r="75.96"/><path class="cls-2" d="M48.91,81.33h8.14v9.72a34.39,34.39,0,0,0,1,9.62A7.25,7.25,0,0,0,61.27,105a15.23,15.23,0,0,0,5.45,1.4q3.68.42,15.16.42a44.46,44.46,0,0,0,9.66-.81,9.8,9.8,0,0,0,5.1-2.62A6.64,6.64,0,0,0,98,100.08a36.25,36.25,0,0,0,.44-6.38q0-8.14-1.64-10.23T90.32,81L67.8,79.23q-10.11-.78-14-5.05T49.94,59.8a33.67,33.67,0,0,1,1.28-10.25,14.56,14.56,0,0,1,4.12-6.43,13.06,13.06,0,0,1,6.18-2.77q4-.81,14-.81h2.6q11.23,0,15.82,1.08a17.87,17.87,0,0,1,7.68,3.73,10.32,10.32,0,0,1,3.12,5,28,28,0,0,1,1,8.12q0,1.42,0,2.18T105.67,61H97.53V59.21a30.77,30.77,0,0,0-.47-6.16,6.29,6.29,0,0,0-1.5-3.16Q94,48.37,90.15,47.76a114.88,114.88,0,0,0-14.79-.61q-11.28,0-14.18,2.55T58.28,59.9q0,6.28,1.89,8.66t7.29,2.82l23,1.91q9,.79,12.66,5t3.63,14a46.24,46.24,0,0,1-.93,10.77,13.5,13.5,0,0,1-10.23,10.2q-4.49,1.2-16.36,1.2H75.55q-10.11,0-14.3-1a15.72,15.72,0,0,1-7-3.58,13.72,13.72,0,0,1-4-6.38,33.75,33.75,0,0,1-1.3-10.2V81.33Z"/><path class="cls-2" d="M77.67,87.18a3.31,3.31,0,0,0-1.46,6.21v3a.64.64,0,0,0,.65.63h1.72a.64.64,0,0,0,.65-.63V93.32a3.29,3.29,0,0,0,1.59-2.83,3.24,3.24,0,0,0-3.16-3.31Z"/></g></g></svg>