<svg xmlns="http://www.w3.org/2000/svg" viewBox="0 0 151.91 151.91"><defs><style>.cls-1{fill:#fff;}.cls-2{fill:#4d4d4d;}</style></defs><title>icon-5</title><g id="Layer_2" data-name="Layer 2"><g id="_008_video_wall" data-name="008_video_wall"><circle class="cls-1" cx="75.96" cy="75.96" r="75.96"/><path class="cls-2" d="M53,60.68l9.87,9.87a3.68,3.68,0,0,0,5.2,0l6-6a3.68,3.68,0,0,1,5.2,0l6,6a3.68,3.68,0,0,0,5.2,0l9.87-9.87a3.68,3.68,0,0,0,0-5.2L79.33,34.31a3.68,3.68,0,0,0-5.21,0L53,55.48A3.68,3.68,0,0,0,53,60.68Z"/><path class="cls-2" d="M85.18,78.35l-6.43-6.63a3.68,3.68,0,0,0-5.24,0l-5.68,5.68a3.68,3.68,0,0,1-5.2,0l-8.44-8.44a3.68,3.68,0,0,0-5.2,0l-9.56,9.56a3.68,3.68,0,0,0,0,5.2l33.93,33.93a3.68,3.68,0,0,0,5.2,0l33.9-33.9a3.68,3.68,0,0,0,0-5.23l-8.6-8.38a3.68,3.68,0,0,0-5.16,0l-8.25,8.25A3.68,3.68,0,0,1,85.18,78.35Z"/></g></g></svg>
