<svg xmlns="http://www.w3.org/2000/svg" viewBox="0 0 385.88 341.55"><defs><style>.cls-1,.cls-10,.cls-11,.cls-7,.cls-9{fill:#fff;}.cls-2{font-size:44.84px;}.cls-2,.cls-5{fill:#4d4d4d;}.cls-10,.cls-2,.cls-4,.cls-7,.cls-9{font-family:Larsseit-Regular, Larsseit;}.cls-3{opacity:0.5;}.cls-4{font-size:22.42px;}.cls-6{fill:#333;}.cls-7{font-size:58.76px;}.cls-12,.cls-8{fill:none;stroke-width:4px;}.cls-8{stroke:#fff;}.cls-11,.cls-12,.cls-8{stroke-miterlimit:10;}.cls-9{font-size:47.81px;}.cls-10{font-size:29.45px;}.cls-11,.cls-12{stroke:#4d4d4d;}.cls-11{stroke-width:3px;}.cls-12{stroke-linecap:round;}</style></defs><title>Nominators</title><g id="Layer_2" data-name="Layer 2"><g id="_005_how_does_it_work" data-name="005_how does it work"><circle class="cls-1" cx="202.24" cy="272.85" r="34.57"/><text class="cls-2" transform="translate(188.19 288.74)">V</text><g class="cls-3"><circle class="cls-1" cx="264.41" cy="324.27" r="17.28"/><text class="cls-4" transform="translate(255.39 332.21)">V</text></g><g class="cls-3"><circle class="cls-1" cx="122.64" cy="300.07" r="17.28"/><text class="cls-4" transform="translate(113.62 308.01)">V</text></g><circle class="cls-5" cx="63.67" cy="136.24" r="51.8"/><path class="cls-6" d="M63.67,199.91a63.67,63.67,0,1,1,63.67-63.67A63.74,63.74,0,0,1,63.67,199.91Zm0-124.51a60.84,60.84,0,1,0,60.84,60.84A60.91,60.91,0,0,0,63.67,75.4Z"/><text class="cls-7" transform="translate(40.57 155.85)">N</text><line class="cls-8" x1="156.21" y1="227.43" x2="167.46" y2="237.59"/><line class="cls-8" x1="112.39" y1="187.9" x2="123.06" y2="197.53"/><polyline class="cls-8" points="166.98 224.48 168.05 237.34 155.18 238.41"/><line class="cls-8" x1="276.37" y1="238.69" x2="251.53" y2="255.71"/><line class="cls-8" x1="325.19" y1="205.22" x2="308.56" y2="216.62"/><polyline class="cls-8" points="264.41 258.23 251.64 256.34 253.53 243.57"/><line class="cls-8" x1="233.77" y1="193.55" x2="223.63" y2="219.01"/><line class="cls-8" x1="267.12" y1="109.79" x2="248.78" y2="155.85"/><polyline class="cls-8" points="235.24 213.37 223.63 219.01 217.99 207.39"/><circle class="cls-5" cx="285.57" cy="51.8" r="42.15"/><path class="cls-6" d="M285.57,103.61a51.8,51.8,0,1,1,51.8-51.8A51.86,51.86,0,0,1,285.57,103.61Zm0-101.31a49.5,49.5,0,1,0,49.5,49.5A49.56,49.56,0,0,0,285.57,2.3Z"/><text class="cls-9" transform="translate(266.78 67.76)">N</text><circle class="cls-5" cx="353.96" cy="178.76" r="25.97"/><path class="cls-6" d="M354,210.68a31.91,31.91,0,1,1,31.91-31.91A31.95,31.95,0,0,1,354,210.68Zm0-62.41a30.49,30.49,0,1,0,30.49,30.49A30.53,30.53,0,0,0,354,148.27Z"/><text class="cls-10" transform="translate(342.39 188.59)">N</text><rect class="cls-11" x="226.62" y="159.06" width="28.84" height="28.84" rx="14.42" ry="14.42"/><polyline class="cls-12" points="232.25 173.09 238.8 179.64 249.23 169.21"/><rect class="cls-11" x="276.37" y="213.2" width="28.84" height="28.84" rx="14.42" ry="14.42"/><polyline class="cls-12" points="283.01 227.39 288.78 233.16 297.97 223.97"/><rect class="cls-11" x="127.34" y="196.74" width="28.84" height="28.84" rx="14.42" ry="14.42"/><polyline class="cls-12" points="134.11 210.96 139.78 216.62 148.81 207.59"/><circle class="cls-5" cx="204.34" cy="227.76" r="5"/><circle class="cls-5" cx="163.95" cy="249.31" r="5" transform="translate(-133.94 266.62) rotate(-60)"/><circle class="cls-5" cx="162.42" cy="295.07" r="5" transform="translate(-125.79 120.76) rotate(-30)"/><circle class="cls-5" cx="201.28" cy="319.27" r="5"/><circle class="cls-5" cx="241.67" cy="297.72" r="5" transform="matrix(0.5, -0.87, 0.87, 0.5, -137, 358.12)"/><circle class="cls-5" cx="243.2" cy="251.96" r="5" transform="matrix(0.87, -0.5, 0.5, 0.87, -93.41, 155.38)"/></g></g></svg>