<svg xmlns="http://www.w3.org/2000/svg" viewBox="0 0 302.95 302.95"><defs><style>.cls-1{fill:#e6e6e6;}.cls-2{fill:#4d4d4d;}.cls-3,.cls-5{fill:none;stroke-miterlimit:10;}.cls-3{stroke:#4d4d4d;stroke-width:4px;}.cls-4{fill:#fff;}.cls-5{stroke:#d64ca8;stroke-width:3px;}</style></defs><title>Operation</title><g id="Layer_2" data-name="Layer 2"><g id="_006_the_token" data-name="006_the token"><circle class="cls-1" cx="152.3" cy="151.47" r="137.5"/><circle class="cls-2" cx="202.3" cy="134.17" r="5.61"/><circle class="cls-2" cx="165.48" cy="149.42" r="5.61" transform="translate(-57.19 160.78) rotate(-45)"/><circle class="cls-2" cx="126.18" cy="188.62" r="5.61"/><circle class="cls-2" cx="165.48" cy="223.07" r="5.61" transform="translate(-109.26 182.35) rotate(-45)"/><circle class="cls-2" cx="202.3" cy="238.32" r="5.61"/><circle class="cls-2" cx="239.12" cy="223.07" r="5.61" transform="translate(-87.69 234.42) rotate(-45)"/><circle class="cls-2" cx="254.38" cy="186.25" r="5.61"/><circle class="cls-2" cx="239.12" cy="149.42" r="5.61" transform="translate(-35.62 212.85) rotate(-45)"/><path class="cls-3" d="M103.12,203.86l-14.2-2.76.17-1.67L108,203a4.5,4.5,0,0,0,5.27-2.27h0a4.5,4.5,0,0,0-3-6.42l-27-5.51c-3.42-1.67-21.14,5.23-27.39,7.75a3.41,3.41,0,0,0-2.16,3.21v10.71a3.44,3.44,0,0,0,4.64,3.24l12.21-4.43,19.68,6a14.08,14.08,0,0,0,8.13,1.61l40-10.92a3.58,3.58,0,0,0,2.65-3.42h0a3.54,3.54,0,0,0-4.47-3.42l-24.32,5.48Z"/><circle class="cls-2" cx="202.13" cy="160.29" r="10.35"/><path class="cls-2" d="M202.13,174.2a17,17,0,0,0-17,17c0,9.33,7.63,31.38,17,31.38s17-21.88,17-31.38A17,17,0,0,0,202.13,174.2Z"/><path class="cls-4" d="M210,189.27a29,29,0,0,0-4.13.17c.46-1.86,1.07-4.44,1.29-5.64.35-1.9-2.36-2.58-3-1.09s-2.36,6.53-5.68,7.45a2.27,2.27,0,0,0-.33.13l0,10.16a67.14,67.14,0,0,0,10.27,1.35c1.9,0,3.19-.33,3.39-2.14.26-2.43.57-5.49.7-7.28C212.75,190.12,212.06,189.4,210,189.27Z"/><path class="cls-4" d="M195.73,189.53H193a1.08,1.08,0,0,0-1.09,1.09v9.55a1.08,1.08,0,0,0,1.09,1.09h2.78a1.08,1.08,0,0,0,1.09-1.09v-9.55A1.1,1.1,0,0,0,195.73,189.53Z"/><circle class="cls-2" cx="63.97" cy="104.31" r="5.61"/><circle class="cls-2" cx="146.49" cy="104.31" r="5.61"/><circle class="cls-2" cx="105.23" cy="77.99" r="10.5"/><path class="cls-2" d="M105.23,92.09A17.26,17.26,0,0,0,88,109.3c0,9.46,7.74,31.83,17.21,31.83s17.21-22.2,17.21-31.83A17.26,17.26,0,0,0,105.23,92.09Z"/><path class="cls-4" d="M97.76,117.52a31.36,31.36,0,0,0,4.46-.19c-.5,2-1.16,4.79-1.39,6.09-.38,2.05,2.55,2.78,3.19,1.18s2.55-7.06,6.14-8a2.46,2.46,0,0,0,.35-.14l0-11A72.51,72.51,0,0,0,99.44,104c-2.05,0-3.45.35-3.66,2.31-.28,2.62-.61,5.92-.76,7.86C94.83,116.6,95.59,117.38,97.76,117.52Z"/><path class="cls-4" d="M113.22,117.24h3a1.17,1.17,0,0,0,1.18-1.18V105.74a1.17,1.17,0,0,0-1.18-1.18h-3a1.17,1.17,0,0,0-1.18,1.18v10.31A1.18,1.18,0,0,0,113.22,117.24Z"/><path class="cls-2" d="M200,71.55c-2.69-8.06-9.11-8.37-12.53-8.53h-.35c-3.72-.22-16.61-1.08-26.28-4.42L144.9,53.18a5.89,5.89,0,0,0-7.72,4.71,6,6,0,0,0,4.09,6.47l4.32,1.47h-.13a5.91,5.91,0,0,0-2.71.9l-7.77,5a6,6,0,0,0-2.48,7.08,5.89,5.89,0,0,0,8.68,2.92l1.21-.76-2.62,6.93a6.19,6.19,0,0,0,2.43,7.27,5.89,5.89,0,0,0,8.5-2.89l3.07-6.57h10.83l3.64,1.71-1.41,7.07-7.19,4.92a5.94,5.94,0,0,0-3.28,6.58,5.88,5.88,0,0,0,8.13,4.13l9-4a5.92,5.92,0,0,0,1.54-1l14.43-13.55.47-.23a9.11,9.11,0,0,1,2.19-.91,10.48,10.48,0,0,0,7.17-5.08C201.42,81.69,201.7,76.64,200,71.55Zm-4.69,11.54a5.82,5.82,0,0,1-4.09,2.9,12.74,12.74,0,0,0-3.42,1.3l-.71.35a2.28,2.28,0,0,0-.58.4l-14.59,13.74a1.42,1.42,0,0,1-.32.23l-9,4a1.31,1.31,0,0,1-1.84-1,1.42,1.42,0,0,1,.89-1.51,2.35,2.35,0,0,0,.36-.2l8.11-5.55a2.28,2.28,0,0,0,.95-1.43l1.95-9.74a2.28,2.28,0,0,0-1.28-2.52l-5.69-2.66a2.28,2.28,0,0,0-1-.22H152.29a2.28,2.28,0,0,0-2,1.33l-3.72,8-.07.17a1.32,1.32,0,0,1-.8.79,1.34,1.34,0,0,1-1.14-.13,1.69,1.69,0,0,1-.48-1.75l4.26-11.39a1.32,1.32,0,0,1,.64-.72l12.89-1.14a2.29,2.29,0,0,0-.41-4.55L146.91,73a2.28,2.28,0,0,0-1,.35l-7.16,4.55a1.3,1.3,0,0,1-.71.2,1.33,1.33,0,0,1-1.26-.9,1.42,1.42,0,0,1,.67-1.63l7.8-5a1.33,1.33,0,0,1,.61-.2L157,69.56a2.28,2.28,0,0,0,.56-4.43l-14.8-5a1.46,1.46,0,0,1-1.06-1.48,1.33,1.33,0,0,1,1.74-1.14l15.89,5.42c9.91,3.42,22.56,4.34,27.55,4.55h.38c3.14.15,6.7.32,8.4,5.42C196.94,76.82,196.8,80.56,195.31,83.09Z"/><circle class="cls-5" cx="151.47" cy="151.47" r="149.97"/></g></g></svg>