<svg xmlns="http://www.w3.org/2000/svg" xmlns:xlink="http://www.w3.org/1999/xlink" viewBox="0 0 2426.7 1512.91"><defs><style>.cls-1,.cls-2,.cls-3{fill:none;}.cls-2,.cls-3{stroke:#f7d7d7;stroke-miterlimit:10;}.cls-2{stroke-width:2px;}.cls-3{stroke-width:4px;}.cls-4{clip-path:url(#clip-path);}.cls-5{clip-path:url(#clip-path-2);}</style><clipPath id="clip-path"><circle class="cls-1" cx="2216.44" cy="1128.39" r="73.34" transform="translate(-148.71 1897.76) rotate(-45)"/></clipPath><clipPath id="clip-path-2"><circle class="cls-1" cx="287.9" cy="468.33" r="46.6" transform="translate(-246.83 340.74) rotate(-45)"/></clipPath></defs><title>pink-dots</title><g id="Layer_2" data-name="Layer 2"><g id="_003_what_is_it_" data-name="003_what is it?"><circle class="cls-2" cx="1420.65" cy="55.55" r="54.55"/><circle class="cls-3" cx="369.19" cy="1456.36" r="54.55"/><circle class="cls-2" cx="2234.38" cy="133.06" r="64.03"/><circle class="cls-2" cx="65.03" cy="144.29" r="64.03"/><circle class="cls-2" cx="284.74" cy="766.05" r="103.07"/><circle class="cls-2" cx="2280.32" cy="663.04" r="145.38"/><g class="cls-4"><line class="cls-2" x1="2220.51" y1="1025.82" x2="2114.23" y2="1132.1"/><line class="cls-2" x1="2227.46" y1="1032.77" x2="2121.18" y2="1139.05"/><line class="cls-2" x1="2234.41" y1="1039.72" x2="2128.13" y2="1146"/><line class="cls-2" x1="2241.36" y1="1046.67" x2="2135.08" y2="1152.94"/><line class="cls-2" x1="2248.31" y1="1053.61" x2="2142.03" y2="1159.89"/><line class="cls-2" x1="2255.26" y1="1060.56" x2="2148.98" y2="1166.84"/><line class="cls-2" x1="2262.21" y1="1067.51" x2="2155.93" y2="1173.79"/><line class="cls-2" x1="2269.16" y1="1074.46" x2="2162.88" y2="1180.74"/><line class="cls-2" x1="2276.11" y1="1081.41" x2="2169.83" y2="1187.69"/><line class="cls-2" x1="2283.05" y1="1088.36" x2="2176.77" y2="1194.64"/><line class="cls-2" x1="2290" y1="1095.31" x2="2183.72" y2="1201.59"/><line class="cls-2" x1="2296.95" y1="1102.26" x2="2190.67" y2="1208.54"/><line class="cls-2" x1="2303.9" y1="1109.21" x2="2197.62" y2="1215.49"/><line class="cls-2" x1="2310.85" y1="1116.16" x2="2204.57" y2="1222.43"/><line class="cls-2" x1="2317.8" y1="1123.1" x2="2211.52" y2="1229.38"/></g><g class="cls-5"><line class="cls-2" x1="290.49" y1="403.15" x2="222.95" y2="470.68"/><line class="cls-2" x1="294.9" y1="407.56" x2="227.37" y2="475.1"/><line class="cls-2" x1="299.32" y1="411.98" x2="231.78" y2="479.51"/><line class="cls-2" x1="303.73" y1="416.4" x2="236.2" y2="483.93"/><line class="cls-2" x1="308.15" y1="420.81" x2="240.62" y2="488.34"/><line class="cls-2" x1="312.56" y1="425.23" x2="245.03" y2="492.76"/><line class="cls-2" x1="316.98" y1="429.64" x2="249.45" y2="497.17"/><line class="cls-2" x1="321.4" y1="434.06" x2="253.86" y2="501.59"/><line class="cls-2" x1="325.81" y1="438.47" x2="258.28" y2="506.01"/><line class="cls-2" x1="330.23" y1="442.89" x2="262.69" y2="510.42"/><line class="cls-2" x1="334.64" y1="447.3" x2="267.11" y2="514.84"/><line class="cls-2" x1="339.06" y1="451.72" x2="271.53" y2="519.25"/><line class="cls-2" x1="343.47" y1="456.14" x2="275.94" y2="523.67"/><line class="cls-2" x1="347.89" y1="460.55" x2="280.36" y2="528.08"/><line class="cls-2" x1="352.3" y1="464.97" x2="284.77" y2="532.5"/></g></g></g></svg>