<?xml version="1.0" encoding="utf-8"?>
<!-- Generator: Adobe Illustrator 21.0.0, SVG Export Plug-In . SVG Version: 6.00 Build 0)  -->
<svg version="1.1" id="Layer_1" xmlns="http://www.w3.org/2000/svg" xmlns:xlink="http://www.w3.org/1999/xlink" x="0px" y="0px"
	 viewBox="0 0 744.2 697.6" style="enable-background:new 0 0 744.2 697.6;" xml:space="preserve">
<style type="text/css">
	.st0{fill:#FFFFFF;}
	.st1{fill:none;stroke:#B3B3B3;stroke-width:4;stroke-linecap:round;stroke-miterlimit:10;stroke-dasharray:1,10;}
	.st2{fill:#CCCCCC;}
	.st3{clip-path:url(#SVGID_2_);}
	.st4{fill:none;stroke:#B3B3B3;stroke-width:3;stroke-miterlimit:10;}
	.st5{fill:#FFFFFF;stroke:#666666;stroke-width:3;stroke-miterlimit:10;}
	.st6{fill:#FFFFFF;stroke:#D64CA8;stroke-width:3;stroke-linejoin:round;}
	.st7{fill:#E6E6E6;stroke:#D64CA8;stroke-width:3;stroke-miterlimit:10;}
	.st8{fill:none;stroke:#666666;stroke-width:2;stroke-miterlimit:10;}
	.st9{fill:#D64CA8;stroke:#666666;stroke-width:2;stroke-miterlimit:10;}
	.st10{fill:#D85DA1;stroke:#666666;stroke-width:2;stroke-miterlimit:10;}
	.st11{fill:#D64CA8;stroke:#808080;stroke-width:2;stroke-miterlimit:10;}
	.st12{fill:none;stroke:#808080;stroke-width:2;stroke-miterlimit:10;}
	.st13{fill:#D64CA8;}
	.st14{font-family:'Lobster-Regular';}
	.st15{font-size:68.33px;}
	.st16{opacity:0.3;fill:#4D4D4D;enable-background:new    ;}
	.st17{fill:#FFFFFF;stroke:#4D4D4D;stroke-width:3;stroke-miterlimit:10;}
	.st18{fill:#4D4D4D;}
	.st19{font-family:'Larsseit-Regular';}
	.st20{font-size:30.1px;}
</style>
<title>protocol</title>
<g id="Layer_2">
	<g id="_003_what_is_it_">
		<circle class="st0" cx="348.8" cy="348.8" r="346.8"/>
		<circle class="st1" cx="348.8" cy="348.8" r="346.8"/>
		<polygon class="st2" points="627.8,575.8 454.4,498 523,359.4 687.2,473.4 		"/>
		<g>
			<g>
				<defs>
					<polygon id="SVGID_1_" points="627.8,575.8 454.4,498 523,359.4 687.2,473.4 					"/>
				</defs>
				<clipPath id="SVGID_2_">
					<use xlink:href="#SVGID_1_"  style="overflow:visible;"/>
				</clipPath>
				<g class="st3">
					<line class="st4" x1="661.5" y1="346.1" x2="427.7" y2="407.2"/>
					<line class="st4" x1="665" y1="359.5" x2="431.2" y2="420.6"/>
					<line class="st4" x1="668.5" y1="372.9" x2="434.7" y2="434"/>
					<line class="st4" x1="672" y1="386.3" x2="438.2" y2="447.4"/>
					<line class="st4" x1="675.5" y1="399.6" x2="441.7" y2="460.8"/>
					<line class="st4" x1="679" y1="413" x2="445.2" y2="474.2"/>
					<line class="st4" x1="682.5" y1="426.4" x2="448.7" y2="487.6"/>
					<line class="st4" x1="686" y1="439.8" x2="452.2" y2="501"/>
					<line class="st4" x1="689.5" y1="453.2" x2="455.7" y2="514.4"/>
					<line class="st4" x1="693" y1="466.6" x2="459.2" y2="527.8"/>
					<line class="st4" x1="696.5" y1="480" x2="462.7" y2="541.2"/>
					<line class="st4" x1="700" y1="493.4" x2="466.2" y2="554.6"/>
					<line class="st4" x1="703.5" y1="506.8" x2="469.8" y2="568"/>
					<line class="st4" x1="707" y1="520.2" x2="473.3" y2="581.3"/>
					<line class="st4" x1="710.5" y1="533.6" x2="476.8" y2="594.7"/>
				</g>
			</g>
		</g>
		<circle class="st5" cx="651" cy="520.2" r="59.7"/>
		<polygon class="st6" points="651,540.8 651,561.4 676.3,525.8 		"/>
		<polygon class="st6" points="651,479 651,509.5 651,536 676.3,521 		"/>
		<polygon class="st6" points="651,540.8 651,561.4 625.8,525.8 		"/>
		<polygon class="st6" points="625.8,521 651,536 651,509.5 651,479 		"/>
		<polygon class="st7" points="459.9,150.1 234.5,150.1 121.8,345.3 234.5,540.5 459.9,540.5 572.6,345.3 		"/>
		<line class="st8" x1="516.4" y1="198.3" x2="459.8" y2="286.2"/>
		<line class="st8" x1="574.1" y1="286.2" x2="459.8" y2="286.2"/>
		<line class="st8" x1="516.4" y1="198.3" x2="574.1" y2="286.2"/>
		<circle class="st9" cx="516.8" cy="198.6" r="11.5"/>
		<circle class="st10" cx="516.8" cy="255.1" r="20.2"/>
		<circle class="st9" cx="574" cy="286.5" r="11.5"/>
		<circle class="st9" cx="459.7" cy="286.5" r="11.5"/>
		
			<ellipse transform="matrix(0.7071 -0.7071 0.7071 0.7071 -3.4626 293.0758)" class="st11" cx="352" cy="150.7" rx="20.2" ry="20.2"/>
		
			<ellipse transform="matrix(0.7071 -0.7071 0.7071 0.7071 -2.898 293.3808)" class="st12" cx="352.7" cy="150.2" rx="57.1" ry="57.1"/>
		
			<ellipse transform="matrix(0.7071 -0.7071 0.7071 0.7071 -20.298 333.3951)" class="st11" cx="392.3" cy="191.2" rx="11.5" ry="11.5"/>
		
			<ellipse transform="matrix(0.7071 -0.7071 0.7071 0.7071 13.1743 252.5948)" class="st11" cx="311.5" cy="110.4" rx="11.5" ry="11.5"/>
		<rect x="139.2" y="201.7" class="st8" width="81.9" height="81.9"/>
		<circle class="st9" cx="180.1" cy="242.3" r="20.2"/>
		
			<ellipse transform="matrix(0.7071 -0.7071 0.7071 0.7071 -78.377 215.0519)" class="st9" cx="220.4" cy="202.1" rx="11.5" ry="11.5"/>
		
			<ellipse transform="matrix(0.7071 -0.7071 0.7071 0.7071 -159.1815 181.5779)" class="st9" cx="139.6" cy="282.9" rx="11.5" ry="11.5"/>
		
			<ellipse transform="matrix(0.7071 -0.7071 0.7071 0.7071 -102.0423 157.9169)" class="st9" cx="139.6" cy="202.1" rx="11.5" ry="11.5"/>
		
			<ellipse transform="matrix(0.7071 -0.7071 0.7071 0.7071 -135.4497 238.7464)" class="st9" cx="220.5" cy="282.9" rx="11.5" ry="11.5"/>
		<circle class="st9" cx="353.1" cy="542.6" r="20.2"/>
		<polygon class="st8" points="352.7,485.9 297.8,525.7 318.8,590.2 386.6,590.2 407.6,525.7 		"/>
		
			<ellipse transform="matrix(0.7071 -0.7071 0.7071 0.7071 -239.9234 392.4557)" class="st9" cx="353.8" cy="485.8" rx="11.5" ry="11.5"/>
		
			<ellipse transform="matrix(0.7071 -0.7071 0.7071 0.7071 -252.5577 442.6662)" class="st9" cx="408.1" cy="526.2" rx="11.5" ry="11.5"/>
		
			<ellipse transform="matrix(0.7071 -0.7071 0.7071 0.7071 -325.0005 397.1679)" class="st9" cx="316.9" cy="590.9" rx="11.5" ry="11.5"/>
		
			<ellipse transform="matrix(0.7071 -0.7071 0.7071 0.7071 -285.0178 364.3188)" class="st9" cx="297.3" cy="526.2" rx="11.5" ry="11.5"/>
		
			<ellipse transform="matrix(0.7071 -0.7071 0.7071 0.7071 -304.6786 446.1454)" class="st9" cx="386.2" cy="590.9" rx="11.5" ry="11.5"/>
		<text transform="matrix(1 0 0 1 275.61 326.25)" class="st13 st14 st15">Relay</text>
		<text transform="matrix(1 0 0 1 275.23 408.25)" class="st13 st14 st15">Chain</text>
		<polygon class="st16" points="744.2,441.5 590.5,441.5 581.8,458.3 572.5,441.5 561.9,441.5 561.9,358.4 744.2,358.4 		"/>
		<polygon class="st17" points="741,438.4 587.4,438.4 578.7,455.2 569.4,438.4 558.7,438.4 558.7,355.3 741,355.3 		"/>
		<text transform="matrix(1 0 0 1 587.3 388.92)" class="st18 st19 st20">Ethe</text>
		<text transform="matrix(1 0 0 1 645.85 388.92)" class="st18 st19 st20">r</text>
		<text transform="matrix(1 0 0 1 655.79 388.92)" class="st18 st19 st20">eum</text>
		<text transform="matrix(1 0 0 1 572.5 425.05)" class="st18 st19 st20">Brid</text>
		<text transform="matrix(1 0 0 1 625.37 425.05)" class="st18 st19 st20">g</text>
		<text transform="matrix(1 0 0 1 640.54 425.05)" class="st18 st19 st20">e</text>
		<text transform="matrix(1 0 0 1 657.43 425.05)" class="st18 st19 st20">chain</text>
		<polygon class="st16" points="497.3,138.8 363.2,138.8 354.5,155.6 345.2,138.8 334.6,138.8 334.6,96.3 497.3,96.3 		"/>
		<polygon class="st17" points="494.2,134.9 360.1,134.9 351.4,151.7 342.1,134.9 331.4,134.9 331.4,92.4 494.2,92.4 		"/>
		<text transform="matrix(1 0 0 1 349.78 123.68)" class="st18 st19 st20">P</text>
		<text transform="matrix(1 0 0 1 365.68 123.68)" class="st18 st19 st20">a</text>
		<text transform="matrix(1 0 0 1 380.55 123.68)" class="st18 st19 st20">r</text>
		<text transform="matrix(1 0 0 1 390.39 123.68)" class="st18 st19 st20">achain</text>
		<polygon class="st16" points="212.7,529.5 346.9,529.5 355.6,546.3 364.8,529.5 375.5,529.5 375.5,487 212.7,487 		"/>
		<polygon class="st17" points="210.5,525.6 344.7,525.6 353.4,542.4 362.6,525.6 373.3,525.6 373.3,483.1 210.5,483.1 		"/>
		<text transform="matrix(1 0 0 1 227.51 514.37)" class="st18 st19 st20">P</text>
		<text transform="matrix(1 0 0 1 243.41 514.37)" class="st18 st19 st20">a</text>
		<text transform="matrix(1 0 0 1 258.28 514.37)" class="st18 st19 st20">r</text>
		<text transform="matrix(1 0 0 1 268.12 514.37)" class="st18 st19 st20">achain</text>
	</g>
</g>
</svg>
