<svg xmlns="http://www.w3.org/2000/svg" xmlns:xlink="http://www.w3.org/1999/xlink" viewBox="0 0 744.16 697.56"><defs><style>.cls-1,.cls-14,.cls-15,.cls-3{fill:none;}.cls-18,.cls-2,.cls-24,.cls-7,.cls-8{fill:#fff;}.cls-3,.cls-6{stroke:#b3b3b3;}.cls-3{stroke-linecap:round;stroke-width:4px;stroke-dasharray:1 10;}.cls-10,.cls-11,.cls-12,.cls-13,.cls-14,.cls-15,.cls-18,.cls-24,.cls-3,.cls-6,.cls-7,.cls-9{stroke-miterlimit:10;}.cls-4{fill:#ccc;}.cls-5{clip-path:url(#clip-path);}.cls-6,.cls-9{fill:#e6e6e6;}.cls-18,.cls-24,.cls-6,.cls-7,.cls-8,.cls-9{stroke-width:3px;}.cls-10,.cls-11,.cls-12,.cls-15,.cls-7{stroke:#666;}.cls-8,.cls-9{stroke:#d64ca8;}.cls-8{stroke-linejoin:round;}.cls-10{fill:#dd3a75;}.cls-10,.cls-11,.cls-12,.cls-13,.cls-14,.cls-15{stroke-width:2px;}.cls-11,.cls-13{fill:#d64ca8;}.cls-12{fill:#d85da1;}.cls-13,.cls-14{stroke:gray;}.cls-16{font-size:68.33px;fill:#666;font-family:Lobster-Regular, Lobster;}.cls-17,.cls-19{fill:#4d4d4d;}.cls-17{opacity:0.3;}.cls-18{stroke:#4d4d4d;}.cls-19{font-size:30.1px;font-family:Larsseit-Regular, Larsseit;}.cls-20{letter-spacing:-0.01em;}.cls-21{letter-spacing:0em;}.cls-22{letter-spacing:0em;}.cls-23{letter-spacing:0.01em;}.cls-24{stroke:#999;}.cls-25{letter-spacing:-0.01em;}</style><clipPath id="clip-path"><polygon class="cls-1" points="627.78 575.76 454.43 497.99 523.05 359.42 687.24 473.35 627.78 575.76"/></clipPath></defs><title>protocol</title><g id="Layer_2" data-name="Layer 2"><g id="_003_what_is_it_" data-name="003_what is it?"><circle class="cls-2" cx="348.78" cy="348.78" r="346.78"/><circle class="cls-3" cx="348.78" cy="348.78" r="346.78"/><polygon class="cls-4" points="627.78 575.76 454.43 497.99 523.05 359.42 687.24 473.35 627.78 575.76"/><g class="cls-5"><line class="cls-6" x1="661.46" y1="346.08" x2="427.7" y2="407.24"/><line class="cls-6" x1="664.96" y1="359.47" x2="431.21" y2="420.63"/><line class="cls-6" x1="668.47" y1="372.86" x2="434.71" y2="434.02"/><line class="cls-6" x1="671.97" y1="386.26" x2="438.21" y2="447.42"/><line class="cls-6" x1="675.48" y1="399.65" x2="441.72" y2="460.81"/><line class="cls-6" x1="678.98" y1="413.04" x2="445.22" y2="474.2"/><line class="cls-6" x1="682.48" y1="426.44" x2="448.73" y2="487.6"/><line class="cls-6" x1="685.99" y1="439.83" x2="452.23" y2="500.99"/><line class="cls-6" x1="689.49" y1="453.22" x2="455.74" y2="514.38"/><line class="cls-6" x1="693" y1="466.62" x2="459.24" y2="527.77"/><line class="cls-6" x1="696.5" y1="480.01" x2="462.74" y2="541.17"/><line class="cls-6" x1="700" y1="493.4" x2="466.25" y2="554.56"/><line class="cls-6" x1="703.51" y1="506.8" x2="469.75" y2="567.95"/><line class="cls-6" x1="707.01" y1="520.19" x2="473.26" y2="581.35"/><line class="cls-6" x1="710.52" y1="533.58" x2="476.76" y2="594.74"/></g><circle class="cls-7" cx="651.05" cy="520.21" r="59.65"/><polygon class="cls-8" points="651.05 540.76 651.05 561.37 676.35 525.83 651.05 540.76"/><polygon class="cls-8" points="651.05 479.05 651.05 509.53 651.05 535.99 676.35 521.02 651.05 479.05"/><polygon class="cls-8" points="651.05 540.76 651.05 561.37 625.75 525.83 651.05 540.76"/><polygon class="cls-8" points="625.75 521.02 651.05 535.99 651.05 509.53 651.05 479.05 625.75 521.02"/><polygon class="cls-9" points="459.88 150.1 234.49 150.1 121.79 345.3 234.49 540.5 459.88 540.5 572.58 345.3 459.88 150.1"/><line class="cls-10" x1="516.43" y1="198.3" x2="459.78" y2="286.21"/><line class="cls-10" x1="574.06" y1="286.21" x2="459.78" y2="286.21"/><line class="cls-10" x1="516.43" y1="198.3" x2="574.06" y2="286.21"/><circle class="cls-11" cx="516.81" cy="198.56" r="11.54"/><circle class="cls-12" cx="516.81" cy="255.11" r="20.2"/><circle class="cls-11" cx="573.95" cy="286.47" r="11.54"/><circle class="cls-11" cx="459.67" cy="286.47" r="11.54"/><circle class="cls-13" cx="352.04" cy="150.66" r="20.2" transform="translate(-3.42 293.05) rotate(-45)"/><circle class="cls-14" cx="352.68" cy="150.19" r="57.12" transform="translate(-2.9 293.38) rotate(-45)"/><circle class="cls-13" cx="392.3" cy="191.2" r="11.54" transform="translate(-20.3 333.4) rotate(-45)"/><circle class="cls-13" cx="311.49" cy="110.4" r="11.54" transform="translate(13.17 252.59) rotate(-45)"/><rect class="cls-15" x="139.21" y="201.72" width="81.94" height="81.94"/><circle class="cls-11" cx="180.05" cy="242.32" r="20.2"/><circle class="cls-11" cx="220.45" cy="202.11" r="11.54" transform="translate(-78.35 215.08) rotate(-45)"/><circle class="cls-11" cx="139.64" cy="282.92" r="11.54" transform="translate(-159.15 181.61) rotate(-45)"/><circle class="cls-11" cx="139.64" cy="202.11" r="11.54" transform="translate(-102.01 157.94) rotate(-45)"/><circle class="cls-11" cx="220.45" cy="282.92" r="11.54" transform="translate(-135.48 238.75) rotate(-45)"/><circle class="cls-11" cx="353.13" cy="542.61" r="20.2"/><polygon class="cls-15" points="352.68 485.85 297.81 525.72 318.77 590.23 386.6 590.23 407.56 525.72 352.68 485.85"/><circle class="cls-11" cx="353.84" cy="485.85" r="11.54" transform="translate(-239.91 392.5) rotate(-45)"/><circle class="cls-11" cx="408.08" cy="526.24" r="11.54" transform="translate(-252.58 442.68) rotate(-45)"/><circle class="cls-11" cx="316.91" cy="590.86" r="11.54" transform="translate(-324.98 397.15) rotate(-45)"/><circle class="cls-11" cx="297.29" cy="526.24" r="11.54" transform="translate(-285.03 364.35) rotate(-45)"/><circle class="cls-11" cx="386.15" cy="590.86" r="11.54" transform="translate(-304.7 446.11) rotate(-45)"/><text class="cls-16" transform="translate(275.61 326.25)">Relay<tspan x="-0.38" y="82">Chain</tspan></text><polygon class="cls-17" points="744.15 441.55 590.49 441.55 581.77 458.33 572.54 441.55 561.87 441.55 561.87 358.41 744.15 358.41 744.15 441.55"/><polygon class="cls-18" points="741.03 438.43 587.37 438.43 578.65 455.21 569.41 438.43 558.74 438.43 558.74 355.29 741.03 355.29 741.03 438.43"/><text class="cls-19" transform="translate(587.3 388.92)">Ethe<tspan class="cls-20" x="58.55" y="0">r</tspan><tspan class="cls-21" x="68.49" y="0">eum</tspan><tspan x="-14.8" y="36.13">Brid</tspan><tspan class="cls-22" x="38.07" y="36.13">g</tspan><tspan class="cls-23" x="53.24" y="36.13">e</tspan><tspan x="70.13" y="36.13">chain</tspan></text><polygon class="cls-17" points="497.34 138.84 363.19 138.84 354.47 155.62 345.24 138.84 334.57 138.84 334.57 96.29 497.34 96.29 497.34 138.84"/><polygon class="cls-24" points="494.21 134.93 360.07 134.93 351.35 151.72 342.11 134.93 331.44 134.93 331.44 92.39 494.21 92.39 494.21 134.93"/><text class="cls-19" transform="translate(349.78 123.68)"><tspan class="cls-20">P</tspan><tspan class="cls-21" x="15.9" y="0">a</tspan><tspan class="cls-25" x="30.77" y="0">r</tspan><tspan x="40.61" y="0">achain</tspan></text><polygon class="cls-17" points="212.74 529.53 346.89 529.53 355.6 546.32 364.84 529.53 375.51 529.53 375.51 486.98 212.74 486.98 212.74 529.53"/><polygon class="cls-18" points="210.51 525.63 344.66 525.63 353.38 542.41 362.62 525.63 373.29 525.63 373.29 483.08 210.51 483.08 210.51 525.63"/><text class="cls-19" transform="translate(227.51 514.37)"><tspan class="cls-20">P</tspan><tspan class="cls-21" x="15.9" y="0">a</tspan><tspan class="cls-25" x="30.77" y="0">r</tspan><tspan x="40.61" y="0">achain</tspan></text></g></g></svg>