<svg xmlns="http://www.w3.org/2000/svg" viewBox="0 0 105.22 105.22"><defs><style>.cls-1{fill:none;stroke:#4d4d4d;stroke-linecap:round;stroke-miterlimit:10;stroke-width:4px;}</style></defs><title>robust</title><g id="Layer_2" data-name="Layer 2"><g id="Layer_1-2" data-name="Layer 1"><path class="cls-1" d="M33.67,11.46A8.39,8.39,0,0,0,42,18.78H66.55A8.39,8.39,0,1,0,66.55,2H42a8.43,8.43,0,0,0-1.69.17"/><path class="cls-1" d="M10.12,36.9a8.39,8.39,0,0,0,11.06-.71L38.55,18.83A8.39,8.39,0,1,0,26.68,7L9.31,24.33a8.43,8.43,0,0,0-1.07,1.32"/><path class="cls-1" d="M11.46,71.55a8.39,8.39,0,0,0,7.32-8.32V38.66A8.39,8.39,0,1,0,2,38.66V63.23a8.43,8.43,0,0,0,.17,1.69"/><path class="cls-1" d="M36.9,95.1A8.39,8.39,0,0,0,36.2,84L18.83,66.67A8.39,8.39,0,1,0,7,78.53L24.33,95.9A8.43,8.43,0,0,0,25.65,97"/><path class="cls-1" d="M71.55,93.76a8.39,8.39,0,0,0-8.32-7.32H38.66a8.39,8.39,0,1,0,0,16.78H63.23a8.43,8.43,0,0,0,1.69-.17"/><path class="cls-1" d="M95.1,68.31A8.39,8.39,0,0,0,84,69L66.67,86.39A8.39,8.39,0,1,0,78.53,98.25L95.9,80.88A8.43,8.43,0,0,0,97,79.57"/><path class="cls-1" d="M93.76,33.67A8.39,8.39,0,0,0,86.44,42V66.55a8.39,8.39,0,1,0,16.78,0V42A8.43,8.43,0,0,0,103,40.3"/><path class="cls-1" d="M68.31,10.12A8.39,8.39,0,0,0,69,21.18L86.39,38.55A8.39,8.39,0,1,0,98.25,26.68L80.88,9.31a8.43,8.43,0,0,0-1.32-1.07"/></g></g></svg>