<svg id="Layer_1" data-name="Layer 1" xmlns="http://www.w3.org/2000/svg" viewBox="0 0 702.04 764.87"><defs><style>.cls-1{font-size:13.21px;font-family:DINCompPro}.cls-1,.cls-17,.cls-31,.cls-49,.cls-66,.cls-67{fill:#4d4d4d;}.cls-2{letter-spacing:0.01em;}.cls-3{letter-spacing:0.02em;}.cls-4{letter-spacing:0.02em;}.cls-5{letter-spacing:0.02em;}.cls-6{letter-spacing:0.02em;}.cls-7{letter-spacing:0.02em;}.cls-8{letter-spacing:0.02em;}.cls-9{letter-spacing:0.02em;}.cls-10{letter-spacing:0.02em;}.cls-11{letter-spacing:0.02em;}.cls-12{letter-spacing:0.02em;}.cls-13{letter-spacing:0.02em;}.cls-14{letter-spacing:0.02em;}.cls-15{letter-spacing:0.02em;}.cls-16{letter-spacing:0.02em;}.cls-17,.cls-48{font-size:23.9px;}.cls-17,.cls-25,.cls-26,.cls-27,.cls-28,.cls-38,.cls-39,.cls-40,.cls-42,.cls-43,.cls-44,.cls-48,.cls-49,.cls-51,.cls-53,.cls-54,.cls-55,.cls-64,.cls-65{font-family:Larsseit, Larsseit;}.cls-18{letter-spacing:0.02em;}.cls-19{fill:#5b5b5b;stroke:#848484;}.cls-19,.cls-32,.cls-45,.cls-56,.cls-57,.cls-69,.cls-70{stroke-miterlimit:10;}.cls-19,.cls-56{stroke-width:3px;}.cls-20{font-size:20.04px;fill:#f7d7d7;}.cls-20,.cls-66,.cls-67{font-family:Lobster, Lobster1.4;}.cls-21{letter-spacing:0.02em;}.cls-22{letter-spacing:0.02em;}.cls-23{letter-spacing:0.02em;}.cls-24,.cls-33,.cls-42,.cls-43,.cls-44,.cls-53,.cls-54,.cls-55,.cls-56{fill:#fff;}.cls-25{font-size:26.68px;}.cls-26{font-size:12.8px;}.cls-27{font-size:15.5px;}.cls-28{font-size:9.44px;}.cls-29{opacity:0.24;}.cls-30{fill:#fff4f4;}.cls-32,.cls-45,.cls-57,.cls-69,.cls-70{fill:none;}.cls-32,.cls-69,.cls-70{stroke:#fff;}.cls-32,.cls-45,.cls-57{stroke-width:4px;}.cls-33{opacity:0.2;}.cls-34{letter-spacing:0.02em;}.cls-35{letter-spacing:0.02em;}.cls-36{letter-spacing:0.02em;}.cls-37{letter-spacing:0.02em;}.cls-38{font-size:25.34px;}.cls-39{font-size:22.27px;}.cls-40{font-size:12.67px;}.cls-41{fill:#554f4f;}.cls-42{font-size:31.4px;}.cls-43{font-size:24.16px;}.cls-44{font-size:22.01px;}.cls-45,.cls-56,.cls-57{stroke:#4d4d4d;}.cls-46{letter-spacing:0.02em;}.cls-47{letter-spacing:0.01em;}.cls-48,.cls-52{fill:#333;}.cls-49{font-size:22.32px;}.cls-50{opacity:0.5;}.cls-51{font-size:11.16px;}.cls-53{font-size:29.25px;}.cls-54{font-size:23.8px;}.cls-55{font-size:14.66px;}.cls-57{stroke-linecap:round;}.cls-58{letter-spacing:0.02em;}.cls-59{letter-spacing:0.02em;}.cls-60{letter-spacing:0.01em;}.cls-61{letter-spacing:0.02em;}.cls-62{letter-spacing:0.02em;}.cls-63{letter-spacing:0.02em;}.cls-64{font-size:19.75px;}.cls-65{font-size:12.61px;}.cls-66{font-size:22.15px;}.cls-67{font-size:18.15px;}.cls-68{opacity:0.7;}.cls-69,.cls-70{stroke-width:2px;}.cls-69{stroke-dasharray:11.86 11.86;}</style></defs><title>how</title><text class="cls-1" transform="translate(14.75 231.2)"><tspan class="cls-2">S</tspan><tspan x="6.59" y="0">ecu</tspan><tspan class="cls-3" x="26.41" y="0">r</tspan><tspan x="30.6" y="0">e the </tspan><tspan class="cls-4" x="61.15" y="0">r</tspan><tspan x="65.34" y="0">el</tspan><tspan class="cls-5" x="75.08" y="0">a</tspan><tspan x="81.34" y="0">y chain </tspan><tspan class="cls-6" x="123.21" y="0">b</tspan><tspan x="130.64" y="0">y sta</tspan><tspan class="cls-7" x="155.64" y="0">k</tspan><tspan x="162.06" y="0">ing D</tspan><tspan class="cls-8" x="191.47" y="0">O</tspan><tspan class="cls-9" x="200.24" y="0">T</tspan><tspan class="cls-10" x="206.11" y="0">s</tspan><tspan x="211.2" y="0">, </tspan><tspan class="cls-11" x="216.73" y="0">v</tspan><tspan x="223.04" y="0">alid</tspan><tspan class="cls-11" x="243.07" y="0">a</tspan><tspan x="249.38" y="0">ting </tspan><tspan x="-6.73" y="15.86">p</tspan><tspan class="cls-3" x="0.79" y="15.86">r</tspan><tspan x="4.98" y="15.86">oo</tspan><tspan class="cls-12" x="19.49" y="15.86">f</tspan><tspan x="23.23" y="15.86">s f</tspan><tspan class="cls-3" x="35.12" y="15.86">r</tspan><tspan x="39.31" y="15.86">om </tspan><tspan class="cls-13" x="60.38" y="15.86">c</tspan><tspan x="66.22" y="15.86">oll</tspan><tspan class="cls-11" x="79.71" y="15.86">a</tspan><tspan class="cls-14" x="86.03" y="15.86">t</tspan><tspan x="90.32" y="15.86">ors and pa</tspan><tspan class="cls-15" x="147.77" y="15.86">r</tspan><tspan x="152.41" y="15.86">ticip</tspan><tspan class="cls-11" x="176.41" y="15.86">a</tspan><tspan x="182.72" y="15.86">ting in </tspan><tspan class="cls-13" x="220.93" y="15.86">c</tspan><tspan x="226.77" y="15.86">onsensus </tspan><tspan x="77.6" y="31.71">with other </tspan><tspan class="cls-11" x="137.63" y="31.71">v</tspan><tspan x="143.93" y="31.71">alid</tspan><tspan class="cls-11" x="163.96" y="31.71">a</tspan><tspan class="cls-14" x="170.28" y="31.71">t</tspan><tspan x="174.57" y="31.71">or</tspan><tspan class="cls-16" x="186.14" y="31.71">s</tspan><tspan x="191.23" y="31.71">.</tspan></text><text class="cls-17" transform="translate(97.79 213.83)"><tspan class="cls-18">V</tspan><tspan x="14.93" y="0">alidators</tspan></text><polygon class="cls-19" points="100.92 63.14 53.04 63.14 29.1 104.6 53.04 146.07 100.92 146.07 124.86 104.6 100.92 63.14"/><text class="cls-20" transform="translate(55.73 98.18)"><tspan class="cls-21">R</tspan><tspan x="10.86" y="0">el</tspan><tspan class="cls-22" x="25.63" y="0">a</tspan><tspan class="cls-23" x="35.12" y="0">y</tspan><tspan x="-1.82" y="24.04">Chain</tspan></text><circle class="cls-24" cx="249.31" cy="50.25" r="20.57"/><text class="cls-25" transform="translate(240.57 59.7)">V</text><circle class="cls-24" cx="233.33" cy="88.24" r="9.87"/><text class="cls-26" transform="translate(229.17 92.78)">V</text><circle class="cls-24" cx="183.06" cy="140.79" r="11.95"/><text class="cls-27" transform="translate(177.82 146.28)">V</text><circle class="cls-24" cx="183.69" cy="117.46" r="7.27"/><text class="cls-28" transform="translate(180.39 120.8)">V</text><circle class="cls-24" cx="206.01" cy="124.73" r="7.27"/><text class="cls-28" transform="translate(202.71 128.07)">V</text><g class="cls-29"><polygon points="183.29 50.22 156.5 50.22 156.5 100.93 195.7 100.93 195.7 62.28 183.29 50.22"/><polygon points="195.72 60.17 185.77 50.22 195.72 50.22 195.72 60.17"/></g><polygon class="cls-30" points="180.94 47.87 154.15 47.87 154.15 98.58 193.36 98.58 193.36 59.93 180.94 47.87"/><polygon class="cls-30" points="193.37 57.82 183.43 47.87 193.37 47.87 193.37 57.82"/><rect class="cls-31" x="158.33" y="53.56" width="9.93" height="1.18"/><rect class="cls-31" x="158.35" y="57.94" width="5.6" height="1.18"/><rect class="cls-31" x="166.29" y="57.94" width="5.6" height="1.18"/><rect class="cls-31" x="174.16" y="57.94" width="5.6" height="1.18"/><rect class="cls-31" x="183.06" y="62.31" width="5.6" height="1.18"/><rect class="cls-31" x="158.33" y="62.31" width="9.21" height="1.18"/><rect class="cls-31" x="170.09" y="62.31" width="9.21" height="1.18"/><rect class="cls-31" x="158.33" y="66.76" width="30.34" height="1.18"/><rect class="cls-31" x="158.33" y="71.2" width="30.34" height="1.18"/><rect class="cls-31" x="158.33" y="75.65" width="7.35" height="1.18"/><rect class="cls-31" x="169.09" y="75.65" width="7.35" height="1.18"/><rect class="cls-31" x="179.39" y="75.65" width="7.35" height="1.18"/><rect class="cls-31" x="158.33" y="80.09" width="11.76" height="1.18"/><line class="cls-32" x1="147.53" y1="71.51" x2="128.29" y2="75.48"/><line class="cls-32" x1="220.68" y1="56.61" x2="198.49" y2="61.19"/><polyline class="cls-32" points="215.44 53.06 220.94 56.38 217.63 61.88"/><polyline class="cls-32" points="132.82 79.11 127.31 75.8 130.63 70.29"/><line class="cls-32" x1="148.91" y1="89.86" x2="129.28" y2="90.32"/><line class="cls-32" x1="216.69" y1="88.24" x2="197.19" y2="88.7"/><polyline class="cls-32" points="134.27 94.8 129.41 90.6 133.61 85.73"/><polyline class="cls-32" points="211.26 83.94 216.13 88.14 211.93 93"/><line class="cls-32" x1="167.17" y1="136.28" x2="129.38" y2="121.06"/><polyline class="cls-32" points="131.86 127.11 129.15 121.28 134.98 118.57"/><path class="cls-31" d="M243,99a13.81,13.81,0,1,0-5.11,19.83l2,3-.7.46,7.55,11.45.7-.46,2.32-1.53.7-.46-7.55-11.45-.7.46-2-3A13.81,13.81,0,0,0,243,99Zm-20.74,13.67a11,11,0,1,1,15.28,3.14A11,11,0,0,1,222.26,112.66Z" transform="translate(-51.96 -23.41)"/><path class="cls-33" d="M222.26,112.66a11,11,0,1,1,15.28,3.14A11,11,0,0,1,222.26,112.66Z" transform="translate(-51.96 -23.41)"/><circle class="cls-31" cx="76.76" cy="57.67" r="2.92"/><circle class="cls-31" cx="102.16" cy="81.08" r="2.92" transform="translate(-78.81 38.53) rotate(-30)"/><circle class="cls-31" cx="88.72" cy="102.72" r="2.92" transform="translate(-96.56 104.79) rotate(-60)"/><circle class="cls-31" cx="23.64" cy="104.11" r="2.92"/><circle class="cls-31" cx="87.43" cy="152.28" r="2.92" transform="translate(-116.39 40.71) rotate(-30)"/><circle class="cls-31" cx="102.16" cy="175.89" r="2.92" transform="translate(-153.21 153) rotate(-60)"/><circle class="cls-31" cx="76.76" cy="152.48" r="2.92"/><circle class="cls-31" cx="155.28" cy="175.89" r="2.92" transform="translate(-119.1 77.79) rotate(-30)"/><circle class="cls-31" cx="170.24" cy="152.28" r="2.92" transform="matrix(0.5, -0.87, 0.87, 0.5, -98.72, 200.16)"/><circle class="cls-31" cx="129.88" cy="104.11" r="2.92"/><circle class="cls-31" cx="170.24" cy="102.72" r="2.92" transform="translate(-80.51 75.47) rotate(-30)"/><circle class="cls-31" cx="155.28" cy="81.08" r="2.92" transform="matrix(0.5, -0.87, 0.87, 0.5, -44.54, 151.6)"/><text class="cls-1" transform="translate(40.13 695.64)"><tspan class="cls-2">M</tspan><tspan x="10.7" y="0">ai</tspan><tspan class="cls-11" x="20.16" y="0">n</tspan><tspan x="27.44" y="0">tain pa</tspan><tspan class="cls-34" x="65.3" y="0">r</tspan><tspan x="69.55" y="0">achains </tspan><tspan class="cls-6" x="114" y="0">b</tspan><tspan x="121.43" y="0">y </tspan><tspan class="cls-13" x="130.45" y="0">c</tspan><tspan x="136.29" y="0">olle</tspan><tspan class="cls-35" x="156.4" y="0">c</tspan><tspan x="162.49" y="0">ting pa</tspan><tspan class="cls-34" x="201.36" y="0">r</tspan><tspan x="205.62" y="0">achain </tspan><tspan x="0.15" y="15.86">t</tspan><tspan class="cls-34" x="4.53" y="15.86">r</tspan><tspan x="8.78" y="15.86">ansa</tspan><tspan class="cls-35" x="34.08" y="15.86">c</tspan><tspan x="40.17" y="15.86">tions f</tspan><tspan class="cls-3" x="74.12" y="15.86">r</tspan><tspan x="78.31" y="15.86">om users and p</tspan><tspan class="cls-3" x="162.34" y="15.86">r</tspan><tspan x="166.53" y="15.86">oducing st</tspan><tspan class="cls-36" x="224.65" y="15.86">a</tspan><tspan class="cls-13" x="230.97" y="15.86">t</tspan><tspan x="235.26" y="15.86">e</tspan><tspan x="38.36" y="31.71">t</tspan><tspan class="cls-34" x="42.74" y="31.71">r</tspan><tspan x="46.99" y="31.71">ansition p</tspan><tspan class="cls-3" x="101.39" y="31.71">r</tspan><tspan x="105.58" y="31.71">oo</tspan><tspan class="cls-12" x="120.09" y="31.71">f</tspan><tspan x="123.82" y="31.71">s </tspan><tspan class="cls-37" x="131.86" y="31.71">f</tspan><tspan x="135.54" y="31.71">or </tspan><tspan class="cls-11" x="149.92" y="31.71">v</tspan><tspan x="156.22" y="31.71">alid</tspan><tspan class="cls-11" x="176.25" y="31.71">a</tspan><tspan class="cls-14" x="182.57" y="31.71">t</tspan><tspan x="186.86" y="31.71">ors</tspan></text><text class="cls-17" transform="translate(113.3 628.5)">Collators</text><circle class="cls-24" cx="79.11" cy="444.48" r="19.53"/><text class="cls-38" transform="translate(70.5 453.45)">V</text><circle class="cls-24" cx="57.31" cy="533.29" r="17.17"/><text class="cls-39" transform="translate(49.74 541.18)">V</text><circle class="cls-24" cx="84.55" cy="516.13" r="9.77"/><text class="cls-40" transform="translate(80.24 520.61)">V</text><circle class="cls-24" cx="104.08" cy="473.77" r="9.77"/><text class="cls-40" transform="translate(99.77 478.26)">V</text><circle class="cls-41" cx="286.09" cy="455.56" r="21.29" transform="translate(-284.42 575.32) rotate(-73.31)"/><rect class="cls-41" x="285.15" y="426.22" width="1.88" height="58.69" transform="matrix(0.29, -0.96, 0.96, 0.29, -284.42, 575.32)"/><text class="cls-42" transform="translate(219.59 438.71) rotate(16.69)">C</text><circle class="cls-41" cx="290.72" cy="517.08" r="16.38" transform="translate(-125.4 25.4) rotate(-8.53)"/><rect class="cls-41" x="268.14" y="516.35" width="45.15" height="1.44" transform="translate(-125.4 25.4) rotate(-8.53)"/><text class="cls-43" transform="translate(230.75 502.99) rotate(-8.52)">C</text><circle class="cls-41" cx="266.17" cy="567.28" r="14.93" transform="translate(-372.65 763.53) rotate(-85.38)"/><rect class="cls-41" x="265.51" y="546.71" width="1.32" height="41.15" transform="translate(-372.65 763.53) rotate(-85.38)"/><text class="cls-44" transform="translate(205.18 550.53) rotate(4.62)">C</text><path class="cls-45" d="M158.24,465.9" transform="translate(-51.96 -23.41)"/><path class="cls-45" d="M258.5,458.36" transform="translate(-51.96 -23.41)"/><line class="cls-32" x1="146.23" y1="439.48" x2="106.28" y2="442.49"/><line class="cls-32" x1="206.54" y1="434.96" x2="177.47" y2="437.14"/><polyline class="cls-32" points="111.17 446.82 106.16 442.78 110.2 437.78"/><path class="cls-45" d="M171.77,492" transform="translate(-51.96 -23.41)"/><line class="cls-32" x1="146.23" y1="458.32" x2="119.81" y2="468.56"/><line class="cls-32" x1="206.54" y1="434.96" x2="177.47" y2="446.22"/><polyline class="cls-32" points="125.6 471.58 119.77 468.88 122.47 463.04"/><path class="cls-45" d="M151.5,536.88" transform="translate(-51.96 -23.41)"/><line class="cls-32" x1="142.58" y1="505.75" x2="99.54" y2="513.47"/><line class="cls-32" x1="217.84" y1="492.26" x2="164.83" y2="501.76"/><polyline class="cls-32" points="104.56 517.65 99.44 513.76 103.32 508.64"/><path class="cls-45" d="M133.89,558.22" transform="translate(-51.96 -23.41)"/><line class="cls-32" x1="115.32" y1="535.99" x2="81.93" y2="534.81"/><line class="cls-32" x1="192.11" y1="538.69" x2="143.34" y2="536.97"/><polyline class="cls-32" points="85.95 539.96 81.77 535.08 86.64 530.9"/><g class="cls-29"><polygon points="134.19 524.42 119.81 524.42 119.81 551.62 140.84 551.62 140.84 530.88 134.19 524.42"/><polygon points="140.85 529.75 135.52 524.42 140.85 524.42 140.85 529.75"/></g><polygon class="cls-30" points="132.93 523.16 118.55 523.16 118.55 550.36 139.58 550.36 139.58 529.63 132.93 523.16"/><polygon class="cls-30" points="139.59 528.49 134.26 523.16 139.59 523.16 139.59 528.49"/><rect class="cls-31" x="120.8" y="526.21" width="5.33" height="0.63"/><rect class="cls-31" x="120.81" y="528.56" width="3.01" height="0.63"/><rect class="cls-31" x="125.06" y="528.56" width="3.01" height="0.63"/><rect class="cls-31" x="129.29" y="528.56" width="3.01" height="0.63"/><rect class="cls-31" x="134.06" y="530.9" width="3.01" height="0.63"/><rect class="cls-31" x="120.8" y="530.9" width="4.94" height="0.63"/><rect class="cls-31" x="127.11" y="530.9" width="4.94" height="0.63"/><rect class="cls-31" x="120.8" y="533.29" width="16.27" height="0.63"/><rect class="cls-31" x="120.8" y="535.67" width="16.27" height="0.63"/><rect class="cls-31" x="120.8" y="538.05" width="3.94" height="0.63"/><rect class="cls-31" x="126.57" y="538.05" width="3.94" height="0.63"/><rect class="cls-31" x="132.09" y="538.05" width="3.94" height="0.63"/><rect class="cls-31" x="120.8" y="540.44" width="6.31" height="0.63"/><g class="cls-29"><polygon points="157.6 499.03 148.13 499.03 148.13 516.96 161.99 516.96 161.99 503.3 157.6 499.03"/><polygon points="161.99 502.55 158.48 499.03 161.99 499.03 161.99 502.55"/></g><polygon class="cls-30" points="156.77 498.2 147.3 498.2 147.3 516.13 161.16 516.13 161.16 502.47 156.77 498.2"/><polygon class="cls-30" points="161.16 501.72 157.65 498.2 161.16 498.2 161.16 501.72"/><rect class="cls-31" x="148.78" y="500.21" width="3.51" height="0.42"/><rect class="cls-31" x="148.78" y="501.76" width="1.98" height="0.42"/><rect class="cls-31" x="151.59" y="501.76" width="1.98" height="0.42"/><rect class="cls-31" x="154.37" y="501.76" width="1.98" height="0.42"/><rect class="cls-31" x="157.52" y="503.31" width="1.98" height="0.42"/><rect class="cls-31" x="148.78" y="503.31" width="3.26" height="0.42"/><rect class="cls-31" x="152.93" y="503.31" width="3.26" height="0.42"/><rect class="cls-31" x="148.78" y="504.88" width="10.72" height="0.42"/><rect class="cls-31" x="148.78" y="506.45" width="10.72" height="0.42"/><rect class="cls-31" x="148.78" y="508.02" width="2.6" height="0.42"/><rect class="cls-31" x="152.58" y="508.02" width="2.6" height="0.42"/><rect class="cls-31" x="156.22" y="508.02" width="2.6" height="0.42"/><rect class="cls-31" x="148.78" y="509.59" width="4.16" height="0.42"/><g class="cls-29"><polygon points="167.43 430.88 151.21 430.88 151.21 461.57 174.94 461.57 174.94 438.17 167.43 430.88"/><polygon points="174.95 436.9 168.93 430.88 174.95 430.88 174.95 436.9"/></g><polygon class="cls-30" points="166.01 429.46 149.79 429.46 149.79 460.14 173.52 460.14 173.52 436.75 166.01 429.46"/><polygon class="cls-30" points="173.53 435.48 167.51 429.46 173.53 429.46 173.53 435.48"/><rect class="cls-31" x="152.32" y="432.9" width="6.01" height="0.71"/><rect class="cls-31" x="152.33" y="435.55" width="3.39" height="0.71"/><rect class="cls-31" x="157.14" y="435.55" width="3.39" height="0.71"/><rect class="cls-31" x="161.9" y="435.55" width="3.39" height="0.71"/><rect class="cls-31" x="167.29" y="438.2" width="3.39" height="0.71"/><rect class="cls-31" x="152.32" y="438.2" width="5.58" height="0.71"/><rect class="cls-31" x="159.44" y="438.2" width="5.58" height="0.71"/><rect class="cls-31" x="152.32" y="440.89" width="18.36" height="0.71"/><rect class="cls-31" x="152.32" y="443.57" width="18.36" height="0.71"/><rect class="cls-31" x="152.32" y="446.26" width="4.45" height="0.71"/><rect class="cls-31" x="158.83" y="446.26" width="4.45" height="0.71"/><rect class="cls-31" x="165.07" y="446.26" width="4.45" height="0.71"/><rect class="cls-31" x="152.32" y="448.95" width="7.12" height="0.71"/><text class="cls-1" transform="translate(433.8 231.2)"><tspan class="cls-2">S</tspan><tspan x="6.59" y="0">ecu</tspan><tspan class="cls-3" x="26.41" y="0">r</tspan><tspan x="30.6" y="0">e the </tspan><tspan class="cls-3" x="61.15" y="0">r</tspan><tspan x="65.34" y="0">el</tspan><tspan class="cls-5" x="75.08" y="0">a</tspan><tspan x="81.34" y="0">y chain </tspan><tspan class="cls-46" x="123.21" y="0">b</tspan><tspan x="130.64" y="0">y sele</tspan><tspan class="cls-47" x="161.25" y="0">c</tspan><tspan x="167.34" y="0">ting good </tspan><tspan class="cls-11" x="34.74" y="15.86">v</tspan><tspan x="41.05" y="15.86">alid</tspan><tspan class="cls-11" x="61.08" y="15.86">a</tspan><tspan class="cls-13" x="67.39" y="15.86">t</tspan><tspan x="71.69" y="15.86">ors and sta</tspan><tspan class="cls-7" x="131.22" y="15.86">k</tspan><tspan x="137.65" y="15.86">ing D</tspan><tspan class="cls-8" x="167.06" y="15.86">O</tspan><tspan class="cls-9" x="175.83" y="15.86">T</tspan><tspan x="181.7" y="15.86">s</tspan></text><text class="cls-48" transform="translate(483.66 213.83)">Nominators</text><circle class="cls-24" cx="549.54" cy="139.42" r="17.21"/><text class="cls-49" transform="translate(542.54 147.33)">V</text><g class="cls-50"><circle class="cls-24" cx="580.49" cy="165.02" r="8.6"/><text class="cls-51" transform="translate(575.99 168.97)">V</text></g><g class="cls-50"><circle class="cls-24" cx="509.91" cy="152.97" r="8.6"/><text class="cls-51" transform="translate(505.42 156.92)">V</text></g><circle class="cls-31" cx="480.55" cy="71.41" r="25.79"/><path class="cls-52" d="M532.51,126.52a31.7,31.7,0,1,1,31.7-31.7A31.73,31.73,0,0,1,532.51,126.52Zm0-62A30.29,30.29,0,1,0,562.8,94.82,30.32,30.32,0,0,0,532.51,64.53Z" transform="translate(-51.96 -23.41)"/><text class="cls-53" transform="translate(469.05 81.17)">N</text><line class="cls-32" x1="526.62" y1="116.81" x2="532.22" y2="121.86"/><line class="cls-32" x1="504.81" y1="97.13" x2="510.12" y2="101.92"/><polyline class="cls-32" points="531.98 115.34 532.52 121.74 526.11 122.28"/><line class="cls-32" x1="586.44" y1="122.41" x2="574.08" y2="130.89"/><line class="cls-32" x1="610.74" y1="105.75" x2="602.46" y2="111.43"/><polyline class="cls-32" points="580.49 132.14 574.13 131.2 575.07 124.84"/><line class="cls-32" x1="565.23" y1="99.94" x2="560.18" y2="112.62"/><line class="cls-32" x1="581.84" y1="58.24" x2="572.7" y2="81.17"/><polyline class="cls-32" points="565.97 109.81 560.18 112.61 557.38 106.83"/><circle class="cls-31" cx="591.02" cy="29.38" r="20.98"/><path class="cls-52" d="M643,78.58a25.79,25.79,0,1,1,25.79-25.79A25.82,25.82,0,0,1,643,78.58Zm0-50.43a24.64,24.64,0,1,0,24.64,24.64A24.67,24.67,0,0,0,643,28.15Z" transform="translate(-51.96 -23.41)"/><text class="cls-54" transform="translate(581.66 37.32)">N</text><circle class="cls-31" cx="625.07" cy="92.58" r="12.93"/><path class="cls-52" d="M677,131.88A15.89,15.89,0,1,1,692.91,116,15.9,15.9,0,0,1,677,131.88Zm0-31.07A15.18,15.18,0,1,0,692.21,116,15.2,15.2,0,0,0,677,100.81Z" transform="translate(-51.96 -23.41)"/><text class="cls-55" transform="translate(619.3 97.47)">N</text><rect class="cls-56" x="561.67" y="82.77" width="14.36" height="14.36" rx="7.18" ry="7.18"/><polyline class="cls-57" points="564.48 89.76 567.74 93.02 572.93 87.83"/><rect class="cls-56" x="586.44" y="109.72" width="14.36" height="14.36" rx="7.18" ry="7.18"/><polyline class="cls-57" points="589.75 116.79 592.62 119.66 597.19 115.09"/><rect class="cls-56" x="512.25" y="101.53" width="14.36" height="14.36" rx="7.18" ry="7.18"/><polyline class="cls-57" points="515.62 108.61 518.44 111.43 522.94 106.93"/><circle class="cls-31" cx="550.58" cy="116.97" r="2.49"/><circle class="cls-31" cx="582.44" cy="151.11" r="2.49" transform="translate(108.36 556.52) rotate(-60)"/><circle class="cls-31" cx="581.67" cy="173.89" r="2.49" transform="translate(-60.96 290.77) rotate(-30)"/><circle class="cls-31" cx="549.06" cy="162.53" r="2.49"/><circle class="cls-31" cx="621.12" cy="175.21" r="2.49" transform="matrix(0.5, -0.87, 0.87, 0.5, 106.83, 602.07)"/><circle class="cls-31" cx="621.89" cy="152.43" r="2.49" transform="translate(-44.85 308) rotate(-30)"/><text class="cls-1" transform="translate(437.78 695.64)"><tspan class="cls-58">F</tspan><tspan x="6.09" y="0">inal secu</tspan><tspan class="cls-59" x="53.86" y="0">r</tspan><tspan x="58.23" y="0">i</tspan><tspan class="cls-60" x="61.32" y="0">t</tspan><tspan x="65.81" y="0">y f</tspan><tspan class="cls-3" x="78.7" y="0">r</tspan><tspan x="82.88" y="0">o</tspan><tspan class="cls-11" x="90.14" y="0">n</tspan><tspan x="97.42" y="0">tie</tspan><tspan class="cls-9" x="111.5" y="0">r</tspan><tspan x="115.12" y="0">, they moni</tspan><tspan class="cls-13" x="176.71" y="0">t</tspan><tspan x="181" y="0">or the </tspan><tspan x="-22.25" y="15.86">ne</tspan><tspan class="cls-60" x="-8.3" y="15.86">t</tspan><tspan class="cls-61" x="-3.81" y="15.86">w</tspan><tspan x="5.79" y="15.86">o</tspan><tspan class="cls-59" x="13.04" y="15.86">r</tspan><tspan x="17.41" y="15.86">k and p</tspan><tspan class="cls-3" x="57.88" y="15.86">r</tspan><tspan class="cls-62" x="62.07" y="15.86">o</tspan><tspan class="cls-61" x="69.24" y="15.86">v</tspan><tspan x="75.46" y="15.86">e bad beh</tspan><tspan class="cls-5" x="130.49" y="15.86">a</tspan><tspan x="136.75" y="15.86">viour </tspan><tspan class="cls-13" x="167.86" y="15.86">t</tspan><tspan x="172.15" y="15.86">o </tspan><tspan class="cls-11" x="182.21" y="15.86">v</tspan><tspan x="188.51" y="15.86">alid</tspan><tspan class="cls-11" x="208.54" y="15.86">a</tspan><tspan class="cls-13" x="214.86" y="15.86">t</tspan><tspan x="219.15" y="15.86">ors</tspan></text><text class="cls-48" transform="translate(490.9 628.5)"><tspan class="cls-63">F</tspan><tspan x="11.35" y="0">ishermen</tspan></text><circle class="cls-24" cx="537.16" cy="536.88" r="15.22"/><text class="cls-64" transform="translate(529.21 543.87)">V</text><g class="cls-50"><circle class="cls-24" cx="622.03" cy="536.88" r="9.72"/><text class="cls-65" transform="translate(616.96 541.34)">V</text></g><g class="cls-50"><circle class="cls-24" cx="452.28" cy="536.88" r="9.72"/><text class="cls-65" transform="translate(447.21 541.34)">V</text></g><path class="cls-31" d="M650.79,456.17a1.73,1.73,0,1,0-2.56,1.51v6.81a1.95,1.95,0,0,1-3.9,0l0-2.29-2.23,4.72,1-.57a3.62,3.62,0,0,0,6.73-1.91v-6.76A1.72,1.72,0,0,0,650.79,456.17Z" transform="translate(-51.96 -23.41)"/><path class="cls-31" d="M646.46,474.93a13.65,13.65,0,1,1,13.65-13.65A13.67,13.67,0,0,1,646.46,474.93Zm0-25.79a12.14,12.14,0,1,0,12.14,12.14A12.15,12.15,0,0,0,646.46,449.14Z" transform="translate(-51.96 -23.41)"/><path class="cls-31" d="M543.89,454.38a2.14,2.14,0,1,0-3.17,1.86v8.43a2.41,2.41,0,0,1-4.83,0l.05-2.83-2.76,5.85,1.28-.71a4.49,4.49,0,0,0,8.34-2.37v-8.38A2.13,2.13,0,0,0,543.89,454.38Z" transform="translate(-51.96 -23.41)"/><path class="cls-31" d="M539.81,478.19a16.91,16.91,0,1,1,16.91-16.91A16.93,16.93,0,0,1,539.81,478.19Zm0-31.95a15,15,0,1,0,15,15A15.05,15.05,0,0,0,539.81,446.24Z" transform="translate(-51.96 -23.41)"/><path class="cls-32" d="M508.67,545.28" transform="translate(-51.96 -23.41)"/><line class="cls-32" x1="462.73" y1="506.13" x2="456.71" y2="521.87"/><line class="cls-32" x1="481.22" y1="457.83" x2="470.43" y2="486.01"/><polyline class="cls-32" points="462.74 519.35 456.82 521.87 454.3 515.95"/><path class="cls-32" d="M579.39,542.32" transform="translate(-51.96 -23.41)"/><line class="cls-32" x1="516.64" y1="498.79" x2="527.43" y2="518.91"/><line class="cls-32" x1="495.01" y1="458.49" x2="501.57" y2="470.72"/><polyline class="cls-32" points="529.47 512.71 527.5 518.83 521.38 516.86"/><path class="cls-32" d="M670.24,547.33" transform="translate(-51.96 -23.41)"/><line class="cls-32" x1="612.93" y1="506.12" x2="618.28" y2="523.92"/><line class="cls-32" x1="597.08" y1="453.49" x2="606.42" y2="484.53"/><polyline class="cls-32" points="612.26 521.4 618.17 523.92 620.69 518"/><path class="cls-32" d="M599.52,544.37" transform="translate(-51.96 -23.41)"/><line class="cls-32" x1="561.12" y1="495.61" x2="547.56" y2="520.96"/><line class="cls-32" x1="583.28" y1="454.15" x2="573.78" y2="471.92"/><polyline class="cls-32" points="545.53 514.76 547.49 520.88 553.61 518.91"/><path class="cls-31" d="M630.31,503.59a11.32,11.32,0,1,0-7.69,14.91l1,2.78-.64.24L627,532l.64-.24,2.13-.8.64-.24-3.94-10.52-.64.24-1-2.79A11.32,11.32,0,0,0,630.31,503.59Zm-19.06,7.15A9,9,0,1,1,622.89,516,9,9,0,0,1,611.25,510.74Z" transform="translate(-51.96 -23.41)"/><circle class="cls-33" cx="619.71" cy="507.56" r="9.04" transform="translate(-190.71 226.47) rotate(-20.55)"/><path class="cls-31" d="M574.28,512.12a13.81,13.81,0,1,0-18.63,8.49l-1.1,3.46-.79-.25-4.16,13.07.79.25L553,538l.79.25L558,525.17l-.79-.25,1.1-3.46A13.81,13.81,0,0,0,574.28,512.12Zm-23.67-7.53a11,11,0,1,1,7.17,13.85A11,11,0,0,1,550.61,504.6Z" transform="translate(-51.96 -23.41)"/><path class="cls-33" d="M550.61,504.6a11,11,0,1,1,7.17,13.85A11,11,0,0,1,550.61,504.6Z" transform="translate(-51.96 -23.41)"/><text class="cls-66" transform="translate(507.62 492.59) rotate(-11.34)">!</text><text class="cls-67" transform="translate(565.25 490.74)">!</text><g class="cls-68"><path class="cls-31" d="M669,523a8.65,8.65,0,1,0-12.4,3.28l-1,2-.46-.24-3.95,7.63.46.24,1.55.8.46.24,3.95-7.63-.46-.24,1-2A8.65,8.65,0,0,0,669,523Zm-13.82-7.15a6.91,6.91,0,1,1,3,9.31A6.92,6.92,0,0,1,655.22,515.84Z" transform="translate(-51.96 -23.41)"/><circle class="cls-33" cx="661.35" cy="519.02" r="6.91" transform="translate(-155.52 844.43) rotate(-62.64)"/><polyline class="cls-57" points="604.81 494.89 608.35 498.42 613.98 492.79"/></g><g class="cls-68"><path class="cls-31" d="M526.19,518.18a8.65,8.65,0,1,0-8.15,9.91l.33,2.25-.52.08,1.26,8.5.52-.08,1.72-.26.52-.08-1.26-8.5-.52.08-.33-2.25A8.65,8.65,0,0,0,526.19,518.18Zm-15.4,2.28a6.91,6.91,0,1,1,7.85,5.82A6.92,6.92,0,0,1,510.8,520.46Z" transform="translate(-51.96 -23.41)"/><circle class="cls-33" cx="517.63" cy="519.45" r="6.91" transform="translate(-122.48 58.03) rotate(-8.42)"/><polyline class="cls-57" points="461.13 495.07 464.47 498.79 470.4 493.48"/></g><circle class="cls-69" cx="351.02" cy="359.27" r="26.43"/><line class="cls-70" x1="351.02" x2="351.02" y2="718.55"/><line class="cls-70" y1="359.27" x2="702.04" y2="359.27"/></svg>
