<svg xmlns="http://www.w3.org/2000/svg" viewBox="0 0 500.51 252.53"><defs><style>.cls-1{fill:#5b5b5b;stroke:#848484;stroke-width:3px;}.cls-1,.cls-14{stroke-miterlimit:10;}.cls-2{font-size:40.25px;fill:#f7d7d7;font-family:Lobster1.4, Lobster1.4;}.cls-3{letter-spacing:0em;}.cls-4{letter-spacing:-0.01em;}.cls-5{letter-spacing:0em;}.cls-15,.cls-6{fill:#fff;}.cls-7{font-size:53.6px;}.cls-10,.cls-7,.cls-8,.cls-9{font-family:Larsseit-Regular, Larsseit;}.cls-8{font-size:25.72px;}.cls-9{font-size:31.14px;}.cls-10{font-size:18.96px;}.cls-11{opacity:0.24;}.cls-12{fill:#fff4f4;}.cls-13{fill:#4d4d4d;}.cls-14{fill:none;stroke:#fff;stroke-width:4px;}.cls-15{opacity:0.2;}</style></defs><title>Validators</title><g id="Layer_2" data-name="Layer 2"><g id="_005_how_does_it_work" data-name="005_how does it work"><polygon class="cls-1" points="161.1 67.2 64.92 67.2 16.83 150.49 64.92 233.79 161.1 233.79 209.19 150.49 161.1 67.2"/><text class="cls-2" transform="translate(70.34 137.59)"><tspan class="cls-3">R</tspan><tspan x="21.81" y="0">el</tspan><tspan class="cls-4" x="51.48" y="0">a</tspan><tspan class="cls-5" x="70.55" y="0">y</tspan><tspan x="-3.66" y="48.3">Chain</tspan></text><circle class="cls-6" cx="459.2" cy="41.32" r="41.32"/><text class="cls-7" transform="translate(441.63 60.3)">V</text><circle class="cls-6" cx="427.09" cy="117.63" r="19.82"/><text class="cls-8" transform="translate(418.74 126.73)">V</text><circle class="cls-6" cx="326.12" cy="223.18" r="24"/><text class="cls-9" transform="translate(315.58 234.2)">V</text><circle class="cls-6" cx="327.38" cy="176.31" r="14.61"/><text class="cls-10" transform="translate(320.75 183.02)">V</text><circle class="cls-6" cx="372.2" cy="190.92" r="14.61"/><text class="cls-10" transform="translate(365.57 197.64)">V</text><g class="cls-11"><polygon points="326.57 41.25 272.74 41.25 272.74 143.11 351.51 143.11 351.51 65.47 326.57 41.25"/><polygon points="351.54 61.23 331.56 41.25 351.54 41.25 351.54 61.23"/></g><polygon class="cls-12" points="321.85 36.53 268.03 36.53 268.03 138.4 346.79 138.4 346.79 60.75 321.85 36.53"/><polygon class="cls-12" points="346.82 56.51 326.84 36.53 346.82 36.53 346.82 56.51"/><rect class="cls-13" x="276.43" y="47.95" width="19.95" height="2.36"/><rect class="cls-13" x="276.46" y="56.75" width="11.26" height="2.36"/><rect class="cls-13" x="292.41" y="56.75" width="11.26" height="2.36"/><rect class="cls-13" x="308.23" y="56.75" width="11.26" height="2.36"/><rect class="cls-13" x="326.12" y="65.54" width="11.26" height="2.36"/><rect class="cls-13" x="276.43" y="65.54" width="18.51" height="2.36"/><rect class="cls-13" x="300.06" y="65.54" width="18.51" height="2.36"/><rect class="cls-13" x="276.43" y="74.47" width="60.94" height="2.36"/><rect class="cls-13" x="276.43" y="83.39" width="60.94" height="2.36"/><rect class="cls-13" x="276.43" y="92.32" width="14.77" height="2.36"/><rect class="cls-13" x="298.04" y="92.32" width="14.77" height="2.36"/><rect class="cls-13" x="318.73" y="92.32" width="14.77" height="2.36"/><rect class="cls-13" x="276.43" y="101.25" width="23.63" height="2.36"/><line class="cls-14" x1="254.73" y1="84.01" x2="216.09" y2="91.98"/><line class="cls-14" x1="401.67" y1="54.09" x2="357.1" y2="63.28"/><polyline class="cls-14" points="391.14 46.96 402.21 53.61 395.56 64.68"/><polyline class="cls-14" points="225.19 99.29 214.13 92.63 220.78 81.57"/><line class="cls-14" x1="257.5" y1="120.87" x2="218.06" y2="121.79"/><line class="cls-14" x1="393.65" y1="117.63" x2="354.49" y2="118.54"/><polyline class="cls-14" points="228.1 130.79 218.33 122.35 226.76 112.58"/><polyline class="cls-14" points="382.76 108.98 392.53 117.41 384.1 127.19"/><line class="cls-14" x1="294.19" y1="214.11" x2="218.28" y2="183.56"/><polyline class="cls-14" points="223.25 195.7 217.81 183.99 229.53 178.55"/><path class="cls-13" d="M342.14,92.2A27.74,27.74,0,1,0,331.87,132l4,6.08-1.4.92,15.16,23,1.4-.92L355.7,158l1.4-.92-15.16-23-1.4.92-4-6.09A27.74,27.74,0,0,0,342.14,92.2Zm-41.66,27.46a22.15,22.15,0,1,1,30.69,6.3A22.18,22.18,0,0,1,300.48,119.66Z"/><path class="cls-15" d="M300.48,119.66a22.15,22.15,0,1,1,30.69,6.3A22.18,22.18,0,0,1,300.48,119.66Z"/><circle class="cls-13" cx="112.56" cy="56.22" r="5.86"/><circle class="cls-13" cx="59.21" cy="56.22" r="5.86" transform="translate(-20.18 37.14) rotate(-30)"/><circle class="cls-13" cx="32.22" cy="99.69" r="5.86" transform="matrix(0.5, -0.87, 0.87, 0.5, -70.22, 77.75)"/><circle class="cls-13" cx="5.86" cy="149.49" r="5.86"/><circle class="cls-13" cx="29.64" cy="199.24" r="5.86" transform="translate(-95.65 41.51) rotate(-30)"/><circle class="cls-13" cx="59.21" cy="246.67" r="5.86" transform="translate(-184.02 174.61) rotate(-60)"/><circle class="cls-13" cx="112.56" cy="246.67" r="5.86"/><circle class="cls-13" cx="165.92" cy="246.67" r="5.86" transform="translate(-101.11 116.01) rotate(-30)"/><circle class="cls-13" cx="195.97" cy="199.24" r="5.86" transform="translate(-74.56 269.33) rotate(-60)"/><circle class="cls-13" cx="219.27" cy="149.49" r="5.86"/><circle class="cls-13" cx="195.97" cy="99.69" r="5.86" transform="translate(-23.59 111.34) rotate(-30)"/><circle class="cls-13" cx="165.92" cy="56.22" r="5.86" transform="matrix(0.5, -0.87, 0.87, 0.5, 34.27, 171.8)"/></g></g></svg>